NotoSansCherokee-Regular.ufo
<glyph name="gravecomb" format="2">
  <unicode hex="0300"/>
  <anchor x="-363" y="536" name="_top"/>
  <anchor x="-363" y="765" name="top"/>
  <outline>
    <contour>
      <point x="-388" y="766" type="curve"/>
      <point x="-493" y="766" type="line"/>
      <point x="-493" y="756" type="line"/>
      <point x="-470" y="719"/>
      <point x="-397" y="642"/>
      <point x="-351" y="606" type="curve"/>
      <point x="-292" y="606" type="line"/>
      <point x="-292" y="618" type="line"/>
      <point x="-323" y="655"/>
      <point x="-366" y="721"/>
    </contour>
  </outline>
</glyph>
<glyph name="acutecomb" format="2">
  <unicode hex="0301"/>
  <anchor x="-272" y="536" name="_top"/>
  <anchor x="-272" y="765" name="top"/>
  <outline>
    <contour>
      <point x="-144" y="766" type="line"/>
      <point x="-250" y="766" type="line"/>
      <point x="-273" y="721"/>
      <point x="-316" y="655"/>
      <point x="-345" y="618" type="curve"/>
      <point x="-345" y="606" type="line"/>
      <point x="-287" y="606" type="line"/>
      <point x="-240" y="642"/>
      <point x="-169" y="719"/>
      <point x="-144" y="756" type="curve"/>
    </contour>
  </outline>
</glyph>
<glyph name="circumflexcomb" format="2">
  <unicode hex="0302"/>
  <anchor x="2" y="536" name="_top"/>
  <anchor x="2" y="765" name="top"/>
  <outline>
    <contour>
      <point x="46" y="766" type="curve"/>
      <point x="-44" y="766" type="line"/>
      <point x="-70" y="721"/>
      <point x="-130" y="656"/>
      <point x="-167" y="617" type="curve"/>
      <point x="-167" y="606" type="line"/>
      <point x="-107" y="606" type="line"/>
      <point x="-72" y="628"/>
      <point x="-36" y="660"/>
      <point x="0" y="696" type="curve"/>
      <point x="36" y="660"/>
      <point x="74" y="627"/>
      <point x="109" y="606" type="curve"/>
      <point x="171" y="606" type="line"/>
      <point x="171" y="617" type="line"/>
      <point x="133" y="655"/>
      <point x="70" y="721"/>
    </contour>
  </outline>
</glyph>
<glyph name="macroncomb" format="2">
  <unicode hex="0304"/>
  <anchor x="1" y="536" name="_top"/>
  <anchor x="1" y="679" name="top"/>
  <outline>
    <contour>
      <point x="149" y="677" type="line"/>
      <point x="-148" y="677" type="line"/>
      <point x="-148" y="606" type="line"/>
      <point x="149" y="606" type="line"/>
    </contour>
  </outline>
</glyph>
<glyph name="hungarumlautcomb" format="2">
  <unicode hex="030B"/>
  <anchor x="54" y="536" name="_top"/>
  <anchor x="54" y="766" name="top"/>
  <outline>
    <contour>
      <point x="233" y="766" type="line"/>
      <point x="137" y="766" type="line"/>
      <point x="116" y="721"/>
      <point x="78" y="656"/>
      <point x="50" y="618" type="curve"/>
      <point x="50" y="606" type="line"/>
      <point x="100" y="606" type="line"/>
      <point x="145" y="642"/>
      <point x="212" y="721"/>
      <point x="233" y="756" type="curve"/>
    </contour>
    <contour>
      <point x="57" y="766" type="line"/>
      <point x="-39" y="766" type="line"/>
      <point x="-61" y="721"/>
      <point x="-98" y="656"/>
      <point x="-126" y="618" type="curve"/>
      <point x="-126" y="606" type="line"/>
      <point x="-76" y="606" type="line"/>
      <point x="-31" y="642"/>
      <point x="36" y="721"/>
      <point x="57" y="756" type="curve"/>
    </contour>
  </outline>
</glyph>
<glyph name="caroncomb" format="2">
  <unicode hex="030C"/>
  <anchor x="0" y="536" name="_top"/>
  <anchor x="2" y="766" name="top"/>
  <outline>
    <contour>
      <point x="169" y="766" type="line"/>
      <point x="107" y="766" type="line"/>
      <point x="72" y="743"/>
      <point x="34" y="710"/>
      <point x="-2" y="674" type="curve"/>
      <point x="-35" y="710"/>
      <point x="-74" y="743"/>
      <point x="-109" y="766" type="curve"/>
      <point x="-169" y="766" type="line"/>
      <point x="-169" y="753" type="line"/>
      <point x="-133" y="715"/>
      <point x="-72" y="651"/>
      <point x="-46" y="606" type="curve"/>
      <point x="44" y="606" type="line"/>
      <point x="68" y="651"/>
      <point x="131" y="715"/>
      <point x="169" y="753" type="curve"/>
    </contour>
  </outline>
</glyph>
<glyph name="dotbelowcomb" format="2">
  <unicode hex="0323"/>
  <anchor x="-298" y="0" name="_bottom"/>
  <anchor x="-297" y="-176" name="bottom"/>
  <outline>
    <contour>
      <point x="-351" y="-120" type="curve" smooth="yes"/>
      <point x="-351" y="-158"/>
      <point x="-327" y="-176"/>
      <point x="-299" y="-176" type="curve" smooth="yes"/>
      <point x="-271" y="-176"/>
      <point x="-247" y="-158"/>
      <point x="-247" y="-120" type="curve" smooth="yes"/>
      <point x="-247" y="-81"/>
      <point x="-271" y="-64"/>
      <point x="-299" y="-64" type="curve" smooth="yes"/>
      <point x="-327" y="-64"/>
      <point x="-351" y="-81"/>
    </contour>
  </outline>
</glyph>
<glyph name="dieresisbelowcomb" format="2">
  <unicode hex="0324"/>
  <anchor x="-1" y="536" name="_top"/>
  <anchor x="-1" y="725" name="top"/>
  <outline>
    <contour>
      <point x="-141" y="681" type="curve" smooth="yes"/>
      <point x="-141" y="647"/>
      <point x="-120" y="631"/>
      <point x="-94" y="631" type="curve" smooth="yes"/>
      <point x="-69" y="631"/>
      <point x="-47" y="647"/>
      <point x="-47" y="681" type="curve" smooth="yes"/>
      <point x="-47" y="716"/>
      <point x="-69" y="730"/>
      <point x="-94" y="730" type="curve" smooth="yes"/>
      <point x="-120" y="730"/>
      <point x="-141" y="716"/>
    </contour>
    <contour>
      <point x="47" y="681" type="curve" smooth="yes"/>
      <point x="47" y="647"/>
      <point x="68" y="631"/>
      <point x="93" y="631" type="curve" smooth="yes"/>
      <point x="118" y="631"/>
      <point x="140" y="647"/>
      <point x="140" y="681" type="curve" smooth="yes"/>
      <point x="140" y="716"/>
      <point x="118" y="730"/>
      <point x="93" y="730" type="curve" smooth="yes"/>
      <point x="68" y="730"/>
      <point x="47" y="716"/>
    </contour>
  </outline>
</glyph>
<glyph name="tildebelowcomb" format="2">
  <unicode hex="0330"/>
  <anchor x="0" y="0" name="_bottom"/>
  <anchor x="2" y="-184" name="bottom"/>
  <outline>
    <contour>
      <point x="183" y="-55" type="curve"/>
      <point x="133" y="-55" type="line"/>
      <point x="123" y="-94"/>
      <point x="109" y="-113"/>
      <point x="78" y="-113" type="curve" smooth="yes"/>
      <point x="36" y="-113"/>
      <point x="-15" y="-56"/>
      <point x="-74" y="-56" type="curve" smooth="yes"/>
      <point x="-137" y="-56"/>
      <point x="-176" y="-105"/>
      <point x="-184" y="-184" type="curve"/>
      <point x="-133" y="-184" type="line"/>
      <point x="-124" y="-145"/>
      <point x="-110" y="-126"/>
      <point x="-78" y="-126" type="curve" smooth="yes"/>
      <point x="-34" y="-126"/>
      <point x="18" y="-183"/>
      <point x="74" y="-183" type="curve" smooth="yes"/>
      <point x="137" y="-183"/>
      <point x="175" y="-133"/>
    </contour>
  </outline>
</glyph>
<glyph name="macronbelowcomb" format="2">
  <unicode hex="0331"/>
  <anchor x="0" y="0" name="_bottom"/>
  <anchor x="3" y="-147" name="bottom"/>
  <outline>
    <contour>
      <point x="149" y="-76" type="line"/>
      <point x="-148" y="-76" type="line"/>
      <point x="-148" y="-147" type="line"/>
      <point x="149" y="-147" type="line"/>
    </contour>
  </outline>
</glyph>
<glyph name="uni13A0" format="2">
  <advance width="804"/>
  <unicode hex="13A0"/>
  <note>
uni13A0
</note>
  <anchor x="402" y="0" name="bottom"/>
  <anchor x="402" y="714" name="top"/>
  <outline>
    <contour>
      <point x="70" y="0" type="line"/>
      <point x="357" y="0" type="line" smooth="yes"/>
      <point x="590" y="0"/>
      <point x="717" y="128"/>
      <point x="717" y="363" type="curve" smooth="yes"/>
      <point x="717" y="585"/>
      <point x="592" y="714"/>
      <point x="378" y="714" type="curve" smooth="yes"/>
      <point x="70" y="714" type="line"/>
      <point x="70" y="663" type="line"/>
      <point x="153" y="654" type="line"/>
      <point x="153" y="60" type="line"/>
      <point x="70" y="51" type="line"/>
    </contour>
    <contour>
      <point x="238" y="62" type="line"/>
      <point x="238" y="652" type="line"/>
      <point x="364" y="652" type="line" smooth="yes"/>
      <point x="536" y="652"/>
      <point x="629" y="549"/>
      <point x="629" y="360" type="curve" smooth="yes"/>
      <point x="629" y="165"/>
      <point x="533" y="62"/>
      <point x="349" y="62" type="curve" smooth="yes"/>
    </contour>
  </outline>
</glyph>
<glyph name="uni13A1" format="2">
  <advance width="732"/>
  <unicode hex="13A1"/>
  <note>
uni13A1
</note>
  <anchor x="366" y="0" name="bottom"/>
  <anchor x="366" y="714" name="top"/>
  <outline>
    <contour>
      <point x="621" y="-5" type="curve" smooth="yes"/>
      <point x="651" y="-5"/>
      <point x="672" y="0"/>
      <point x="687" y="6" type="curve"/>
      <point x="681" y="57" type="line"/>
      <point x="675" y="56"/>
      <point x="667" y="55"/>
      <point x="655" y="55" type="curve" smooth="yes"/>
      <point x="624" y="55"/>
      <point x="608" y="68"/>
      <point x="601" y="106" type="curve" smooth="yes"/>
      <point x="583" y="195" type="line" smooth="yes"/>
      <point x="569" y="269"/>
      <point x="535" y="322"/>
      <point x="481" y="341" type="curve"/>
      <point x="481" y="345" type="line"/>
      <point x="576" y="365"/>
      <point x="627" y="429"/>
      <point x="627" y="529" type="curve" smooth="yes"/>
      <point x="627" y="653"/>
      <point x="542" y="714"/>
      <point x="366" y="714" type="curve" smooth="yes"/>
      <point x="70" y="714" type="line"/>
      <point x="70" y="665" type="line"/>
      <point x="153" y="657" type="line"/>
      <point x="153" y="57" type="line"/>
      <point x="70" y="49" type="line"/>
      <point x="70" y="0" type="line"/>
      <point x="327" y="0" type="line"/>
      <point x="327" y="49" type="line"/>
      <point x="237" y="57" type="line"/>
      <point x="237" y="315" type="line"/>
      <point x="408" y="315" type="line"/>
      <point x="458" y="305"/>
      <point x="489" y="258"/>
      <point x="504" y="172" type="curve" smooth="yes"/>
      <point x="518" y="91" type="line" smooth="yes"/>
      <point x="528" y="36"/>
      <point x="549" y="-5"/>
    </contour>
    <contour>
      <point x="237" y="375" type="line"/>
      <point x="237" y="652" type="line"/>
      <point x="351" y="652" type="line" smooth="yes"/>
      <point x="471" y="652"/>
      <point x="539" y="632"/>
      <point x="539" y="517" type="curve" smooth="yes"/>
      <point x="539" y="421"/>
      <point x="486" y="375"/>
      <point x="379" y="375" type="curve" smooth="yes"/>
    </contour>
  </outline>
</glyph>
<glyph name="uni13A2" format="2">
  <advance width="698"/>
  <unicode hex="13A2"/>
  <note>
uni13A2
</note>
  <anchor x="349" y="0" name="bottom"/>
  <anchor x="349" y="714" name="top"/>
  <outline>
    <contour>
      <point x="205" y="0" type="line"/>
      <point x="492" y="0" type="line"/>
      <point x="492" y="49" type="line"/>
      <point x="391" y="57" type="line"/>
      <point x="391" y="652" type="line"/>
      <point x="593" y="652" type="line"/>
      <point x="601" y="539" type="line"/>
      <point x="664" y="539" type="line"/>
      <point x="664" y="714" type="line"/>
      <point x="34" y="714" type="line"/>
      <point x="34" y="539" type="line"/>
      <point x="97" y="539" type="line"/>
      <point x="105" y="652" type="line"/>
      <point x="307" y="652" type="line"/>
      <point x="307" y="57" type="line"/>
      <point x="205" y="49" type="line"/>
    </contour>
  </outline>
</glyph>
<glyph name="uni13A3" format="2">
  <advance width="877"/>
  <unicode hex="13A3"/>
  <note>
uni13A3
</note>
  <anchor x="459" y="0" name="bottom"/>
  <anchor x="459" y="714" name="top"/>
  <outline>
    <contour>
      <point x="548" y="-11" type="line"/>
      <point x="712" y="3"/>
      <point x="817" y="108"/>
      <point x="817" y="257" type="curve" smooth="yes"/>
      <point x="817" y="408"/>
      <point x="719" y="502"/>
      <point x="516" y="549" type="curve"/>
      <point x="516" y="657" type="line"/>
      <point x="601" y="665" type="line"/>
      <point x="601" y="714" type="line"/>
      <point x="352" y="714" type="line"/>
      <point x="352" y="665" type="line"/>
      <point x="437" y="657" type="line"/>
      <point x="437" y="578" type="line"/>
      <point x="435" y="538"/>
      <point x="373" y="478"/>
      <point x="301" y="445" type="curve"/>
      <point x="287" y="448"/>
      <point x="275" y="449"/>
      <point x="262" y="449" type="curve" smooth="yes"/>
      <point x="138" y="449"/>
      <point x="57" y="361"/>
      <point x="57" y="224" type="curve" smooth="yes"/>
      <point x="57" y="89"/>
      <point x="134" y="8"/>
      <point x="262" y="8" type="curve" smooth="yes"/>
      <point x="386" y="8"/>
      <point x="467" y="97"/>
      <point x="467" y="232" type="curve" smooth="yes"/>
      <point x="467" y="315"/>
      <point x="434" y="381"/>
      <point x="375" y="421" type="curve"/>
      <point x="409" y="439"/>
      <point x="443" y="464"/>
      <point x="476" y="494" type="curve"/>
      <point x="644" y="461"/>
      <point x="736" y="383"/>
      <point x="736" y="256" type="curve" smooth="yes"/>
      <point x="736" y="144"/>
      <point x="673" y="75"/>
      <point x="548" y="52" type="curve"/>
    </contour>
    <contour>
      <point x="262" y="69" type="curve" smooth="yes"/>
      <point x="182" y="69"/>
      <point x="135" y="128"/>
      <point x="135" y="227" type="curve" smooth="yes"/>
      <point x="135" y="326"/>
      <point x="183" y="387"/>
      <point x="262" y="387" type="curve" smooth="yes"/>
      <point x="343" y="387"/>
      <point x="390" y="329"/>
      <point x="390" y="230" type="curve" smooth="yes"/>
      <point x="390" y="130"/>
      <point x="342" y="69"/>
    </contour>
  </outline>
</glyph>
<glyph name="uni13A4" format="2">
  <advance width="1103"/>
  <unicode hex="13A4"/>
  <note>
uni13A4
</note>
  <anchor x="375" y="0" name="bottom"/>
  <anchor x="375" y="714" name="top"/>
  <outline>
    <contour>
      <point x="371" y="-11" type="curve" smooth="yes"/>
      <point x="555" y="-11"/>
      <point x="659" y="108"/>
      <point x="673" y="333" type="curve"/>
      <point x="713" y="271"/>
      <point x="764" y="245"/>
      <point x="838" y="245" type="curve" smooth="yes"/>
      <point x="968" y="245"/>
      <point x="1045" y="345"/>
      <point x="1045" y="515" type="curve" smooth="yes"/>
      <point x="1045" y="645"/>
      <point x="987" y="719"/>
      <point x="886" y="719" type="curve" smooth="yes"/>
      <point x="802" y="719"/>
      <point x="752" y="664"/>
      <point x="752" y="573" type="curve" smooth="yes"/>
      <point x="752" y="548"/>
      <point x="753" y="531"/>
      <point x="755" y="520" type="curve"/>
      <point x="814" y="520" type="line"/>
      <point x="814" y="531"/>
      <point x="814" y="541"/>
      <point x="814" y="552" type="curve" smooth="yes"/>
      <point x="814" y="624"/>
      <point x="838" y="657"/>
      <point x="890" y="657" type="curve" smooth="yes"/>
      <point x="947" y="657"/>
      <point x="976" y="609"/>
      <point x="976" y="515" type="curve" smooth="yes"/>
      <point x="976" y="379"/>
      <point x="929" y="315"/>
      <point x="831" y="315" type="curve" smooth="yes"/>
      <point x="750" y="315"/>
      <point x="687" y="377"/>
      <point x="662" y="479" type="curve" smooth="yes"/>
      <point x="621" y="644"/>
      <point x="526" y="725"/>
      <point x="374" y="725" type="curve" smooth="yes"/>
      <point x="175" y="725"/>
      <point x="62" y="593"/>
      <point x="62" y="358" type="curve" smooth="yes"/>
      <point x="62" y="117"/>
      <point x="169" y="-11"/>
    </contour>
    <contour>
      <point x="371" y="57" type="curve" smooth="yes"/>
      <point x="225" y="57"/>
      <point x="150" y="160"/>
      <point x="150" y="357" type="curve" smooth="yes"/>
      <point x="150" y="557"/>
      <point x="225" y="657"/>
      <point x="374" y="657" type="curve" smooth="yes"/>
      <point x="517" y="657"/>
      <point x="590" y="557"/>
      <point x="590" y="357" type="curve" smooth="yes"/>
      <point x="590" y="156"/>
      <point x="517" y="57"/>
    </contour>
  </outline>
</glyph>
<glyph name="uni13A5" format="2">
  <advance width="339"/>
  <unicode hex="13A5"/>
  <note>
uni13A5
</note>
  <anchor x="170" y="0" name="bottom"/>
  <anchor x="170" y="714" name="top"/>
  <outline>
    <contour>
      <point x="45" y="0" type="line"/>
      <point x="295" y="0" type="line"/>
      <point x="295" y="49" type="line"/>
      <point x="210" y="57" type="line"/>
      <point x="210" y="468" type="line"/>
      <point x="130" y="468" type="line"/>
      <point x="130" y="57" type="line"/>
      <point x="45" y="49" type="line"/>
    </contour>
    <contour>
      <point x="170" y="606" type="curve" smooth="yes"/>
      <point x="202" y="606"/>
      <point x="222" y="629"/>
      <point x="222" y="666" type="curve" smooth="yes"/>
      <point x="222" y="703"/>
      <point x="203" y="725"/>
      <point x="170" y="725" type="curve" smooth="yes"/>
      <point x="136" y="725"/>
      <point x="117" y="704"/>
      <point x="117" y="666" type="curve" smooth="yes"/>
      <point x="117" y="628"/>
      <point x="137" y="606"/>
    </contour>
  </outline>
</glyph>
<glyph name="uni13A6" format="2">
  <advance width="706"/>
  <unicode hex="13A6"/>
  <note>
uni13A6
</note>
  <anchor x="353" y="0" name="bottom"/>
  <anchor x="353" y="714" name="top"/>
  <outline>
    <contour>
      <point x="319" y="-11" type="curve" smooth="yes"/>
      <point x="477" y="-11"/>
      <point x="571" y="58"/>
      <point x="571" y="174" type="curve" smooth="yes"/>
      <point x="571" y="237"/>
      <point x="543" y="280"/>
      <point x="453" y="337" type="curve"/>
      <point x="453" y="342" type="line"/>
      <point x="476" y="340"/>
      <point x="502" y="339"/>
      <point x="533" y="339" type="curve" smooth="yes"/>
      <point x="618" y="339" type="line"/>
      <point x="618" y="395" type="line"/>
      <point x="364" y="395" type="line"/>
      <point x="251" y="444"/>
      <point x="212" y="485"/>
      <point x="212" y="554" type="curve" smooth="yes"/>
      <point x="212" y="623"/>
      <point x="264" y="661"/>
      <point x="356" y="661" type="curve" smooth="yes"/>
      <point x="420" y="661"/>
      <point x="472" y="644"/>
      <point x="486" y="617" type="curve"/>
      <point x="468" y="608"/>
      <point x="457" y="590"/>
      <point x="457" y="570" type="curve" smooth="yes"/>
      <point x="457" y="541"/>
      <point x="477" y="523"/>
      <point x="510" y="523" type="curve" smooth="yes"/>
      <point x="547" y="523"/>
      <point x="567" y="547"/>
      <point x="567" y="589" type="curve" smooth="yes"/>
      <point x="567" y="674"/>
      <point x="463" y="725"/>
      <point x="357" y="725" type="curve" smooth="yes"/>
      <point x="220" y="725"/>
      <point x="132" y="655"/>
      <point x="132" y="547" type="curve" smooth="yes"/>
      <point x="132" y="485"/>
      <point x="161" y="437"/>
      <point x="236" y="389" type="curve"/>
      <point x="236" y="385" type="line"/>
      <point x="217" y="387"/>
      <point x="191" y="388"/>
      <point x="155" y="388" type="curve" smooth="yes"/>
      <point x="88" y="388" type="line"/>
      <point x="88" y="332" type="line"/>
      <point x="330" y="332" type="line"/>
      <point x="441" y="287"/>
      <point x="489" y="238"/>
      <point x="489" y="172" type="curve" smooth="yes"/>
      <point x="489" y="97"/>
      <point x="427" y="55"/>
      <point x="319" y="55" type="curve" smooth="yes"/>
      <point x="259" y="55"/>
      <point x="207" y="70"/>
      <point x="188" y="95" type="curve"/>
      <point x="213" y="104"/>
      <point x="224" y="118"/>
      <point x="224" y="140" type="curve" smooth="yes"/>
      <point x="224" y="170"/>
      <point x="204" y="188"/>
      <point x="171" y="188" type="curve" smooth="yes"/>
      <point x="136" y="188"/>
      <point x="113" y="162"/>
      <point x="113" y="122" type="curve" smooth="yes"/>
      <point x="113" y="36"/>
      <point x="212" y="-11"/>
    </contour>
  </outline>
</glyph>
<glyph name="uni13A7" format="2">
  <advance width="820"/>
  <unicode hex="13A7"/>
  <note>
uni13A7
</note>
  <anchor x="410" y="0" name="bottom"/>
  <anchor x="410" y="714" name="top"/>
  <outline>
    <contour>
      <point x="393" y="-11" type="curve" smooth="yes"/>
      <point x="614" y="-11"/>
      <point x="758" y="140"/>
      <point x="758" y="367" type="curve" smooth="yes"/>
      <point x="758" y="591"/>
      <point x="618" y="725"/>
      <point x="385" y="725" type="curve" smooth="yes"/>
      <point x="286" y="725"/>
      <point x="191" y="693"/>
      <point x="134" y="641" type="curve"/>
      <point x="173" y="590" type="line"/>
      <point x="222" y="629"/>
      <point x="309" y="657"/>
      <point x="381" y="657" type="curve" smooth="yes"/>
      <point x="561" y="657"/>
      <point x="670" y="547"/>
      <point x="670" y="367" type="curve" smooth="yes"/>
      <point x="670" y="186"/>
      <point x="566" y="57"/>
      <point x="393" y="57" type="curve" smooth="yes"/>
      <point x="323" y="57"/>
      <point x="269" y="73"/>
      <point x="230" y="104" type="curve"/>
      <point x="360" y="149"/>
      <point x="430" y="235"/>
      <point x="430" y="347" type="curve" smooth="yes"/>
      <point x="430" y="454"/>
      <point x="363" y="521"/>
      <point x="255" y="521" type="curve" smooth="yes"/>
      <point x="136" y="521"/>
      <point x="59" y="430"/>
      <point x="59" y="290" type="curve" smooth="yes"/>
      <point x="59" y="105"/>
      <point x="199" y="-11"/>
    </contour>
    <contour>
      <point x="189" y="148" type="curve"/>
      <point x="160" y="179"/>
      <point x="143" y="235"/>
      <point x="143" y="292" type="curve" smooth="yes"/>
      <point x="143" y="399"/>
      <point x="186" y="462"/>
      <point x="259" y="462" type="curve" smooth="yes"/>
      <point x="313" y="462"/>
      <point x="347" y="417"/>
      <point x="347" y="346" type="curve" smooth="yes"/>
      <point x="347" y="254"/>
      <point x="287" y="178"/>
    </contour>
  </outline>
</glyph>
<glyph name="uni13A8" format="2">
  <advance width="716"/>
  <unicode hex="13A8"/>
  <note>
uni13A8
</note>
  <anchor x="195" y="0" name="bottom"/>
  <anchor x="195" y="714" name="top"/>
  <outline>
    <contour>
      <point x="70" y="0" type="line"/>
      <point x="319" y="0" type="line"/>
      <point x="319" y="49" type="line"/>
      <point x="238" y="57" type="line"/>
      <point x="238" y="313" type="line"/>
      <point x="381" y="398" type="line"/>
      <point x="409" y="307"/>
      <point x="457" y="264"/>
      <point x="530" y="264" type="curve" smooth="yes"/>
      <point x="628" y="264"/>
      <point x="680" y="327"/>
      <point x="696" y="464" type="curve"/>
      <point x="636" y="470" type="line"/>
      <point x="619" y="375"/>
      <point x="588" y="333"/>
      <point x="535" y="333" type="curve" smooth="yes"/>
      <point x="466" y="333"/>
      <point x="450" y="397"/>
      <point x="425" y="498" type="curve"/>
      <point x="425" y="498" type="line"/>
      <point x="238" y="384" type="line"/>
      <point x="238" y="657" type="line"/>
      <point x="319" y="665" type="line"/>
      <point x="319" y="714" type="line"/>
      <point x="70" y="714" type="line"/>
      <point x="70" y="665" type="line"/>
      <point x="153" y="657" type="line"/>
      <point x="153" y="57" type="line"/>
      <point x="70" y="49" type="line"/>
    </contour>
  </outline>
</glyph>
<glyph name="uni13A9" format="2">
  <advance width="752"/>
  <unicode hex="13A9"/>
  <note>
uni13A9
</note>
  <anchor x="376" y="0" name="bottom"/>
  <anchor x="376" y="714" name="top"/>
  <outline>
    <contour>
      <point x="212" y="-11" type="curve" smooth="yes"/>
      <point x="349" y="-11"/>
      <point x="414" y="124"/>
      <point x="474" y="248" type="curve" smooth="yes"/>
      <point x="673" y="657" type="line"/>
      <point x="732" y="665" type="line"/>
      <point x="732" y="714" type="line"/>
      <point x="500" y="714" type="line"/>
      <point x="500" y="665" type="line"/>
      <point x="590" y="657" type="line"/>
      <point x="440" y="337" type="line" smooth="yes"/>
      <point x="425" y="304"/>
      <point x="407" y="265"/>
      <point x="394" y="233" type="curve"/>
      <point x="391" y="233" type="line"/>
      <point x="379" y="265"/>
      <point x="363" y="301"/>
      <point x="348" y="332" type="curve" smooth="yes"/>
      <point x="196" y="657" type="line"/>
      <point x="285" y="665" type="line"/>
      <point x="285" y="714" type="line"/>
      <point x="31" y="714" type="line"/>
      <point x="31" y="665" type="line"/>
      <point x="97" y="657" type="line"/>
      <point x="349" y="162" type="line"/>
      <point x="307" y="84"/>
      <point x="267" y="48"/>
      <point x="227" y="48" type="curve" smooth="yes"/>
      <point x="217" y="48"/>
      <point x="212" y="52"/>
      <point x="210" y="57" type="curve"/>
      <point x="213" y="61"/>
      <point x="216" y="68"/>
      <point x="216" y="77" type="curve" smooth="yes"/>
      <point x="216" y="104"/>
      <point x="198" y="121"/>
      <point x="168" y="121" type="curve" smooth="yes"/>
      <point x="131" y="121"/>
      <point x="110" y="99"/>
      <point x="110" y="67" type="curve" smooth="yes"/>
      <point x="110" y="24"/>
      <point x="145" y="-11"/>
    </contour>
  </outline>
</glyph>
<glyph name="uni13AA" format="2">
  <advance width="748"/>
  <unicode hex="13AA"/>
  <note>
uni13AA
</note>
  <anchor x="374" y="0" name="bottom"/>
  <anchor x="374" y="714" name="top"/>
  <outline>
    <contour>
      <point x="8" y="0" type="line"/>
      <point x="260" y="0" type="line"/>
      <point x="260" y="49" type="line"/>
      <point x="170" y="57" type="line"/>
      <point x="228" y="222" type="line"/>
      <point x="516" y="222" type="line"/>
      <point x="568" y="57" type="line"/>
      <point x="478" y="49" type="line"/>
      <point x="478" y="0" type="line"/>
      <point x="740" y="0" type="line"/>
      <point x="740" y="49" type="line"/>
      <point x="659" y="57" type="line"/>
      <point x="435" y="714" type="line"/>
      <point x="329" y="714" type="line"/>
      <point x="89" y="57" type="line"/>
      <point x="8" y="49" type="line"/>
    </contour>
    <contour>
      <point x="249" y="284" type="line"/>
      <point x="320" y="488" type="line" smooth="yes"/>
      <point x="351" y="578"/>
      <point x="369" y="636"/>
      <point x="377" y="666" type="curve"/>
      <point x="381" y="666" type="line"/>
      <point x="388" y="636"/>
      <point x="405" y="578"/>
      <point x="432" y="491" type="curve" smooth="yes"/>
      <point x="496" y="284" type="line"/>
    </contour>
  </outline>
</glyph>
<glyph name="uni13AB" format="2">
  <advance width="592"/>
  <unicode hex="13AB"/>
  <note>
uni13AB
</note>
  <anchor x="296" y="0" name="bottom"/>
  <anchor x="409" y="714" name="top"/>
  <outline>
    <contour>
      <point x="225" y="-11" type="curve" smooth="yes"/>
      <point x="376" y="-11"/>
      <point x="455" y="84"/>
      <point x="455" y="267" type="curve" smooth="yes"/>
      <point x="455" y="657" type="line"/>
      <point x="537" y="665" type="line"/>
      <point x="537" y="714" type="line"/>
      <point x="283" y="714" type="line"/>
      <point x="283" y="665" type="line"/>
      <point x="371" y="657" type="line"/>
      <point x="371" y="260" type="line" smooth="yes"/>
      <point x="371" y="122"/>
      <point x="322" y="54"/>
      <point x="221" y="54" type="curve" smooth="yes"/>
      <point x="158" y="54"/>
      <point x="119" y="74"/>
      <point x="104" y="114" type="curve"/>
      <point x="126" y="122"/>
      <point x="137" y="138"/>
      <point x="137" y="163" type="curve" smooth="yes"/>
      <point x="137" y="191"/>
      <point x="117" y="209"/>
      <point x="84" y="209" type="curve" smooth="yes"/>
      <point x="47" y="209"/>
      <point x="24" y="180"/>
      <point x="24" y="131" type="curve" smooth="yes"/>
      <point x="24" y="43"/>
      <point x="118" y="-11"/>
    </contour>
  </outline>
</glyph>
<glyph name="uni13AC" format="2">
  <advance width="705"/>
  <unicode hex="13AC"/>
  <note>
uni13AC
</note>
  <anchor x="383" y="0" name="bottom"/>
  <anchor x="383" y="714" name="top"/>
  <outline>
    <contour>
      <point x="70" y="0" type="line"/>
      <point x="645" y="0" type="line"/>
      <point x="645" y="166" type="line"/>
      <point x="579" y="166" type="line"/>
      <point x="574" y="62" type="line"/>
      <point x="238" y="62" type="line"/>
      <point x="238" y="337" type="line"/>
      <point x="414" y="337" type="line"/>
      <point x="419" y="262" type="line"/>
      <point x="477" y="262" type="line"/>
      <point x="477" y="473" type="line"/>
      <point x="419" y="473" type="line"/>
      <point x="414" y="398" type="line"/>
      <point x="238" y="398" type="line"/>
      <point x="238" y="652" type="line"/>
      <point x="565" y="652" type="line"/>
      <point x="570" y="548" type="line"/>
      <point x="636" y="548" type="line"/>
      <point x="636" y="714" type="line"/>
      <point x="70" y="714" type="line"/>
      <point x="70" y="665" type="line"/>
      <point x="153" y="657" type="line"/>
      <point x="153" y="57" type="line"/>
      <point x="70" y="49" type="line"/>
    </contour>
  </outline>
</glyph>
<glyph name="uni13AD" format="2">
  <advance width="1000"/>
  <unicode hex="13AD"/>
  <note>
uni13AD
</note>
  <anchor x="566" y="0" name="bottom"/>
  <anchor x="566" y="714" name="top"/>
  <outline>
    <contour>
      <point x="527" y="0" type="line"/>
      <point x="620" y="0" type="line"/>
      <point x="897" y="423" type="line"/>
      <point x="978" y="430" type="line"/>
      <point x="978" y="479" type="line"/>
      <point x="730" y="479" type="line"/>
      <point x="730" y="430" type="line"/>
      <point x="815" y="422" type="line"/>
      <point x="698" y="236" type="line" smooth="yes"/>
      <point x="655" y="168"/>
      <point x="624" y="115"/>
      <point x="601" y="70" type="curve"/>
      <point x="598" y="70" type="line"/>
      <point x="602" y="140"/>
      <point x="605" y="240"/>
      <point x="605" y="340" type="curve" smooth="yes"/>
      <point x="605" y="657" type="line"/>
      <point x="692" y="665" type="line"/>
      <point x="692" y="714" type="line"/>
      <point x="427" y="714" type="line"/>
      <point x="427" y="665" type="line"/>
      <point x="527" y="657" type="line"/>
      <point x="527" y="438" type="line"/>
      <point x="396" y="358" type="line"/>
      <point x="381" y="458"/>
      <point x="314" y="517"/>
      <point x="218" y="517" type="curve" smooth="yes"/>
      <point x="108" y="517"/>
      <point x="35" y="439"/>
      <point x="35" y="320" type="curve" smooth="yes"/>
      <point x="35" y="200"/>
      <point x="106" y="124"/>
      <point x="216" y="124" type="curve" smooth="yes"/>
      <point x="315" y="124"/>
      <point x="385" y="187"/>
      <point x="397" y="288" type="curve"/>
      <point x="527" y="370" type="line"/>
    </contour>
    <contour>
      <point x="216" y="182" type="curve" smooth="yes"/>
      <point x="148" y="182"/>
      <point x="108" y="233"/>
      <point x="108" y="320" type="curve" smooth="yes"/>
      <point x="108" y="407"/>
      <point x="148" y="458"/>
      <point x="218" y="458" type="curve" smooth="yes"/>
      <point x="287" y="458"/>
      <point x="326" y="408"/>
      <point x="326" y="320" type="curve" smooth="yes"/>
      <point x="326" y="234"/>
      <point x="285" y="182"/>
    </contour>
  </outline>
</glyph>
<glyph name="uni13AE" format="2">
  <advance width="627"/>
  <unicode hex="13AE"/>
  <note>
uni13AE
</note>
  <anchor x="193" y="0" name="bottom"/>
  <anchor x="301" y="767" name="top"/>
  <outline>
    <contour>
      <point x="70" y="0" type="line"/>
      <point x="320" y="0" type="line"/>
      <point x="320" y="49" type="line"/>
      <point x="237" y="57" type="line"/>
      <point x="237" y="312" type="line"/>
      <point x="295" y="312" type="line" smooth="yes"/>
      <point x="482" y="312"/>
      <point x="582" y="398"/>
      <point x="582" y="557" type="curve" smooth="yes"/>
      <point x="582" y="693"/>
      <point x="472" y="783"/>
      <point x="302" y="783" type="curve" smooth="yes"/>
      <point x="221" y="783"/>
      <point x="141" y="764"/>
      <point x="95" y="733" type="curve"/>
      <point x="120" y="679" type="line"/>
      <point x="169" y="701"/>
      <point x="237" y="715"/>
      <point x="297" y="715" type="curve" smooth="yes"/>
      <point x="430" y="715"/>
      <point x="504" y="657"/>
      <point x="504" y="554" type="curve" smooth="yes"/>
      <point x="504" y="433"/>
      <point x="435" y="375"/>
      <point x="292" y="375" type="curve" smooth="yes"/>
      <point x="237" y="375" type="line"/>
      <point x="237" y="490" type="line"/>
      <point x="313" y="498" type="line"/>
      <point x="313" y="547" type="line"/>
      <point x="70" y="547" type="line"/>
      <point x="70" y="498" type="line"/>
      <point x="153" y="490" type="line"/>
      <point x="153" y="57" type="line"/>
      <point x="70" y="49" type="line"/>
    </contour>
  </outline>
</glyph>
<glyph name="uni13AF" format="2">
  <advance width="770"/>
  <unicode hex="13AF"/>
  <note>
uni13AF
</note>
  <anchor x="400" y="0" name="bottom"/>
  <anchor x="462" y="714" name="top"/>
  <outline>
    <contour>
      <point x="96" y="-5" type="curve" smooth="yes"/>
      <point x="228" y="-5"/>
      <point x="269" y="128"/>
      <point x="292" y="301" type="curve"/>
      <point x="611" y="301" type="line"/>
      <point x="610" y="202"/>
      <point x="596" y="59"/>
      <point x="545" y="57" type="curve"/>
      <point x="545" y="61"/>
      <point x="545" y="65"/>
      <point x="545" y="68" type="curve" smooth="yes"/>
      <point x="545" y="96"/>
      <point x="521" y="106"/>
      <point x="497" y="106" type="curve" smooth="yes"/>
      <point x="468" y="106"/>
      <point x="447" y="84"/>
      <point x="447" y="54" type="curve" smooth="yes"/>
      <point x="447" y="18"/>
      <point x="477" y="-5"/>
      <point x="523" y="-5" type="curve" smooth="yes"/>
      <point x="641" y="-5"/>
      <point x="696" y="116"/>
      <point x="696" y="338" type="curve" smooth="yes"/>
      <point x="696" y="565"/>
      <point x="658" y="725"/>
      <point x="462" y="725" type="curve" smooth="yes"/>
      <point x="305" y="725"/>
      <point x="238" y="632"/>
      <point x="217" y="357" type="curve" smooth="yes"/>
      <point x="205" y="202"/>
      <point x="189" y="68"/>
      <point x="117" y="56" type="curve"/>
      <point x="117" y="59"/>
      <point x="117" y="62"/>
      <point x="117" y="65" type="curve" smooth="yes"/>
      <point x="117" y="95"/>
      <point x="95" y="107"/>
      <point x="71" y="107" type="curve" smooth="yes"/>
      <point x="41" y="107"/>
      <point x="20" y="85"/>
      <point x="20" y="54" type="curve" smooth="yes"/>
      <point x="20" y="18"/>
      <point x="50" y="-5"/>
    </contour>
    <contour>
      <point x="298" y="364" type="line"/>
      <point x="311" y="578"/>
      <point x="349" y="660"/>
      <point x="458" y="660" type="curve" smooth="yes"/>
      <point x="589" y="660"/>
      <point x="610" y="540"/>
      <point x="612" y="364" type="curve"/>
    </contour>
  </outline>
</glyph>
<glyph name="uni13B0" format="2">
  <advance width="610"/>
  <unicode hex="13B0"/>
  <note>
uni13B0
</note>
  <anchor x="195" y="0" name="bottom"/>
  <anchor x="195" y="714" name="top"/>
  <outline>
    <contour>
      <point x="70" y="0" type="line"/>
      <point x="320" y="0" type="line"/>
      <point x="320" y="49" type="line"/>
      <point x="238" y="57" type="line"/>
      <point x="238" y="333" type="line"/>
      <point x="482" y="333" type="line"/>
      <point x="491" y="244" type="line"/>
      <point x="544" y="244" type="line"/>
      <point x="544" y="494" type="line"/>
      <point x="491" y="494" type="line"/>
      <point x="482" y="400" type="line"/>
      <point x="238" y="400" type="line"/>
      <point x="238" y="657" type="line"/>
      <point x="320" y="665" type="line"/>
      <point x="320" y="714" type="line"/>
      <point x="70" y="714" type="line"/>
      <point x="70" y="665" type="line"/>
      <point x="153" y="657" type="line"/>
      <point x="153" y="57" type="line"/>
      <point x="70" y="49" type="line"/>
    </contour>
  </outline>
</glyph>
<glyph name="uni13B1" format="2">
  <advance width="641"/>
  <unicode hex="13B1"/>
  <note>
uni13B1
</note>
  <anchor x="199" y="0" name="bottom"/>
  <anchor x="365" y="714" name="top"/>
  <outline>
    <contour>
      <point x="70" y="0" type="line"/>
      <point x="333" y="0" type="line"/>
      <point x="333" y="49" type="line"/>
      <point x="239" y="57" type="line"/>
      <point x="239" y="652" type="line"/>
      <point x="544" y="652" type="line"/>
      <point x="550" y="524" type="line"/>
      <point x="617" y="524" type="line"/>
      <point x="617" y="714" type="line"/>
      <point x="70" y="714" type="line"/>
      <point x="70" y="665" type="line"/>
      <point x="153" y="657" type="line"/>
      <point x="153" y="57" type="line"/>
      <point x="70" y="49" type="line"/>
    </contour>
  </outline>
</glyph>
<glyph name="uni13B2" format="2">
  <advance width="910"/>
  <unicode hex="13B2"/>
  <note>
uni13B2
</note>
  <anchor x="423" y="0" name="bottom"/>
  <anchor x="425" y="714" name="top"/>
  <outline>
    <contour>
      <point x="241" y="-11" type="curve" smooth="yes"/>
      <point x="305" y="-11"/>
      <point x="368" y="19"/>
      <point x="420" y="72" type="curve"/>
      <point x="479" y="17"/>
      <point x="541" y="-11"/>
      <point x="608" y="-11" type="curve" smooth="yes"/>
      <point x="731" y="-11"/>
      <point x="808" y="70"/>
      <point x="817" y="212" type="curve"/>
      <point x="892" y="220" type="line"/>
      <point x="892" y="269" type="line"/>
      <point x="655" y="269" type="line"/>
      <point x="655" y="220" type="line"/>
      <point x="746" y="212" type="line"/>
      <point x="738" y="104"/>
      <point x="696" y="56"/>
      <point x="607" y="56" type="curve" smooth="yes"/>
      <point x="559" y="56"/>
      <point x="513" y="79"/>
      <point x="469" y="126" type="curve"/>
      <point x="555" y="229"/>
      <point x="615" y="384"/>
      <point x="615" y="504" type="curve" smooth="yes"/>
      <point x="615" y="640"/>
      <point x="542" y="725"/>
      <point x="425" y="725" type="curve" smooth="yes"/>
      <point x="302" y="725"/>
      <point x="224" y="633"/>
      <point x="224" y="486" type="curve" smooth="yes"/>
      <point x="224" y="364"/>
      <point x="277" y="230"/>
      <point x="370" y="122" type="curve"/>
      <point x="329" y="78"/>
      <point x="287" y="56"/>
      <point x="242" y="56" type="curve" smooth="yes"/>
      <point x="162" y="56"/>
      <point x="123" y="105"/>
      <point x="123" y="203" type="curve" smooth="yes"/>
      <point x="123" y="222"/>
      <point x="124" y="242"/>
      <point x="125" y="252" type="curve"/>
      <point x="54" y="252" type="line"/>
      <point x="51" y="235"/>
      <point x="50" y="215"/>
      <point x="50" y="193" type="curve" smooth="yes"/>
      <point x="50" y="63"/>
      <point x="112" y="-11"/>
    </contour>
    <contour>
      <point x="422" y="170" type="curve"/>
      <point x="350" y="264"/>
      <point x="307" y="387"/>
      <point x="307" y="499" type="curve" smooth="yes"/>
      <point x="307" y="596"/>
      <point x="353" y="660"/>
      <point x="424" y="660" type="curve" smooth="yes"/>
      <point x="496" y="660"/>
      <point x="534" y="603"/>
      <point x="534" y="499" type="curve" smooth="yes"/>
      <point x="534" y="400"/>
      <point x="488" y="267"/>
    </contour>
  </outline>
</glyph>
<glyph name="uni13B3" format="2">
  <advance width="1077"/>
  <unicode hex="13B3"/>
  <note>
uni13B3
</note>
  <anchor x="539" y="0" name="bottom"/>
  <anchor x="539" y="714" name="top"/>
  <outline>
    <contour>
      <point x="279" y="0" type="line"/>
      <point x="379" y="0" type="line"/>
      <point x="483" y="341" type="line" smooth="yes"/>
      <point x="507" y="421"/>
      <point x="523" y="477"/>
      <point x="535" y="528" type="curve"/>
      <point x="539" y="528" type="line"/>
      <point x="550" y="473"/>
      <point x="568" y="396"/>
      <point x="581" y="346" type="curve" smooth="yes"/>
      <point x="669" y="0" type="line"/>
      <point x="768" y="0" type="line"/>
      <point x="984" y="657" type="line"/>
      <point x="1065" y="665" type="line"/>
      <point x="1065" y="714" type="line"/>
      <point x="815" y="714" type="line"/>
      <point x="815" y="665" type="line"/>
      <point x="902" y="657" type="line"/>
      <point x="758" y="185" type="line" smooth="yes"/>
      <point x="746" y="144"/>
      <point x="735" y="110"/>
      <point x="725" y="68" type="curve"/>
      <point x="721" y="68" type="line"/>
      <point x="713" y="110"/>
      <point x="708" y="132"/>
      <point x="695" y="185" type="curve" smooth="yes"/>
      <point x="577" y="657" type="line"/>
      <point x="662" y="665" type="line"/>
      <point x="662" y="714" type="line"/>
      <point x="416" y="714" type="line"/>
      <point x="416" y="665" type="line"/>
      <point x="498" y="657" type="line"/>
      <point x="502" y="639" type="line"/>
      <point x="367" y="181" type="line" smooth="yes"/>
      <point x="355" y="142"/>
      <point x="345" y="104"/>
      <point x="336" y="69" type="curve"/>
      <point x="332" y="69" type="line"/>
      <point x="326" y="104"/>
      <point x="318" y="141"/>
      <point x="308" y="181" type="curve" smooth="yes"/>
      <point x="185" y="657" type="line"/>
      <point x="268" y="665" type="line"/>
      <point x="268" y="714" type="line"/>
      <point x="12" y="714" type="line"/>
      <point x="12" y="665" type="line"/>
      <point x="94" y="657" type="line"/>
    </contour>
  </outline>
</glyph>
<glyph name="uni13B4" format="2">
  <advance width="783"/>
  <unicode hex="13B4"/>
  <note>
uni13B4
</note>
  <anchor x="259" y="0" name="bottom"/>
  <anchor x="392" y="714" name="top"/>
  <outline>
    <contour>
      <point x="242" y="-11" type="curve" smooth="yes"/>
      <point x="400" y="-11"/>
      <point x="475" y="91"/>
      <point x="475" y="288" type="curve"/>
      <point x="471" y="528" type="line" smooth="yes"/>
      <point x="471" y="617"/>
      <point x="508" y="665"/>
      <point x="580" y="665" type="curve" smooth="yes"/>
      <point x="636" y="665"/>
      <point x="673" y="635"/>
      <point x="676" y="585" type="curve"/>
      <point x="651" y="574"/>
      <point x="639" y="558"/>
      <point x="639" y="534" type="curve" smooth="yes"/>
      <point x="639" y="505"/>
      <point x="659" y="486"/>
      <point x="691" y="486" type="curve" smooth="yes"/>
      <point x="731" y="486"/>
      <point x="752" y="515"/>
      <point x="752" y="571" type="curve" smooth="yes"/>
      <point x="752" y="661"/>
      <point x="678" y="725"/>
      <point x="579" y="725" type="curve" smooth="yes"/>
      <point x="461" y="725"/>
      <point x="391" y="648"/>
      <point x="391" y="516" type="curve" smooth="yes"/>
      <point x="391" y="474" type="line" smooth="yes"/>
      <point x="391" y="443"/>
      <point x="392" y="419"/>
      <point x="393" y="396" type="curve"/>
      <point x="389" y="396" type="line"/>
      <point x="369" y="440"/>
      <point x="321" y="468"/>
      <point x="255" y="468" type="curve" smooth="yes"/>
      <point x="131" y="468"/>
      <point x="46" y="368"/>
      <point x="46" y="222" type="curve" smooth="yes"/>
      <point x="46" y="79"/>
      <point x="122" y="-11"/>
    </contour>
    <contour>
      <point x="256" y="51" type="curve" smooth="yes"/>
      <point x="176" y="51"/>
      <point x="129" y="115"/>
      <point x="129" y="225" type="curve" smooth="yes"/>
      <point x="129" y="322"/>
      <point x="171" y="404"/>
      <point x="264" y="404" type="curve" smooth="yes"/>
      <point x="342" y="404"/>
      <point x="395" y="341"/>
      <point x="395" y="248" type="curve" smooth="yes"/>
      <point x="395" y="127"/>
      <point x="344" y="51"/>
    </contour>
  </outline>
</glyph>
<glyph name="uni13B5" format="2">
  <advance width="679"/>
  <unicode hex="13B5"/>
  <note>
uni13B5
</note>
  <anchor x="183" y="0" name="bottom"/>
  <anchor x="394" y="714" name="top"/>
  <outline>
    <contour>
      <point x="55" y="0" type="line"/>
      <point x="305" y="0" type="line"/>
      <point x="305" y="49" type="line"/>
      <point x="222" y="57" type="line"/>
      <point x="222" y="443" type="line" smooth="yes"/>
      <point x="222" y="583"/>
      <point x="282" y="660"/>
      <point x="394" y="660" type="curve" smooth="yes"/>
      <point x="494" y="660"/>
      <point x="556" y="601"/>
      <point x="556" y="505" type="curve" smooth="yes"/>
      <point x="556" y="432"/>
      <point x="534" y="380"/>
      <point x="496" y="362" type="curve"/>
      <point x="490" y="384"/>
      <point x="474" y="397"/>
      <point x="452" y="397" type="curve" smooth="yes"/>
      <point x="422" y="397"/>
      <point x="402" y="377"/>
      <point x="402" y="347" type="curve" smooth="yes"/>
      <point x="402" y="315"/>
      <point x="428" y="294"/>
      <point x="467" y="294" type="curve" smooth="yes"/>
      <point x="564" y="294"/>
      <point x="634" y="385"/>
      <point x="634" y="509" type="curve" smooth="yes"/>
      <point x="634" y="635"/>
      <point x="535" y="725"/>
      <point x="395" y="725" type="curve" smooth="yes"/>
      <point x="228" y="725"/>
      <point x="138" y="625"/>
      <point x="138" y="439" type="curve" smooth="yes"/>
      <point x="138" y="57" type="line"/>
      <point x="55" y="49" type="line"/>
    </contour>
  </outline>
</glyph>
<glyph name="uni13B6" format="2">
  <advance width="705"/>
  <unicode hex="13B6"/>
  <note>
uni13B6
</note>
  <anchor x="373" y="0" name="bottom"/>
  <anchor x="373" y="714" name="top"/>
  <outline>
    <contour>
      <point x="387" y="-11" type="curve" smooth="yes"/>
      <point x="534" y="-11"/>
      <point x="655" y="68"/>
      <point x="655" y="205" type="curve" smooth="yes"/>
      <point x="655" y="318"/>
      <point x="592" y="375"/>
      <point x="461" y="378" type="curve"/>
      <point x="458" y="464" type="line"/>
      <point x="394" y="464" type="line"/>
      <point x="394" y="223" type="line"/>
      <point x="458" y="223" type="line"/>
      <point x="461" y="317" type="line"/>
      <point x="544" y="317"/>
      <point x="581" y="282"/>
      <point x="581" y="199" type="curve" smooth="yes"/>
      <point x="581" y="113"/>
      <point x="507" y="57"/>
      <point x="392" y="57" type="curve" smooth="yes"/>
      <point x="235" y="57"/>
      <point x="150" y="161"/>
      <point x="150" y="353" type="curve" smooth="yes"/>
      <point x="150" y="551"/>
      <point x="237" y="657"/>
      <point x="400" y="657" type="curve" smooth="yes"/>
      <point x="466" y="657"/>
      <point x="531" y="639"/>
      <point x="562" y="611" type="curve"/>
      <point x="568" y="523" type="line"/>
      <point x="635" y="523" type="line"/>
      <point x="635" y="643" type="line"/>
      <point x="593" y="689"/>
      <point x="491" y="725"/>
      <point x="400" y="725" type="curve" smooth="yes"/>
      <point x="186" y="725"/>
      <point x="62" y="577"/>
      <point x="62" y="350" type="curve" smooth="yes"/>
      <point x="62" y="120"/>
      <point x="180" y="-11"/>
    </contour>
  </outline>
</glyph>
<glyph name="uni13B7" format="2">
  <advance width="1002"/>
  <unicode hex="13B7"/>
  <note>
uni13B7
</note>
  <anchor x="501" y="0" name="bottom"/>
  <anchor x="501" y="714" name="top"/>
  <outline>
    <contour>
      <point x="70" y="0" type="line"/>
      <point x="298" y="0" type="line"/>
      <point x="298" y="49" type="line"/>
      <point x="228" y="57" type="line"/>
      <point x="228" y="367" type="line" smooth="yes"/>
      <point x="228" y="493"/>
      <point x="226" y="576"/>
      <point x="222" y="647" type="curve"/>
      <point x="234" y="647" type="line"/>
      <point x="448" y="0" type="line"/>
      <point x="539" y="0" type="line"/>
      <point x="757" y="647" type="line"/>
      <point x="770" y="647" type="line"/>
      <point x="768" y="559"/>
      <point x="767" y="485"/>
      <point x="767" y="378" type="curve" smooth="yes"/>
      <point x="767" y="57" type="line"/>
      <point x="696" y="49" type="line"/>
      <point x="696" y="0" type="line"/>
      <point x="932" y="0" type="line"/>
      <point x="932" y="49" type="line"/>
      <point x="850" y="57" type="line"/>
      <point x="850" y="657" type="line"/>
      <point x="932" y="665" type="line"/>
      <point x="932" y="714" type="line"/>
      <point x="706" y="714" type="line"/>
      <point x="536" y="195" type="line" smooth="yes"/>
      <point x="523" y="154"/>
      <point x="511" y="114"/>
      <point x="504" y="83" type="curve"/>
      <point x="497" y="83" type="line"/>
      <point x="490" y="114"/>
      <point x="481" y="148"/>
      <point x="467" y="193" type="curve" smooth="yes"/>
      <point x="302" y="714" type="line"/>
      <point x="70" y="714" type="line"/>
      <point x="70" y="665" type="line"/>
      <point x="152" y="657" type="line"/>
      <point x="152" y="57" type="line"/>
      <point x="70" y="49" type="line"/>
    </contour>
  </outline>
</glyph>
<glyph name="uni13B8" format="2">
  <advance width="811"/>
  <unicode hex="13B8"/>
  <note>
uni13B8
</note>
  <anchor x="633" y="0" name="bottom"/>
  <anchor x="419" y="714" name="top"/>
  <outline>
    <contour>
      <point x="500" y="0" type="line"/>
      <point x="756" y="0" type="line"/>
      <point x="756" y="49" type="line"/>
      <point x="673" y="57" type="line"/>
      <point x="673" y="413" type="line" smooth="yes"/>
      <point x="673" y="620"/>
      <point x="596" y="725"/>
      <point x="419" y="725" type="curve" smooth="yes"/>
      <point x="280" y="725"/>
      <point x="217" y="648"/>
      <point x="217" y="583" type="curve" smooth="yes"/>
      <point x="217" y="547"/>
      <point x="239" y="525"/>
      <point x="275" y="525" type="curve" smooth="yes"/>
      <point x="307" y="525"/>
      <point x="326" y="544"/>
      <point x="326" y="572" type="curve" smooth="yes"/>
      <point x="326" y="593"/>
      <point x="316" y="608"/>
      <point x="295" y="617" type="curve"/>
      <point x="308" y="638"/>
      <point x="348" y="661"/>
      <point x="409" y="661" type="curve" smooth="yes"/>
      <point x="533" y="661"/>
      <point x="589" y="576"/>
      <point x="589" y="421" type="curve" smooth="yes"/>
      <point x="589" y="377" type="line"/>
      <point x="555" y="312"/>
      <point x="482" y="272"/>
      <point x="398" y="272" type="curve" smooth="yes"/>
      <point x="329" y="272"/>
      <point x="294" y="303"/>
      <point x="280" y="376" type="curve"/>
      <point x="120" y="376" type="line"/>
      <point x="115" y="467" type="line"/>
      <point x="52" y="467" type="line"/>
      <point x="52" y="217" type="line"/>
      <point x="115" y="217" type="line"/>
      <point x="120" y="312" type="line"/>
      <point x="219" y="312" type="line"/>
      <point x="248" y="239"/>
      <point x="305" y="205"/>
      <point x="397" y="205" type="curve" smooth="yes"/>
      <point x="475" y="205"/>
      <point x="539" y="230"/>
      <point x="589" y="282" type="curve"/>
      <point x="589" y="57" type="line"/>
      <point x="500" y="49" type="line"/>
    </contour>
  </outline>
</glyph>
<glyph name="uni13B9" format="2">
  <advance width="988"/>
  <unicode hex="13B9"/>
  <note>
uni13B9
</note>
  <anchor x="340" y="0" name="bottom"/>
  <anchor x="374" y="714" name="top"/>
  <outline>
    <contour>
      <point x="337" y="-8" type="curve" smooth="yes"/>
      <point x="444" y="-8"/>
      <point x="508" y="68"/>
      <point x="508" y="196" type="curve" smooth="yes"/>
      <point x="508" y="291"/>
      <point x="457" y="366"/>
      <point x="364" y="404" type="curve"/>
      <point x="383" y="430"/>
      <point x="396" y="460"/>
      <point x="405" y="494" type="curve"/>
      <point x="417" y="480"/>
      <point x="442" y="469"/>
      <point x="475" y="469" type="curve" smooth="yes"/>
      <point x="532" y="469"/>
      <point x="579" y="499"/>
      <point x="639" y="549" type="curve" smooth="yes"/>
      <point x="696" y="596"/>
      <point x="736" y="625"/>
      <point x="791" y="625" type="curve" smooth="yes"/>
      <point x="847" y="625"/>
      <point x="880" y="595"/>
      <point x="880" y="543" type="curve" smooth="yes"/>
      <point x="880" y="490"/>
      <point x="842" y="456"/>
      <point x="786" y="448" type="curve"/>
      <point x="786" y="382" type="line"/>
      <point x="888" y="396"/>
      <point x="954" y="453"/>
      <point x="954" y="549" type="curve" smooth="yes"/>
      <point x="954" y="637"/>
      <point x="891" y="695"/>
      <point x="792" y="695" type="curve" smooth="yes"/>
      <point x="725" y="695"/>
      <point x="670" y="665"/>
      <point x="599" y="605" type="curve" smooth="yes"/>
      <point x="555" y="568"/>
      <point x="515" y="537"/>
      <point x="468" y="537" type="curve" smooth="yes"/>
      <point x="440" y="537"/>
      <point x="422" y="547"/>
      <point x="416" y="563" type="curve"/>
      <point x="416" y="659" type="line"/>
      <point x="500" y="662" type="line"/>
      <point x="500" y="714" type="line"/>
      <point x="249" y="714" type="line"/>
      <point x="249" y="662" type="line"/>
      <point x="334" y="659" type="line"/>
      <point x="334" y="583" type="line" smooth="yes"/>
      <point x="334" y="521"/>
      <point x="326" y="463"/>
      <point x="292" y="419" type="curve"/>
      <point x="285" y="420"/>
      <point x="268" y="422"/>
      <point x="245" y="422" type="curve" smooth="yes"/>
      <point x="128" y="422"/>
      <point x="39" y="356"/>
      <point x="26" y="249" type="curve"/>
      <point x="94" y="249" type="line"/>
      <point x="106" y="316"/>
      <point x="159" y="362"/>
      <point x="230" y="362" type="curve" smooth="yes"/>
      <point x="239" y="362"/>
      <point x="247" y="361"/>
      <point x="251" y="360" type="curve"/>
      <point x="201" y="295"/>
      <point x="176" y="228"/>
      <point x="176" y="156" type="curve" smooth="yes"/>
      <point x="176" y="53"/>
      <point x="235" y="-8"/>
    </contour>
    <contour>
      <point x="338" y="55" type="curve" smooth="yes"/>
      <point x="282" y="55"/>
      <point x="250" y="97"/>
      <point x="250" y="168" type="curve" smooth="yes"/>
      <point x="250" y="233"/>
      <point x="271" y="285"/>
      <point x="326" y="351" type="curve"/>
      <point x="392" y="330"/>
      <point x="432" y="271"/>
      <point x="432" y="196" type="curve" smooth="yes"/>
      <point x="432" y="106"/>
      <point x="398" y="55"/>
    </contour>
  </outline>
</glyph>
<glyph name="uni13BA" format="2">
  <advance width="1054"/>
  <unicode hex="13BA"/>
  <note>
uni13BA
</note>
  <anchor x="527" y="0" name="bottom"/>
  <anchor x="527" y="714" name="top"/>
  <outline>
    <contour>
      <point x="384" y="-10" type="curve" smooth="yes"/>
      <point x="574" y="-10"/>
      <point x="695" y="122"/>
      <point x="702" y="338" type="curve"/>
      <point x="856" y="338" type="line"/>
      <point x="856" y="0" type="line"/>
      <point x="940" y="0" type="line"/>
      <point x="940" y="713" type="line"/>
      <point x="856" y="713" type="line"/>
      <point x="856" y="400" type="line"/>
      <point x="702" y="400" type="line"/>
      <point x="685" y="607"/>
      <point x="570" y="725"/>
      <point x="385" y="725" type="curve" smooth="yes"/>
      <point x="180" y="725"/>
      <point x="62" y="591"/>
      <point x="62" y="358" type="curve" smooth="yes"/>
      <point x="62" y="122"/>
      <point x="178" y="-10"/>
    </contour>
    <contour>
      <point x="384" y="57" type="curve" smooth="yes"/>
      <point x="233" y="57"/>
      <point x="150" y="164"/>
      <point x="150" y="357" type="curve" smooth="yes"/>
      <point x="150" y="553"/>
      <point x="231" y="658"/>
      <point x="385" y="658" type="curve" smooth="yes"/>
      <point x="536" y="658"/>
      <point x="617" y="552"/>
      <point x="617" y="357" type="curve" smooth="yes"/>
      <point x="617" y="162"/>
      <point x="537" y="57"/>
    </contour>
  </outline>
</glyph>
<glyph name="uni13BB" format="2">
  <advance width="849"/>
  <unicode hex="13BB"/>
  <note>
uni13BB
</note>
  <anchor x="425" y="0" name="bottom"/>
  <anchor x="425" y="714" name="top"/>
  <outline>
    <contour>
      <point x="70" y="0" type="line"/>
      <point x="320" y="0" type="line"/>
      <point x="320" y="49" type="line"/>
      <point x="238" y="57" type="line"/>
      <point x="238" y="338" type="line"/>
      <point x="612" y="338" type="line"/>
      <point x="612" y="57" type="line"/>
      <point x="530" y="49" type="line"/>
      <point x="530" y="0" type="line"/>
      <point x="779" y="0" type="line"/>
      <point x="779" y="49" type="line"/>
      <point x="697" y="57" type="line"/>
      <point x="697" y="657" type="line"/>
      <point x="779" y="665" type="line"/>
      <point x="779" y="714" type="line"/>
      <point x="530" y="714" type="line"/>
      <point x="530" y="665" type="line"/>
      <point x="612" y="657" type="line"/>
      <point x="612" y="400" type="line"/>
      <point x="238" y="400" type="line"/>
      <point x="238" y="657" type="line"/>
      <point x="320" y="665" type="line"/>
      <point x="320" y="714" type="line"/>
      <point x="70" y="714" type="line"/>
      <point x="70" y="665" type="line"/>
      <point x="153" y="657" type="line"/>
      <point x="153" y="57" type="line"/>
      <point x="70" y="49" type="line"/>
    </contour>
  </outline>
</glyph>
<glyph name="uni13BC" format="2">
  <advance width="809"/>
  <unicode hex="13BC"/>
  <note>
uni13BC
</note>
  <anchor x="478" y="0" name="bottom"/>
  <anchor x="439" y="714" name="top"/>
  <outline>
    <contour>
      <point x="478" y="-11" type="curve" smooth="yes"/>
      <point x="658" y="-11"/>
      <point x="767" y="114"/>
      <point x="767" y="280" type="curve" smooth="yes"/>
      <point x="767" y="445"/>
      <point x="668" y="546"/>
      <point x="477" y="555" type="curve"/>
      <point x="477" y="657" type="line"/>
      <point x="562" y="665" type="line"/>
      <point x="562" y="714" type="line"/>
      <point x="311" y="714" type="line"/>
      <point x="311" y="665" type="line"/>
      <point x="397" y="657" type="line"/>
      <point x="397" y="557" type="line"/>
      <point x="350" y="484"/>
      <point x="273" y="418"/>
      <point x="187" y="418" type="curve" smooth="yes"/>
      <point x="139" y="418"/>
      <point x="102" y="435"/>
      <point x="64" y="478" type="curve"/>
      <point x="16" y="433" type="line"/>
      <point x="49" y="378"/>
      <point x="108" y="346"/>
      <point x="178" y="346" type="curve" smooth="yes"/>
      <point x="277" y="346"/>
      <point x="361" y="392"/>
      <point x="439" y="491" type="curve"/>
      <point x="597" y="486"/>
      <point x="684" y="414"/>
      <point x="684" y="276" type="curve" smooth="yes"/>
      <point x="684" y="125"/>
      <point x="595" y="57"/>
      <point x="479" y="57" type="curve" smooth="yes"/>
      <point x="373" y="57"/>
      <point x="304" y="119"/>
      <point x="302" y="220" type="curve"/>
      <point x="221" y="220" type="line"/>
      <point x="222" y="78"/>
      <point x="316" y="-11"/>
    </contour>
  </outline>
</glyph>
<glyph name="uni13BD" format="2">
  <advance width="808"/>
  <unicode hex="13BD"/>
  <note>
uni13BD
</note>
  <anchor x="256" y="0" name="bottom"/>
  <anchor x="404" y="714" name="top"/>
  <outline>
    <contour>
      <point x="250" y="-11" type="curve" smooth="yes"/>
      <point x="354" y="-11"/>
      <point x="419" y="55"/>
      <point x="489" y="197" type="curve" smooth="yes"/>
      <point x="717" y="657" type="line"/>
      <point x="788" y="665" type="line"/>
      <point x="788" y="714" type="line"/>
      <point x="536" y="714" type="line"/>
      <point x="536" y="665" type="line"/>
      <point x="632" y="657" type="line"/>
      <point x="486" y="355" type="line" smooth="yes"/>
      <point x="469" y="321"/>
      <point x="453" y="285"/>
      <point x="437" y="251" type="curve"/>
      <point x="434" y="251" type="line"/>
      <point x="420" y="283"/>
      <point x="402" y="320"/>
      <point x="384" y="351" type="curve" smooth="yes"/>
      <point x="175" y="714" type="line"/>
      <point x="74" y="714" type="line"/>
      <point x="391" y="171" type="line"/>
      <point x="346" y="90"/>
      <point x="305" y="54"/>
      <point x="253" y="54" type="curve" smooth="yes"/>
      <point x="194" y="54"/>
      <point x="163" y="94"/>
      <point x="163" y="166" type="curve"/>
      <point x="222" y="174" type="line"/>
      <point x="222" y="223" type="line"/>
      <point x="15" y="223" type="line"/>
      <point x="15" y="174" type="line"/>
      <point x="84" y="166" type="line"/>
      <point x="87" y="50"/>
      <point x="145" y="-11"/>
    </contour>
  </outline>
</glyph>
<glyph name="uni13BE" format="2">
  <advance width="773"/>
  <unicode hex="13BE"/>
  <note>
uni13BE
</note>
  <anchor x="387" y="0" name="bottom"/>
  <anchor x="387" y="714" name="top"/>
  <outline>
    <contour>
      <point x="387" y="-10" type="curve" smooth="yes"/>
      <point x="586" y="-10"/>
      <point x="711" y="131"/>
      <point x="711" y="357" type="curve" smooth="yes"/>
      <point x="711" y="590"/>
      <point x="593" y="725"/>
      <point x="389" y="725" type="curve" smooth="yes"/>
      <point x="184" y="725"/>
      <point x="62" y="589"/>
      <point x="62" y="358" type="curve" smooth="yes"/>
      <point x="62" y="121"/>
      <point x="178" y="-10"/>
    </contour>
    <contour>
      <point x="387" y="57" type="curve" smooth="yes"/>
      <point x="239" y="57"/>
      <point x="155" y="156"/>
      <point x="149" y="338" type="curve"/>
      <point x="624" y="338" type="line"/>
      <point x="617" y="155"/>
      <point x="534" y="57"/>
    </contour>
    <contour>
      <point x="150" y="407" type="line"/>
      <point x="165" y="571"/>
      <point x="247" y="658"/>
      <point x="389" y="658" type="curve" smooth="yes"/>
      <point x="525" y="658"/>
      <point x="607" y="570"/>
      <point x="623" y="407" type="curve"/>
    </contour>
  </outline>
</glyph>
<glyph name="uni13BF" format="2">
  <advance width="776"/>
  <unicode hex="13BF"/>
  <note>
uni13BF
</note>
  <anchor x="327" y="0" name="bottom"/>
  <anchor x="205" y="714" name="top"/>
  <outline>
    <contour>
      <point x="545" y="-78" type="line"/>
      <point x="619" y="-78" type="line"/>
      <point x="619" y="242" type="line"/>
      <point x="755" y="242" type="line"/>
      <point x="755" y="304" type="line"/>
      <point x="409" y="304" type="line"/>
      <point x="409" y="242" type="line"/>
      <point x="545" y="242" type="line"/>
      <point x="545" y="234" type="line" smooth="yes"/>
      <point x="545" y="116"/>
      <point x="495" y="57"/>
      <point x="382" y="57" type="curve" smooth="yes"/>
      <point x="296" y="57"/>
      <point x="251" y="109"/>
      <point x="251" y="214" type="curve" smooth="yes"/>
      <point x="251" y="513" type="line"/>
      <point x="426" y="513" type="line"/>
      <point x="426" y="575" type="line"/>
      <point x="251" y="575" type="line"/>
      <point x="251" y="714" type="line"/>
      <point x="173" y="714" type="line"/>
      <point x="169" y="575" type="line"/>
      <point x="31" y="575" type="line"/>
      <point x="31" y="513" type="line"/>
      <point x="167" y="513" type="line"/>
      <point x="167" y="209" type="line" smooth="yes"/>
      <point x="167" y="63"/>
      <point x="241" y="-11"/>
      <point x="371" y="-11" type="curve" smooth="yes"/>
      <point x="457" y="-11"/>
      <point x="511" y="21"/>
      <point x="542" y="73" type="curve"/>
      <point x="545" y="73" type="line"/>
    </contour>
  </outline>
</glyph>
<glyph name="uni13C0" format="2">
  <advance width="778"/>
  <unicode hex="13C0"/>
  <note>
uni13C0
</note>
  <anchor x="389" y="0" name="bottom"/>
  <anchor x="389" y="714" name="top"/>
  <outline>
    <contour>
      <point x="361" y="-10" type="curve" smooth="yes"/>
      <point x="455" y="-10"/>
      <point x="525" y="24"/>
      <point x="569" y="92" type="curve"/>
      <point x="569" y="0" type="line"/>
      <point x="647" y="0" type="line"/>
      <point x="647" y="253" type="line"/>
      <point x="728" y="262" type="line"/>
      <point x="728" y="311" type="line"/>
      <point x="482" y="311" type="line"/>
      <point x="482" y="262" type="line"/>
      <point x="569" y="253" type="line"/>
      <point x="569" y="200" type="line"/>
      <point x="554" y="116"/>
      <point x="472" y="57"/>
      <point x="368" y="57" type="curve" smooth="yes"/>
      <point x="232" y="57"/>
      <point x="150" y="168"/>
      <point x="150" y="353" type="curve" smooth="yes"/>
      <point x="150" y="552"/>
      <point x="239" y="657"/>
      <point x="408" y="657" type="curve" smooth="yes"/>
      <point x="472" y="657"/>
      <point x="530" y="640"/>
      <point x="565" y="611" type="curve"/>
      <point x="570" y="514" type="line"/>
      <point x="642" y="514" type="line"/>
      <point x="642" y="646" type="line"/>
      <point x="602" y="691"/>
      <point x="503" y="725"/>
      <point x="408" y="725" type="curve" smooth="yes"/>
      <point x="187" y="725"/>
      <point x="62" y="577"/>
      <point x="62" y="351" type="curve" smooth="yes"/>
      <point x="62" y="123"/>
      <point x="173" y="-10"/>
    </contour>
  </outline>
</glyph>
<glyph name="uni13C1" format="2">
  <advance width="834"/>
  <unicode hex="13C1"/>
  <note>
uni13C1
</note>
  <anchor x="417" y="0" name="bottom"/>
  <anchor x="466" y="714" name="top"/>
  <outline>
    <contour>
      <point x="96" y="-6" type="curve" smooth="yes"/>
      <point x="252" y="-6"/>
      <point x="276" y="164"/>
      <point x="297" y="363" type="curve" smooth="yes"/>
      <point x="317" y="555"/>
      <point x="340" y="657"/>
      <point x="466" y="657" type="curve" smooth="yes"/>
      <point x="567" y="657"/>
      <point x="610" y="596"/>
      <point x="610" y="454" type="curve" smooth="yes"/>
      <point x="610" y="57" type="line"/>
      <point x="529" y="49" type="line"/>
      <point x="529" y="0" type="line"/>
      <point x="779" y="0" type="line"/>
      <point x="779" y="49" type="line"/>
      <point x="696" y="57" type="line"/>
      <point x="696" y="460" type="line" smooth="yes"/>
      <point x="696" y="642"/>
      <point x="622" y="725"/>
      <point x="474" y="725" type="curve" smooth="yes"/>
      <point x="309" y="725"/>
      <point x="241" y="631"/>
      <point x="218" y="371" type="curve" smooth="yes"/>
      <point x="199" y="155"/>
      <point x="178" y="63"/>
      <point x="116" y="53" type="curve"/>
      <point x="116" y="55"/>
      <point x="117" y="60"/>
      <point x="117" y="64" type="curve" smooth="yes"/>
      <point x="117" y="92"/>
      <point x="99" y="110"/>
      <point x="71" y="110" type="curve" smooth="yes"/>
      <point x="41" y="110"/>
      <point x="20" y="87"/>
      <point x="20" y="56" type="curve" smooth="yes"/>
      <point x="20" y="19"/>
      <point x="51" y="-6"/>
    </contour>
  </outline>
</glyph>
<glyph name="uni13C2" format="2">
  <advance width="773"/>
  <unicode hex="13C2"/>
  <note>
uni13C2
</note>
  <anchor x="387" y="0" name="bottom"/>
  <anchor x="193" y="714" name="top"/>
  <outline>
    <contour>
      <point x="70" y="0" type="line"/>
      <point x="320" y="0" type="line"/>
      <point x="320" y="49" type="line"/>
      <point x="238" y="57" type="line"/>
      <point x="238" y="199" type="line" smooth="yes"/>
      <point x="238" y="348"/>
      <point x="299" y="420"/>
      <point x="426" y="420" type="curve" smooth="yes"/>
      <point x="523" y="420"/>
      <point x="569" y="361"/>
      <point x="569" y="242" type="curve" smooth="yes"/>
      <point x="569" y="57" type="line"/>
      <point x="487" y="49" type="line"/>
      <point x="487" y="0" type="line"/>
      <point x="736" y="0" type="line"/>
      <point x="736" y="49" type="line"/>
      <point x="653" y="57" type="line"/>
      <point x="653" y="247" type="line" smooth="yes"/>
      <point x="653" y="410"/>
      <point x="584" y="487"/>
      <point x="436" y="487" type="curve" smooth="yes"/>
      <point x="346" y="487"/>
      <point x="273" y="447"/>
      <point x="238" y="381" type="curve"/>
      <point x="234" y="381" type="line"/>
      <point x="236" y="406"/>
      <point x="238" y="439"/>
      <point x="238" y="483" type="curve" smooth="yes"/>
      <point x="238" y="657" type="line"/>
      <point x="327" y="665" type="line"/>
      <point x="327" y="714" type="line"/>
      <point x="70" y="714" type="line"/>
      <point x="70" y="665" type="line"/>
      <point x="153" y="657" type="line"/>
      <point x="153" y="57" type="line"/>
      <point x="70" y="49" type="line"/>
    </contour>
  </outline>
</glyph>
<glyph name="uni13C3" format="2">
  <advance width="635"/>
  <unicode hex="13C3"/>
  <note>
uni13C3
</note>
  <anchor x="318" y="0" name="bottom"/>
  <anchor x="318" y="714" name="top"/>
  <outline>
    <contour>
      <point x="50" y="0" type="line"/>
      <point x="585" y="0" type="line"/>
      <point x="585" y="175" type="line"/>
      <point x="522" y="175" type="line"/>
      <point x="513" y="62" type="line"/>
      <point x="139" y="62" type="line"/>
      <point x="584" y="651" type="line"/>
      <point x="584" y="714" type="line"/>
      <point x="64" y="714" type="line"/>
      <point x="64" y="539" type="line"/>
      <point x="127" y="539" type="line"/>
      <point x="135" y="652" type="line"/>
      <point x="495" y="652" type="line"/>
      <point x="50" y="63" type="line"/>
    </contour>
  </outline>
</glyph>
<glyph name="uni13C4" format="2">
  <advance width="726"/>
  <unicode hex="13C4"/>
  <note>
uni13C4
</note>
  <anchor x="550" y="0" name="bottom"/>
  <anchor x="335" y="714" name="top"/>
  <outline>
    <contour>
      <point x="421" y="0" type="line"/>
      <point x="671" y="0" type="line"/>
      <point x="671" y="49" type="line"/>
      <point x="588" y="57" type="line"/>
      <point x="588" y="445" type="line" smooth="yes"/>
      <point x="588" y="629"/>
      <point x="501" y="725"/>
      <point x="333" y="725" type="curve" smooth="yes"/>
      <point x="198" y="725"/>
      <point x="114" y="653"/>
      <point x="95" y="546" type="curve"/>
      <point x="31" y="540" type="line"/>
      <point x="31" y="491" type="line"/>
      <point x="259" y="491" type="line"/>
      <point x="259" y="540" type="line"/>
      <point x="176" y="545" type="line"/>
      <point x="182" y="610"/>
      <point x="235" y="660"/>
      <point x="334" y="660" type="curve" smooth="yes"/>
      <point x="450" y="660"/>
      <point x="505" y="588"/>
      <point x="505" y="448" type="curve" smooth="yes"/>
      <point x="505" y="321"/>
      <point x="441" y="231"/>
      <point x="322" y="231" type="curve" smooth="yes"/>
      <point x="233" y="231"/>
      <point x="183" y="276"/>
      <point x="176" y="345" type="curve"/>
      <point x="259" y="351" type="line"/>
      <point x="259" y="399" type="line"/>
      <point x="31" y="399" type="line"/>
      <point x="31" y="351" type="line"/>
      <point x="95" y="344" type="line"/>
      <point x="108" y="233"/>
      <point x="189" y="166"/>
      <point x="312" y="166" type="curve" smooth="yes"/>
      <point x="406" y="166"/>
      <point x="471" y="205"/>
      <point x="504" y="260" type="curve"/>
      <point x="508" y="260" type="line"/>
      <point x="506" y="228"/>
      <point x="505" y="178"/>
      <point x="505" y="129" type="curve" smooth="yes"/>
      <point x="505" y="57" type="line"/>
      <point x="421" y="49" type="line"/>
    </contour>
  </outline>
</glyph>
<glyph name="uni13C5" format="2">
  <advance width="1127"/>
  <unicode hex="13C5"/>
  <note>
uni13C5
</note>
  <anchor x="374" y="0" name="bottom"/>
  <anchor x="374" y="714" name="top"/>
  <outline>
    <contour>
      <point x="371" y="-10" type="curve" smooth="yes"/>
      <point x="550" y="-10"/>
      <point x="663" y="117"/>
      <point x="674" y="328" type="curve"/>
      <point x="792" y="398" type="line"/>
      <point x="823" y="306"/>
      <point x="870" y="264"/>
      <point x="942" y="264" type="curve" smooth="yes"/>
      <point x="1039" y="264"/>
      <point x="1092" y="328"/>
      <point x="1107" y="464" type="curve"/>
      <point x="1048" y="470" type="line"/>
      <point x="1031" y="375"/>
      <point x="1000" y="333"/>
      <point x="946" y="333" type="curve" smooth="yes"/>
      <point x="886" y="333"/>
      <point x="863" y="385"/>
      <point x="838" y="498" type="curve"/>
      <point x="836" y="498" type="line"/>
      <point x="673" y="398" type="line"/>
      <point x="660" y="611"/>
      <point x="555" y="725"/>
      <point x="374" y="725" type="curve" smooth="yes"/>
      <point x="175" y="725"/>
      <point x="62" y="593"/>
      <point x="62" y="358" type="curve" smooth="yes"/>
      <point x="62" y="118"/>
      <point x="170" y="-10"/>
    </contour>
    <contour>
      <point x="371" y="57" type="curve" smooth="yes"/>
      <point x="225" y="57"/>
      <point x="150" y="160"/>
      <point x="150" y="357" type="curve" smooth="yes"/>
      <point x="150" y="557"/>
      <point x="225" y="658"/>
      <point x="374" y="658" type="curve" smooth="yes"/>
      <point x="517" y="658"/>
      <point x="590" y="557"/>
      <point x="590" y="357" type="curve" smooth="yes"/>
      <point x="590" y="156"/>
      <point x="518" y="57"/>
    </contour>
  </outline>
</glyph>
<glyph name="uni13C6" format="2">
  <advance width="773"/>
  <unicode hex="13C6"/>
  <note>
uni13C6
</note>
  <anchor x="387" y="0" name="bottom"/>
  <anchor x="387" y="714" name="top"/>
  <outline>
    <contour>
      <point x="92" y="0" type="line"/>
      <point x="699" y="0" type="line"/>
      <point x="699" y="175" type="line"/>
      <point x="635" y="175" type="line"/>
      <point x="628" y="62" type="line"/>
      <point x="426" y="62" type="line"/>
      <point x="426" y="652" type="line"/>
      <point x="603" y="652" type="line"/>
      <point x="611" y="539" type="line"/>
      <point x="674" y="539" type="line"/>
      <point x="674" y="714" type="line"/>
      <point x="74" y="714" type="line"/>
      <point x="74" y="539" type="line"/>
      <point x="137" y="539" type="line"/>
      <point x="145" y="652" type="line"/>
      <point x="342" y="652" type="line"/>
      <point x="342" y="62" type="line"/>
      <point x="163" y="62" type="line"/>
      <point x="155" y="175" type="line"/>
      <point x="92" y="175" type="line"/>
    </contour>
  </outline>
</glyph>
<glyph name="uni13C7" format="2">
  <advance width="1035"/>
  <unicode hex="13C7"/>
  <note>
uni13C7
</note>
  <anchor x="518" y="0" name="bottom"/>
  <anchor x="659" y="714" name="top"/>
  <outline>
    <contour>
      <point x="270" y="-11" type="curve" smooth="yes"/>
      <point x="371" y="-11"/>
      <point x="449" y="38"/>
      <point x="485" y="133" type="curve"/>
      <point x="488" y="133" type="line"/>
      <point x="513" y="39"/>
      <point x="585" y="-11"/>
      <point x="688" y="-11" type="curve" smooth="yes"/>
      <point x="878" y="-11"/>
      <point x="976" y="116"/>
      <point x="976" y="361" type="curve" smooth="yes"/>
      <point x="976" y="569"/>
      <point x="856" y="725"/>
      <point x="652" y="725" type="curve" smooth="yes"/>
      <point x="540" y="725"/>
      <point x="455" y="683"/>
      <point x="406" y="606" type="curve"/>
      <point x="461" y="563" type="line"/>
      <point x="498" y="617"/>
      <point x="558" y="653"/>
      <point x="643" y="653" type="curve" smooth="yes"/>
      <point x="788" y="653"/>
      <point x="889" y="536"/>
      <point x="889" y="361" type="curve" smooth="yes"/>
      <point x="889" y="162"/>
      <point x="822" y="57"/>
      <point x="693" y="57" type="curve" smooth="yes"/>
      <point x="588" y="57"/>
      <point x="536" y="133"/>
      <point x="536" y="270" type="curve" smooth="yes"/>
      <point x="536" y="309"/>
      <point x="541" y="350"/>
      <point x="547" y="383" type="curve"/>
      <point x="466" y="383" type="line"/>
      <point x="460" y="351"/>
      <point x="452" y="287"/>
      <point x="452" y="240" type="curve"/>
      <point x="430" y="121"/>
      <point x="367" y="57"/>
      <point x="272" y="57" type="curve" smooth="yes"/>
      <point x="179" y="57"/>
      <point x="131" y="120"/>
      <point x="131" y="239" type="curve" smooth="yes"/>
      <point x="131" y="298"/>
      <point x="144" y="354"/>
      <point x="161" y="390" type="curve"/>
      <point x="92" y="393" type="line"/>
      <point x="69" y="361"/>
      <point x="50" y="287"/>
      <point x="50" y="224" type="curve" smooth="yes"/>
      <point x="50" y="70"/>
      <point x="126" y="-11"/>
    </contour>
  </outline>
</glyph>
<glyph name="uni13C8" format="2">
  <advance width="868"/>
  <unicode hex="13C8"/>
  <note>
uni13C8
</note>
  <anchor x="434" y="0" name="bottom"/>
  <anchor x="434" y="714" name="top"/>
  <outline>
    <contour>
      <point x="419" y="-11" type="curve" smooth="yes"/>
      <point x="539" y="-11"/>
      <point x="622" y="85"/>
      <point x="622" y="224" type="curve" smooth="yes"/>
      <point x="622" y="359"/>
      <point x="576" y="481"/>
      <point x="484" y="592" type="curve"/>
      <point x="529" y="636"/>
      <point x="579" y="658"/>
      <point x="635" y="658" type="curve" smooth="yes"/>
      <point x="707" y="658"/>
      <point x="755" y="618"/>
      <point x="755" y="557" type="curve" smooth="yes"/>
      <point x="755" y="509"/>
      <point x="734" y="472"/>
      <point x="698" y="459" type="curve"/>
      <point x="698" y="396" type="line"/>
      <point x="780" y="408"/>
      <point x="832" y="471"/>
      <point x="832" y="557" type="curve" smooth="yes"/>
      <point x="832" y="660"/>
      <point x="756" y="725"/>
      <point x="636" y="725" type="curve" smooth="yes"/>
      <point x="564" y="725"/>
      <point x="496" y="697"/>
      <point x="435" y="642" type="curve"/>
      <point x="384" y="694"/>
      <point x="316" y="725"/>
      <point x="255" y="725" type="curve" smooth="yes"/>
      <point x="125" y="725"/>
      <point x="50" y="644"/>
      <point x="50" y="498" type="curve" smooth="yes"/>
      <point x="50" y="482"/>
      <point x="51" y="470"/>
      <point x="52" y="458" type="curve"/>
      <point x="121" y="458" type="line"/>
      <point x="121" y="469"/>
      <point x="120" y="480"/>
      <point x="120" y="497" type="curve" smooth="yes"/>
      <point x="120" y="600"/>
      <point x="169" y="658"/>
      <point x="251" y="658" type="curve" smooth="yes"/>
      <point x="296" y="658"/>
      <point x="345" y="633"/>
      <point x="383" y="591" type="curve"/>
      <point x="287" y="483"/>
      <point x="230" y="342"/>
      <point x="230" y="216" type="curve" smooth="yes"/>
      <point x="230" y="72"/>
      <point x="299" y="-11"/>
    </contour>
    <contour>
      <point x="421" y="55" type="curve" smooth="yes"/>
      <point x="350" y="55"/>
      <point x="311" y="112"/>
      <point x="311" y="217" type="curve" smooth="yes"/>
      <point x="311" y="328"/>
      <point x="361" y="463"/>
      <point x="432" y="543" type="curve"/>
      <point x="504" y="451"/>
      <point x="537" y="350"/>
      <point x="537" y="223" type="curve" smooth="yes"/>
      <point x="537" y="120"/>
      <point x="492" y="55"/>
    </contour>
  </outline>
</glyph>
<glyph name="uni13C9" format="2">
  <advance width="1307"/>
  <unicode hex="13C9"/>
  <note>
uni13C9
</note>
  <anchor x="592" y="0" name="bottom"/>
  <anchor x="607" y="714" name="top"/>
  <outline>
    <contour>
      <point x="533" y="0" type="line"/>
      <point x="640" y="0" type="line"/>
      <point x="851" y="625" type="line"/>
      <point x="872" y="605"/>
      <point x="899" y="596"/>
      <point x="934" y="596" type="curve" smooth="yes"/>
      <point x="956" y="596"/>
      <point x="986" y="605"/>
      <point x="1021" y="622" type="curve" smooth="yes"/>
      <point x="1058" y="640"/>
      <point x="1090" y="647"/>
      <point x="1118" y="647" type="curve" smooth="yes"/>
      <point x="1172" y="647"/>
      <point x="1207" y="614"/>
      <point x="1207" y="561" type="curve" smooth="yes"/>
      <point x="1207" y="501"/>
      <point x="1166" y="459"/>
      <point x="1107" y="459" type="curve" smooth="yes"/>
      <point x="1059" y="459"/>
      <point x="1028" y="483"/>
      <point x="1013" y="531" type="curve"/>
      <point x="952" y="512" type="line"/>
      <point x="969" y="439"/>
      <point x="1024" y="399"/>
      <point x="1107" y="399" type="curve" smooth="yes"/>
      <point x="1207" y="399"/>
      <point x="1277" y="467"/>
      <point x="1277" y="565" type="curve" smooth="yes"/>
      <point x="1277" y="652"/>
      <point x="1213" y="713"/>
      <point x="1121" y="713" type="curve" smooth="yes"/>
      <point x="1092" y="713"/>
      <point x="1057" y="705"/>
      <point x="1019" y="687" type="curve" smooth="yes"/>
      <point x="979" y="668"/>
      <point x="951" y="658"/>
      <point x="932" y="658" type="curve" smooth="yes"/>
      <point x="900" y="658"/>
      <point x="877" y="670"/>
      <point x="869" y="691" type="curve"/>
      <point x="869" y="714" type="line"/>
      <point x="789" y="714" type="line"/>
      <point x="789" y="691" type="line"/>
      <point x="781" y="656"/>
      <point x="768" y="612"/>
      <point x="746" y="544" type="curve" smooth="yes"/>
      <point x="640" y="217" type="line" smooth="yes"/>
      <point x="620" y="158"/>
      <point x="601" y="95"/>
      <point x="592" y="54" type="curve"/>
      <point x="588" y="54" type="line"/>
      <point x="581" y="96"/>
      <point x="565" y="166"/>
      <point x="551" y="223" type="curve" smooth="yes"/>
      <point x="434" y="714" type="line"/>
      <point x="347" y="714" type="line"/>
      <point x="416" y="451" type="line"/>
      <point x="413" y="323"/>
      <point x="331" y="210"/>
      <point x="213" y="210" type="curve" smooth="yes"/>
      <point x="140" y="210"/>
      <point x="104" y="247"/>
      <point x="104" y="310" type="curve" smooth="yes"/>
      <point x="104" y="354"/>
      <point x="128" y="395"/>
      <point x="178" y="395" type="curve" smooth="yes"/>
      <point x="185" y="395"/>
      <point x="192" y="394"/>
      <point x="200" y="392" type="curve"/>
      <point x="193" y="409" type="line"/>
      <point x="186" y="403"/>
      <point x="181" y="393"/>
      <point x="181" y="380" type="curve" smooth="yes"/>
      <point x="181" y="353"/>
      <point x="198" y="337"/>
      <point x="225" y="337" type="curve" smooth="yes"/>
      <point x="256" y="337"/>
      <point x="275" y="358"/>
      <point x="275" y="389" type="curve" smooth="yes"/>
      <point x="275" y="429"/>
      <point x="248" y="458"/>
      <point x="181" y="458" type="curve" smooth="yes"/>
      <point x="92" y="458"/>
      <point x="30" y="398"/>
      <point x="30" y="307" type="curve" smooth="yes"/>
      <point x="30" y="204"/>
      <point x="104" y="144"/>
      <point x="205" y="144" type="curve" smooth="yes"/>
      <point x="323" y="144"/>
      <point x="415" y="218"/>
      <point x="448" y="317" type="curve"/>
      <point x="451" y="317" type="line"/>
    </contour>
  </outline>
</glyph>
<glyph name="uni13CA" format="2">
  <advance width="1068"/>
  <unicode hex="13CA"/>
  <note>
uni13CA
</note>
  <anchor x="486" y="0" name="bottom"/>
  <anchor x="671" y="714" name="top"/>
  <outline>
    <contour>
      <point x="275" y="-11" type="curve" smooth="yes"/>
      <point x="372" y="-11"/>
      <point x="450" y="43"/>
      <point x="482" y="127" type="curve"/>
      <point x="486" y="127" type="line"/>
      <point x="506" y="46"/>
      <point x="580" y="-11"/>
      <point x="688" y="-11" type="curve" smooth="yes"/>
      <point x="889" y="-11"/>
      <point x="1009" y="134"/>
      <point x="1009" y="367" type="curve" smooth="yes"/>
      <point x="1009" y="585"/>
      <point x="878" y="725"/>
      <point x="671" y="725" type="curve" smooth="yes"/>
      <point x="552" y="725"/>
      <point x="470" y="679"/>
      <point x="419" y="619" type="curve"/>
      <point x="466" y="573" type="line"/>
      <point x="511" y="624"/>
      <point x="581" y="657"/>
      <point x="666" y="657" type="curve" smooth="yes"/>
      <point x="825" y="657"/>
      <point x="922" y="535"/>
      <point x="922" y="367" type="curve" smooth="yes"/>
      <point x="922" y="174"/>
      <point x="839" y="57"/>
      <point x="694" y="57" type="curve" smooth="yes"/>
      <point x="598" y="57"/>
      <point x="536" y="125"/>
      <point x="536" y="220" type="curve" smooth="yes"/>
      <point x="536" y="294"/>
      <point x="567" y="351"/>
      <point x="613" y="351" type="curve" smooth="yes"/>
      <point x="622" y="351"/>
      <point x="631" y="349"/>
      <point x="637" y="347" type="curve"/>
      <point x="624" y="364" type="line"/>
      <point x="614" y="362"/>
      <point x="607" y="351"/>
      <point x="607" y="337" type="curve" smooth="yes"/>
      <point x="607" y="315"/>
      <point x="622" y="297"/>
      <point x="650" y="297" type="curve" smooth="yes"/>
      <point x="681" y="297"/>
      <point x="699" y="319"/>
      <point x="699" y="351" type="curve" smooth="yes"/>
      <point x="699" y="390"/>
      <point x="670" y="417"/>
      <point x="619" y="417" type="curve" smooth="yes"/>
      <point x="534" y="417"/>
      <point x="481" y="365"/>
      <point x="460" y="251" type="curve" smooth="yes"/>
      <point x="436" y="122"/>
      <point x="375" y="57"/>
      <point x="275" y="57" type="curve" smooth="yes"/>
      <point x="183" y="57"/>
      <point x="131" y="124"/>
      <point x="131" y="241" type="curve" smooth="yes"/>
      <point x="131" y="298"/>
      <point x="144" y="354"/>
      <point x="161" y="390" type="curve"/>
      <point x="92" y="393" type="line"/>
      <point x="69" y="363"/>
      <point x="50" y="288"/>
      <point x="50" y="224" type="curve" smooth="yes"/>
      <point x="50" y="74"/>
      <point x="131" y="-11"/>
    </contour>
  </outline>
</glyph>
<glyph name="uni13CB" format="2">
  <advance width="665"/>
  <unicode hex="13CB"/>
  <note>
uni13CB
</note>
  <anchor x="333" y="0" name="bottom"/>
  <anchor x="333" y="714" name="top"/>
  <outline>
    <contour>
      <point x="338" y="-11" type="curve" smooth="yes"/>
      <point x="495" y="-11"/>
      <point x="598" y="52"/>
      <point x="598" y="146" type="curve" smooth="yes"/>
      <point x="598" y="218"/>
      <point x="552" y="260"/>
      <point x="458" y="260" type="curve" smooth="yes"/>
      <point x="436" y="260" type="line"/>
      <point x="436" y="201" type="line"/>
      <point x="450" y="201" type="line" smooth="yes"/>
      <point x="497" y="201"/>
      <point x="521" y="184"/>
      <point x="521" y="150" type="curve" smooth="yes"/>
      <point x="521" y="92"/>
      <point x="453" y="57"/>
      <point x="342" y="57" type="curve" smooth="yes"/>
      <point x="218" y="57"/>
      <point x="153" y="107"/>
      <point x="153" y="205" type="curve" smooth="yes"/>
      <point x="153" y="302"/>
      <point x="229" y="362"/>
      <point x="368" y="362" type="curve" smooth="yes"/>
      <point x="500" y="362" type="line"/>
      <point x="500" y="430" type="line"/>
      <point x="368" y="430" type="line" smooth="yes"/>
      <point x="241" y="430"/>
      <point x="176" y="466"/>
      <point x="176" y="541" type="curve" smooth="yes"/>
      <point x="176" y="614"/>
      <point x="240" y="657"/>
      <point x="347" y="657" type="curve" smooth="yes"/>
      <point x="410" y="657"/>
      <point x="481" y="643"/>
      <point x="527" y="620" type="curve"/>
      <point x="558" y="678" type="line"/>
      <point x="503" y="709"/>
      <point x="431" y="725"/>
      <point x="339" y="725" type="curve" smooth="yes"/>
      <point x="190" y="725"/>
      <point x="94" y="655"/>
      <point x="94" y="546" type="curve" smooth="yes"/>
      <point x="94" y="465"/>
      <point x="141" y="411"/>
      <point x="232" y="395" type="curve"/>
      <point x="232" y="391" type="line"/>
      <point x="127" y="371"/>
      <point x="66" y="296"/>
      <point x="66" y="194" type="curve" smooth="yes"/>
      <point x="66" y="63"/>
      <point x="164" y="-11"/>
    </contour>
  </outline>
</glyph>
<glyph name="uni13CC" format="2">
  <advance width="819"/>
  <unicode hex="13CC"/>
  <note>
uni13CC
</note>
  <anchor x="410" y="0" name="bottom"/>
  <anchor x="410" y="714" name="top"/>
  <outline>
    <contour>
      <point x="412" y="-9" type="curve" smooth="yes"/>
      <point x="586" y="-9"/>
      <point x="682" y="73"/>
      <point x="682" y="222" type="curve" smooth="yes"/>
      <point x="682" y="657" type="line"/>
      <point x="764" y="665" type="line"/>
      <point x="764" y="714" type="line"/>
      <point x="515" y="714" type="line"/>
      <point x="515" y="665" type="line"/>
      <point x="598" y="657" type="line"/>
      <point x="598" y="417" type="line"/>
      <point x="221" y="417" type="line"/>
      <point x="221" y="657" type="line"/>
      <point x="304" y="665" type="line"/>
      <point x="304" y="714" type="line"/>
      <point x="55" y="714" type="line"/>
      <point x="55" y="665" type="line"/>
      <point x="137" y="657" type="line"/>
      <point x="137" y="229" type="line" smooth="yes"/>
      <point x="137" y="66"/>
      <point x="224" y="-9"/>
    </contour>
    <contour>
      <point x="412" y="59" type="curve" smooth="yes"/>
      <point x="280" y="59"/>
      <point x="221" y="114"/>
      <point x="221" y="238" type="curve" smooth="yes"/>
      <point x="221" y="355" type="line"/>
      <point x="598" y="355" type="line"/>
      <point x="598" y="233" type="line" smooth="yes"/>
      <point x="598" y="112"/>
      <point x="540" y="59"/>
    </contour>
  </outline>
</glyph>
<glyph name="uni13CD" format="2">
  <advance width="1047"/>
  <unicode hex="13CD"/>
  <note>
uni13CD
</note>
  <anchor x="524" y="0" name="bottom"/>
  <anchor x="566" y="714" name="top"/>
  <outline>
    <contour>
      <point x="255" y="-11" type="curve" smooth="yes"/>
      <point x="372" y="-11"/>
      <point x="449" y="65"/>
      <point x="459" y="189" type="curve"/>
      <point x="599" y="261" type="line"/>
      <point x="599" y="190" type="line" smooth="yes"/>
      <point x="599" y="52"/>
      <point x="653" y="-11"/>
      <point x="765" y="-11" type="curve" smooth="yes"/>
      <point x="904" y="-11"/>
      <point x="988" y="113"/>
      <point x="988" y="319" type="curve" smooth="yes"/>
      <point x="988" y="574"/>
      <point x="833" y="725"/>
      <point x="563" y="725" type="curve" smooth="yes"/>
      <point x="416" y="725"/>
      <point x="304" y="665"/>
      <point x="241" y="604" type="curve"/>
      <point x="283" y="549" type="line"/>
      <point x="341" y="600"/>
      <point x="439" y="652"/>
      <point x="560" y="652" type="curve" smooth="yes"/>
      <point x="781" y="652"/>
      <point x="902" y="535"/>
      <point x="902" y="320" type="curve" smooth="yes"/>
      <point x="902" y="147"/>
      <point x="854" y="51"/>
      <point x="767" y="51" type="curve" smooth="yes"/>
      <point x="704" y="51"/>
      <point x="678" y="98"/>
      <point x="678" y="208" type="curve" smooth="yes"/>
      <point x="678" y="383" type="line"/>
      <point x="756" y="392" type="line"/>
      <point x="756" y="440" type="line"/>
      <point x="516" y="440" type="line"/>
      <point x="516" y="392" type="line"/>
      <point x="601" y="383" type="line"/>
      <point x="599" y="322" type="line"/>
      <point x="457" y="259" type="line"/>
      <point x="440" y="369"/>
      <point x="367" y="430"/>
      <point x="255" y="430" type="curve" smooth="yes"/>
      <point x="131" y="430"/>
      <point x="50" y="341"/>
      <point x="50" y="205" type="curve" smooth="yes"/>
      <point x="50" y="70"/>
      <point x="127" y="-11"/>
    </contour>
    <contour>
      <point x="255" y="50" type="curve" smooth="yes"/>
      <point x="175" y="50"/>
      <point x="128" y="109"/>
      <point x="128" y="208" type="curve" smooth="yes"/>
      <point x="128" y="308"/>
      <point x="175" y="369"/>
      <point x="255" y="369" type="curve" smooth="yes"/>
      <point x="335" y="369"/>
      <point x="382" y="310"/>
      <point x="382" y="211" type="curve" smooth="yes"/>
      <point x="382" y="111"/>
      <point x="334" y="50"/>
    </contour>
  </outline>
</glyph>
<glyph name="uni13CE" format="2">
  <advance width="637"/>
  <unicode hex="13CE"/>
  <note>
uni13CE
</note>
  <anchor x="429" y="0" name="bottom"/>
  <anchor x="405" y="714" name="top"/>
  <outline>
    <contour>
      <point x="305" y="0" type="line"/>
      <point x="552" y="0" type="line"/>
      <point x="552" y="49" type="line"/>
      <point x="471" y="57" type="line"/>
      <point x="471" y="182" type="line"/>
      <point x="578" y="182" type="line"/>
      <point x="578" y="249" type="line"/>
      <point x="471" y="249" type="line"/>
      <point x="471" y="716" type="line"/>
      <point x="361" y="716" type="line"/>
      <point x="20" y="247" type="line"/>
      <point x="20" y="182" type="line"/>
      <point x="387" y="182" type="line"/>
      <point x="387" y="57" type="line"/>
      <point x="305" y="49" type="line"/>
    </contour>
    <contour>
      <point x="106" y="249" type="line"/>
      <point x="353" y="592" type="line"/>
      <point x="386" y="648" type="line"/>
      <point x="390" y="648" type="line"/>
      <point x="387" y="496" type="line"/>
      <point x="387" y="249" type="line"/>
    </contour>
  </outline>
</glyph>
<glyph name="uni13CF" format="2">
  <advance width="672"/>
  <unicode hex="13CF"/>
  <note>
uni13CF
</note>
  <anchor x="336" y="0" name="bottom"/>
  <anchor x="195" y="714" name="top"/>
  <outline>
    <contour>
      <point x="70" y="0" type="line"/>
      <point x="324" y="0" type="line" smooth="yes"/>
      <point x="525" y="0"/>
      <point x="627" y="71"/>
      <point x="627" y="211" type="curve" smooth="yes"/>
      <point x="627" y="348"/>
      <point x="538" y="411"/>
      <point x="341" y="411" type="curve" smooth="yes"/>
      <point x="237" y="411" type="line"/>
      <point x="237" y="657" type="line"/>
      <point x="327" y="665" type="line"/>
      <point x="327" y="714" type="line"/>
      <point x="70" y="714" type="line"/>
      <point x="70" y="665" type="line"/>
      <point x="153" y="657" type="line"/>
      <point x="153" y="57" type="line"/>
      <point x="70" y="49" type="line"/>
    </contour>
    <contour>
      <point x="237" y="62" type="line"/>
      <point x="237" y="348" type="line"/>
      <point x="340" y="348" type="line" smooth="yes"/>
      <point x="486" y="348"/>
      <point x="542" y="310"/>
      <point x="542" y="209" type="curve" smooth="yes"/>
      <point x="542" y="109"/>
      <point x="477" y="62"/>
      <point x="337" y="62" type="curve" smooth="yes"/>
    </contour>
  </outline>
</glyph>
<glyph name="uni13D0" format="2">
  <advance width="684"/>
  <unicode hex="13D0"/>
  <note>
uni13D0
</note>
  <anchor x="342" y="0" name="bottom"/>
  <anchor x="342" y="714" name="top"/>
  <outline>
    <contour>
      <point x="217" y="0" type="line"/>
      <point x="467" y="0" type="line"/>
      <point x="467" y="49" type="line"/>
      <point x="384" y="57" type="line"/>
      <point x="384" y="657" type="line"/>
      <point x="467" y="665" type="line"/>
      <point x="467" y="714" type="line"/>
      <point x="217" y="714" type="line"/>
      <point x="217" y="665" type="line"/>
      <point x="300" y="657" type="line"/>
      <point x="300" y="57" type="line"/>
      <point x="217" y="49" type="line"/>
    </contour>
    <contour>
      <point x="171" y="240" type="curve" smooth="yes"/>
      <point x="213" y="240"/>
      <point x="256" y="255"/>
      <point x="308" y="296" type="curve"/>
      <point x="308" y="373" type="line"/>
      <point x="268" y="327"/>
      <point x="214" y="301"/>
      <point x="175" y="301" type="curve" smooth="yes"/>
      <point x="132" y="301"/>
      <point x="96" y="321"/>
      <point x="96" y="366" type="curve" smooth="yes"/>
      <point x="96" y="373"/>
      <point x="97" y="380"/>
      <point x="99" y="388" type="curve"/>
      <point x="81" y="370" type="line"/>
      <point x="87" y="364"/>
      <point x="95" y="361"/>
      <point x="103" y="361" type="curve" smooth="yes"/>
      <point x="123" y="361"/>
      <point x="143" y="374"/>
      <point x="143" y="401" type="curve" smooth="yes"/>
      <point x="143" y="429"/>
      <point x="123" y="448"/>
      <point x="91" y="448" type="curve" smooth="yes"/>
      <point x="52" y="448"/>
      <point x="24" y="416"/>
      <point x="24" y="369" type="curve" smooth="yes"/>
      <point x="24" y="290"/>
      <point x="81" y="240"/>
    </contour>
    <contour>
      <point x="593" y="266" type="curve" smooth="yes"/>
      <point x="632" y="266"/>
      <point x="660" y="298"/>
      <point x="660" y="345" type="curve" smooth="yes"/>
      <point x="660" y="424"/>
      <point x="603" y="474"/>
      <point x="513" y="474" type="curve" smooth="yes"/>
      <point x="471" y="474"/>
      <point x="428" y="459"/>
      <point x="376" y="418" type="curve"/>
      <point x="376" y="341" type="line"/>
      <point x="415" y="387"/>
      <point x="469" y="413"/>
      <point x="509" y="413" type="curve" smooth="yes"/>
      <point x="552" y="413"/>
      <point x="588" y="393"/>
      <point x="588" y="348" type="curve" smooth="yes"/>
      <point x="588" y="341"/>
      <point x="587" y="334"/>
      <point x="585" y="326" type="curve"/>
      <point x="603" y="344" type="line"/>
      <point x="597" y="350"/>
      <point x="589" y="353"/>
      <point x="581" y="353" type="curve" smooth="yes"/>
      <point x="561" y="353"/>
      <point x="541" y="340"/>
      <point x="541" y="313" type="curve" smooth="yes"/>
      <point x="541" y="285"/>
      <point x="561" y="266"/>
    </contour>
  </outline>
</glyph>
<glyph name="uni13D1" format="2">
  <advance width="877"/>
  <unicode hex="13D1"/>
  <note>
uni13D1
</note>
  <anchor x="359" y="0" name="bottom"/>
  <anchor x="439" y="714" name="top"/>
  <outline>
    <contour>
      <point x="359" y="-8" type="curve" smooth="yes"/>
      <point x="461" y="-8"/>
      <point x="522" y="58"/>
      <point x="522" y="148" type="curve" smooth="yes"/>
      <point x="522" y="252"/>
      <point x="456" y="303"/>
      <point x="322" y="303" type="curve" smooth="yes"/>
      <point x="295" y="303" type="line"/>
      <point x="306" y="349"/>
      <point x="316" y="395"/>
      <point x="327" y="441" type="curve"/>
      <point x="482" y="476"/>
      <point x="559" y="625"/>
      <point x="675" y="625" type="curve" smooth="yes"/>
      <point x="736" y="625"/>
      <point x="768" y="591"/>
      <point x="768" y="543" type="curve" smooth="yes"/>
      <point x="768" y="489"/>
      <point x="731" y="452"/>
      <point x="674" y="443" type="curve"/>
      <point x="674" y="382" type="line"/>
      <point x="780" y="394"/>
      <point x="840" y="456"/>
      <point x="840" y="550" type="curve" smooth="yes"/>
      <point x="840" y="641"/>
      <point x="777" y="695"/>
      <point x="679" y="695" type="curve" smooth="yes"/>
      <point x="521" y="695"/>
      <point x="465" y="557"/>
      <point x="339" y="509" type="curve"/>
      <point x="343" y="529"/>
      <point x="345" y="547"/>
      <point x="345" y="570" type="curve" smooth="yes"/>
      <point x="345" y="674"/>
      <point x="291" y="725"/>
      <point x="194" y="725" type="curve" smooth="yes"/>
      <point x="104" y="725"/>
      <point x="42" y="665"/>
      <point x="42" y="581" type="curve" smooth="yes"/>
      <point x="42" y="484"/>
      <point x="101" y="425"/>
      <point x="216" y="425" type="curve" smooth="yes"/>
      <point x="225" y="425"/>
      <point x="234" y="425"/>
      <point x="244" y="426" type="curve"/>
      <point x="218" y="319"/>
      <point x="195" y="231"/>
      <point x="195" y="163" type="curve" smooth="yes"/>
      <point x="195" y="53"/>
      <point x="254" y="-8"/>
    </contour>
    <contour>
      <point x="363" y="54" type="curve" smooth="yes"/>
      <point x="302" y="54"/>
      <point x="273" y="90"/>
      <point x="273" y="168" type="curve" smooth="yes"/>
      <point x="273" y="194"/>
      <point x="277" y="221"/>
      <point x="283" y="248" type="curve"/>
      <point x="301" y="248" type="line" smooth="yes"/>
      <point x="404" y="248"/>
      <point x="448" y="217"/>
      <point x="448" y="144" type="curve" smooth="yes"/>
      <point x="448" y="89"/>
      <point x="415" y="54"/>
    </contour>
    <contour>
      <point x="221" y="488" type="curve" smooth="yes"/>
      <point x="145" y="488"/>
      <point x="108" y="518"/>
      <point x="108" y="583" type="curve" smooth="yes"/>
      <point x="108" y="632"/>
      <point x="142" y="667"/>
      <point x="191" y="667" type="curve" smooth="yes"/>
      <point x="242" y="667"/>
      <point x="267" y="634"/>
      <point x="267" y="565" type="curve" smooth="yes"/>
      <point x="267" y="543"/>
      <point x="263" y="515"/>
      <point x="258" y="491" type="curve"/>
      <point x="246" y="489"/>
      <point x="235" y="488"/>
    </contour>
  </outline>
</glyph>
<glyph name="uni13D2" format="2">
  <advance width="747"/>
  <unicode hex="13D2"/>
  <note>
uni13D2
</note>
  <anchor x="374" y="0" name="bottom"/>
  <anchor x="374" y="714" name="top"/>
  <outline>
    <contour>
      <point x="70" y="0" type="line"/>
      <point x="325" y="0" type="line"/>
      <point x="325" y="49" type="line"/>
      <point x="238" y="57" type="line"/>
      <point x="238" y="652" type="line"/>
      <point x="373" y="652" type="line" smooth="yes"/>
      <point x="522" y="652"/>
      <point x="571" y="596"/>
      <point x="571" y="503" type="curve" smooth="yes"/>
      <point x="571" y="420"/>
      <point x="538" y="371"/>
      <point x="461" y="356" type="curve"/>
      <point x="430" y="416" type="line"/>
      <point x="349" y="416" type="line"/>
      <point x="524" y="55" type="line"/>
      <point x="447" y="49" type="line"/>
      <point x="447" y="0" type="line"/>
      <point x="705" y="0" type="line"/>
      <point x="705" y="49" type="line"/>
      <point x="618" y="55" type="line"/>
      <point x="485" y="310" type="line"/>
      <point x="601" y="329"/>
      <point x="659" y="399"/>
      <point x="659" y="512" type="curve" smooth="yes"/>
      <point x="659" y="633"/>
      <point x="579" y="714"/>
      <point x="390" y="714" type="curve" smooth="yes"/>
      <point x="70" y="714" type="line"/>
      <point x="70" y="665" type="line"/>
      <point x="153" y="657" type="line"/>
      <point x="153" y="57" type="line"/>
      <point x="70" y="49" type="line"/>
    </contour>
  </outline>
</glyph>
<glyph name="uni13D3" format="2">
  <advance width="630"/>
  <unicode hex="13D3"/>
  <note>
uni13D3
</note>
  <anchor x="363" y="0" name="bottom"/>
  <anchor x="180" y="714" name="top"/>
  <outline>
    <contour>
      <point x="361" y="-11" type="curve" smooth="yes"/>
      <point x="502" y="-11"/>
      <point x="588" y="82"/>
      <point x="588" y="232" type="curve" smooth="yes"/>
      <point x="588" y="346"/>
      <point x="541" y="408"/>
      <point x="455" y="408" type="curve" smooth="yes"/>
      <point x="380" y="408"/>
      <point x="336" y="355"/>
      <point x="336" y="265" type="curve" smooth="yes"/>
      <point x="336" y="243"/>
      <point x="337" y="222"/>
      <point x="338" y="203" type="curve"/>
      <point x="397" y="203" type="line"/>
      <point x="398" y="223"/>
      <point x="399" y="243"/>
      <point x="399" y="263" type="curve" smooth="yes"/>
      <point x="399" y="316"/>
      <point x="418" y="343"/>
      <point x="454" y="343" type="curve" smooth="yes"/>
      <point x="494" y="343"/>
      <point x="514" y="307"/>
      <point x="514" y="236" type="curve" smooth="yes"/>
      <point x="514" y="120"/>
      <point x="459" y="55"/>
      <point x="362" y="55" type="curve" smooth="yes"/>
      <point x="268" y="55"/>
      <point x="222" y="121"/>
      <point x="222" y="257" type="curve" smooth="yes"/>
      <point x="222" y="657" type="line"/>
      <point x="305" y="665" type="line"/>
      <point x="305" y="714" type="line"/>
      <point x="55" y="714" type="line"/>
      <point x="55" y="665" type="line"/>
      <point x="138" y="657" type="line"/>
      <point x="138" y="266" type="line" smooth="yes"/>
      <point x="138" y="76"/>
      <point x="208" y="-11"/>
    </contour>
  </outline>
</glyph>
<glyph name="uni13D4" format="2">
  <advance width="995"/>
  <unicode hex="13D4"/>
  <note>
uni13D4
</note>
  <anchor x="498" y="0" name="bottom"/>
  <anchor x="498" y="714" name="top"/>
  <outline>
    <contour>
      <point x="270" y="0" type="line"/>
      <point x="380" y="0" type="line"/>
      <point x="488" y="274" type="line"/>
      <point x="576" y="0" type="line"/>
      <point x="686" y="0" type="line"/>
      <point x="969" y="714" type="line"/>
      <point x="879" y="714" type="line"/>
      <point x="690" y="206" type="line" smooth="yes"/>
      <point x="672" y="158"/>
      <point x="651" y="97"/>
      <point x="638" y="56" type="curve"/>
      <point x="634" y="56" type="line"/>
      <point x="626" y="85"/>
      <point x="611" y="132"/>
      <point x="592" y="192" type="curve" smooth="yes"/>
      <point x="537" y="362" type="line"/>
      <point x="673" y="714" type="line"/>
      <point x="591" y="714" type="line"/>
      <point x="501" y="457" type="line"/>
      <point x="425" y="714" type="line"/>
      <point x="337" y="714" type="line"/>
      <point x="453" y="365" type="line"/>
      <point x="386" y="196" type="line" smooth="yes"/>
      <point x="367" y="149"/>
      <point x="352" y="103"/>
      <point x="334" y="56" type="curve"/>
      <point x="330" y="56" type="line"/>
      <point x="322" y="86"/>
      <point x="307" y="136"/>
      <point x="285" y="202" type="curve" smooth="yes"/>
      <point x="120" y="714" type="line"/>
      <point x="26" y="714" type="line"/>
    </contour>
  </outline>
</glyph>
<glyph name="uni13D5" format="2">
  <advance width="716"/>
  <unicode hex="13D5"/>
  <note>
uni13D5
</note>
  <anchor x="318" y="0" name="bottom"/>
  <anchor x="318" y="714" name="top"/>
  <outline>
    <contour>
      <point x="287" y="-11" type="curve" smooth="yes"/>
      <point x="440" y="-11"/>
      <point x="538" y="51"/>
      <point x="550" y="155" type="curve"/>
      <point x="676" y="155" type="line"/>
      <point x="676" y="217" type="line"/>
      <point x="550" y="217" type="line"/>
      <point x="538" y="304"/>
      <point x="475" y="339"/>
      <point x="343" y="390" type="curve" smooth="yes"/>
      <point x="238" y="431"/>
      <point x="175" y="460"/>
      <point x="175" y="542" type="curve" smooth="yes"/>
      <point x="175" y="613"/>
      <point x="234" y="660"/>
      <point x="323" y="660" type="curve" smooth="yes"/>
      <point x="422" y="660"/>
      <point x="477" y="614"/>
      <point x="477" y="535" type="curve" smooth="yes"/>
      <point x="477" y="519" type="line"/>
      <point x="676" y="519" type="line"/>
      <point x="676" y="582" type="line"/>
      <point x="545" y="582" type="line"/>
      <point x="528" y="677"/>
      <point x="454" y="725"/>
      <point x="324" y="725" type="curve" smooth="yes"/>
      <point x="191" y="725"/>
      <point x="95" y="645"/>
      <point x="95" y="533" type="curve" smooth="yes"/>
      <point x="95" y="421"/>
      <point x="161" y="378"/>
      <point x="277" y="333" type="curve" smooth="yes"/>
      <point x="402" y="284"/>
      <point x="468" y="258"/>
      <point x="468" y="180" type="curve" smooth="yes"/>
      <point x="468" y="100"/>
      <point x="404" y="56"/>
      <point x="290" y="56" type="curve" smooth="yes"/>
      <point x="235" y="56"/>
      <point x="190" y="65"/>
      <point x="153" y="86" type="curve"/>
      <point x="147" y="174" type="line"/>
      <point x="83" y="174" type="line"/>
      <point x="83" y="42" type="line"/>
      <point x="127" y="12"/>
      <point x="214" y="-11"/>
    </contour>
  </outline>
</glyph>
<glyph name="uni13D6" format="2">
  <advance width="789"/>
  <unicode hex="13D6"/>
  <note>
uni13D6
</note>
  <anchor x="506" y="0" name="bottom"/>
  <anchor x="344" y="714" name="top"/>
  <outline>
    <contour>
      <point x="515" y="-11" type="curve" smooth="yes"/>
      <point x="636" y="-11"/>
      <point x="723" y="80"/>
      <point x="723" y="208" type="curve" smooth="yes"/>
      <point x="723" y="340"/>
      <point x="651" y="419"/>
      <point x="529" y="419" type="curve" smooth="yes"/>
      <point x="464" y="419"/>
      <point x="411" y="391"/>
      <point x="388" y="350" type="curve"/>
      <point x="384" y="350" type="line"/>
      <point x="385" y="379"/>
      <point x="386" y="402"/>
      <point x="386" y="432" type="curve" smooth="yes"/>
      <point x="386" y="652" type="line"/>
      <point x="652" y="652" type="line"/>
      <point x="652" y="714" type="line"/>
      <point x="34" y="714" type="line"/>
      <point x="34" y="539" type="line"/>
      <point x="97" y="539" type="line"/>
      <point x="105" y="652" type="line"/>
      <point x="302" y="652" type="line"/>
      <point x="302" y="230" type="line" smooth="yes"/>
      <point x="302" y="84"/>
      <point x="375" y="-11"/>
    </contour>
    <contour>
      <point x="514" y="55" type="curve" smooth="yes"/>
      <point x="433" y="55"/>
      <point x="387" y="109"/>
      <point x="387" y="210" type="curve" smooth="yes"/>
      <point x="387" y="297"/>
      <point x="435" y="354"/>
      <point x="519" y="354" type="curve" smooth="yes"/>
      <point x="600" y="354"/>
      <point x="644" y="302"/>
      <point x="644" y="208" type="curve" smooth="yes"/>
      <point x="644" y="113"/>
      <point x="593" y="55"/>
    </contour>
  </outline>
</glyph>
<glyph name="uni13D7" format="2">
  <advance width="715"/>
  <unicode hex="13D7"/>
  <note>
uni13D7
</note>
  <anchor x="358" y="0" name="bottom"/>
  <anchor x="520" y="714" name="top"/>
  <outline>
    <contour>
      <point x="140" y="-13" type="curve" smooth="yes"/>
      <point x="280" y="-13"/>
      <point x="407" y="101"/>
      <point x="477" y="273" type="curve"/>
      <point x="481" y="273" type="line"/>
      <point x="479" y="231"/>
      <point x="478" y="178"/>
      <point x="478" y="128" type="curve" smooth="yes"/>
      <point x="478" y="0" type="line"/>
      <point x="645" y="0" type="line"/>
      <point x="645" y="49" type="line"/>
      <point x="563" y="57" type="line"/>
      <point x="563" y="657" type="line"/>
      <point x="645" y="665" type="line"/>
      <point x="645" y="714" type="line"/>
      <point x="390" y="714" type="line"/>
      <point x="390" y="665" type="line"/>
      <point x="478" y="657" type="line"/>
      <point x="478" y="494" type="line"/>
      <point x="467" y="313"/>
      <point x="318" y="49"/>
      <point x="152" y="49" type="curve" smooth="yes"/>
      <point x="138" y="49"/>
      <point x="130" y="50"/>
      <point x="122" y="52" type="curve"/>
      <point x="132" y="62"/>
      <point x="138" y="71"/>
      <point x="138" y="87" type="curve" smooth="yes"/>
      <point x="138" y="115"/>
      <point x="118" y="132"/>
      <point x="85" y="132" type="curve" smooth="yes"/>
      <point x="51" y="132"/>
      <point x="27" y="105"/>
      <point x="27" y="69" type="curve" smooth="yes"/>
      <point x="27" y="19"/>
      <point x="70" y="-13"/>
    </contour>
  </outline>
</glyph>
<glyph name="uni13D8" format="2">
  <advance width="750"/>
  <unicode hex="13D8"/>
  <note>
uni13D8
</note>
  <anchor x="375" y="0" name="bottom"/>
  <anchor x="447" y="714" name="top"/>
  <outline>
    <contour>
      <point x="140" y="-13" type="curve" smooth="yes"/>
      <point x="290" y="-13"/>
      <point x="430" y="101"/>
      <point x="500" y="273" type="curve"/>
      <point x="504" y="273" type="line"/>
      <point x="502" y="231"/>
      <point x="501" y="178"/>
      <point x="501" y="128" type="curve" smooth="yes"/>
      <point x="501" y="0" type="line"/>
      <point x="585" y="0" type="line"/>
      <point x="585" y="652" type="line"/>
      <point x="690" y="652" type="line"/>
      <point x="690" y="714" type="line"/>
      <point x="181" y="714" type="line"/>
      <point x="181" y="526" type="line"/>
      <point x="244" y="526" type="line"/>
      <point x="252" y="652" type="line"/>
      <point x="501" y="652" type="line"/>
      <point x="501" y="494" type="line"/>
      <point x="490" y="301"/>
      <point x="337" y="49"/>
      <point x="152" y="49" type="curve" smooth="yes"/>
      <point x="138" y="49"/>
      <point x="130" y="50"/>
      <point x="122" y="52" type="curve"/>
      <point x="132" y="62"/>
      <point x="138" y="71"/>
      <point x="138" y="87" type="curve" smooth="yes"/>
      <point x="138" y="115"/>
      <point x="118" y="132"/>
      <point x="85" y="132" type="curve" smooth="yes"/>
      <point x="51" y="132"/>
      <point x="27" y="105"/>
      <point x="27" y="69" type="curve" smooth="yes"/>
      <point x="27" y="19"/>
      <point x="70" y="-13"/>
    </contour>
  </outline>
</glyph>
<glyph name="uni13D9" format="2">
  <advance width="748"/>
  <unicode hex="13D9"/>
  <note>
uni13D9
</note>
  <anchor x="374" y="0" name="bottom"/>
  <anchor x="374" y="714" name="top"/>
  <outline>
    <contour>
      <point x="311" y="0" type="line"/>
      <point x="420" y="0" type="line"/>
      <point x="660" y="657" type="line"/>
      <point x="740" y="665" type="line"/>
      <point x="740" y="714" type="line"/>
      <point x="488" y="714" type="line"/>
      <point x="488" y="665" type="line"/>
      <point x="578" y="657" type="line"/>
      <point x="402" y="151" type="line" smooth="yes"/>
      <point x="391" y="119"/>
      <point x="380" y="87"/>
      <point x="372" y="59" type="curve"/>
      <point x="367" y="59" type="line"/>
      <point x="360" y="88"/>
      <point x="351" y="119"/>
      <point x="341" y="152" type="curve" smooth="yes"/>
      <point x="181" y="657" type="line"/>
      <point x="271" y="665" type="line"/>
      <point x="271" y="714" type="line"/>
      <point x="8" y="714" type="line"/>
      <point x="8" y="665" type="line"/>
      <point x="89" y="657" type="line"/>
    </contour>
  </outline>
</glyph>
<glyph name="uni13DA" format="2">
  <advance width="615"/>
  <unicode hex="13DA"/>
  <note>
uni13DA
</note>
  <anchor x="308" y="0" name="bottom"/>
  <anchor x="308" y="714" name="top"/>
  <outline>
    <contour>
      <point x="288" y="-11" type="curve" smooth="yes"/>
      <point x="440" y="-11"/>
      <point x="532" y="65"/>
      <point x="532" y="190" type="curve" smooth="yes"/>
      <point x="532" y="296"/>
      <point x="460" y="344"/>
      <point x="343" y="391" type="curve" smooth="yes"/>
      <point x="244" y="432"/>
      <point x="176" y="465"/>
      <point x="176" y="542" type="curve" smooth="yes"/>
      <point x="176" y="615"/>
      <point x="232" y="658"/>
      <point x="323" y="658" type="curve" smooth="yes"/>
      <point x="379" y="658"/>
      <point x="420" y="650"/>
      <point x="447" y="633" type="curve"/>
      <point x="454" y="544" type="line"/>
      <point x="517" y="544" type="line"/>
      <point x="517" y="675" type="line"/>
      <point x="475" y="704"/>
      <point x="400" y="723"/>
      <point x="324" y="723" type="curve" smooth="yes"/>
      <point x="188" y="723"/>
      <point x="96" y="648"/>
      <point x="96" y="538" type="curve" smooth="yes"/>
      <point x="96" y="443"/>
      <point x="147" y="386"/>
      <point x="275" y="335" type="curve" smooth="yes"/>
      <point x="382" y="291"/>
      <point x="447" y="263"/>
      <point x="447" y="182" type="curve" smooth="yes"/>
      <point x="447" y="99"/>
      <point x="394" y="57"/>
      <point x="290" y="57" type="curve" smooth="yes"/>
      <point x="230" y="57"/>
      <point x="184" y="66"/>
      <point x="153" y="86" type="curve"/>
      <point x="147" y="174" type="line"/>
      <point x="83" y="174" type="line"/>
      <point x="83" y="42" type="line"/>
      <point x="127" y="11"/>
      <point x="209" y="-11"/>
    </contour>
  </outline>
</glyph>
<glyph name="uni13DB" format="2">
  <advance width="1062"/>
  <unicode hex="13DB"/>
  <note>
uni13DB
</note>
  <anchor x="259" y="0" name="bottom"/>
  <anchor x="601" y="714" name="top"/>
  <outline>
    <contour>
      <point x="256" y="-11" type="curve" smooth="yes"/>
      <point x="375" y="-11"/>
      <point x="439" y="83"/>
      <point x="439" y="257" type="curve" smooth="yes"/>
      <point x="439" y="659" type="line"/>
      <point x="559" y="654"/>
      <point x="601" y="593"/>
      <point x="605" y="444" type="curve"/>
      <point x="676" y="444" type="line"/>
      <point x="681" y="563"/>
      <point x="732" y="658"/>
      <point x="836" y="658" type="curve" smooth="yes"/>
      <point x="911" y="658"/>
      <point x="955" y="618"/>
      <point x="955" y="549" type="curve" smooth="yes"/>
      <point x="955" y="494"/>
      <point x="922" y="456"/>
      <point x="875" y="456" type="curve" smooth="yes"/>
      <point x="851" y="456"/>
      <point x="831" y="464"/>
      <point x="816" y="480" type="curve"/>
      <point x="774" y="438" type="line"/>
      <point x="797" y="410"/>
      <point x="831" y="395"/>
      <point x="876" y="395" type="curve" smooth="yes"/>
      <point x="963" y="395"/>
      <point x="1026" y="462"/>
      <point x="1026" y="555" type="curve" smooth="yes"/>
      <point x="1026" y="660"/>
      <point x="949" y="725"/>
      <point x="837" y="725" type="curve" smooth="yes"/>
      <point x="749" y="725"/>
      <point x="683" y="674"/>
      <point x="653" y="583" type="curve"/>
      <point x="645" y="583" type="line"/>
      <point x="618" y="678"/>
      <point x="544" y="725"/>
      <point x="410" y="725" type="curve" smooth="yes"/>
      <point x="179" y="725"/>
      <point x="62" y="557"/>
      <point x="62" y="305" type="curve" smooth="yes"/>
      <point x="62" y="94"/>
      <point x="117" y="-11"/>
    </contour>
    <contour>
      <point x="257" y="57" type="curve" smooth="yes"/>
      <point x="181" y="57"/>
      <point x="148" y="141"/>
      <point x="148" y="307" type="curve" smooth="yes"/>
      <point x="148" y="524"/>
      <point x="235" y="641"/>
      <point x="357" y="655" type="curve"/>
      <point x="357" y="250" type="line" smooth="yes"/>
      <point x="357" y="118"/>
      <point x="326" y="57"/>
    </contour>
  </outline>
</glyph>
<glyph name="uni13DC" format="2">
  <advance width="813"/>
  <unicode hex="13DC"/>
  <note>
uni13DC
</note>
  <anchor x="407" y="0" name="bottom"/>
  <anchor x="407" y="714" name="top"/>
  <outline>
    <contour>
      <point x="196" y="-11" type="curve" smooth="yes"/>
      <point x="285" y="-11"/>
      <point x="353" y="50"/>
      <point x="353" y="143" type="curve" smooth="yes"/>
      <point x="353" y="213"/>
      <point x="318" y="266"/>
      <point x="244" y="302" type="curve"/>
      <point x="283" y="323"/>
      <point x="363" y="361"/>
      <point x="403" y="380" type="curve"/>
      <point x="450" y="359"/>
      <point x="534" y="322"/>
      <point x="573" y="301" type="curve"/>
      <point x="502" y="270"/>
      <point x="461" y="216"/>
      <point x="461" y="142" type="curve" smooth="yes"/>
      <point x="461" y="49"/>
      <point x="518" y="-11"/>
      <point x="614" y="-11" type="curve" smooth="yes"/>
      <point x="705" y="-11"/>
      <point x="771" y="49"/>
      <point x="771" y="143" type="curve" smooth="yes"/>
      <point x="771" y="222"/>
      <point x="732" y="283"/>
      <point x="647" y="333" type="curve" smooth="yes"/>
      <point x="593" y="365"/>
      <point x="512" y="399"/>
      <point x="467" y="421" type="curve"/>
      <point x="529" y="455"/>
      <point x="566" y="504"/>
      <point x="566" y="575" type="curve" smooth="yes"/>
      <point x="566" y="670"/>
      <point x="496" y="725"/>
      <point x="407" y="725" type="curve" smooth="yes"/>
      <point x="319" y="725"/>
      <point x="247" y="667"/>
      <point x="247" y="572" type="curve" smooth="yes"/>
      <point x="247" y="500"/>
      <point x="281" y="456"/>
      <point x="344" y="421" type="curve"/>
      <point x="277" y="389"/>
      <point x="222" y="364"/>
      <point x="162" y="326" type="curve" smooth="yes"/>
      <point x="86" y="278"/>
      <point x="42" y="220"/>
      <point x="42" y="142" type="curve" smooth="yes"/>
      <point x="42" y="46"/>
      <point x="101" y="-11"/>
    </contour>
    <contour>
      <point x="196" y="49" type="curve" smooth="yes"/>
      <point x="144" y="49"/>
      <point x="111" y="86"/>
      <point x="111" y="144" type="curve" smooth="yes"/>
      <point x="111" y="198"/>
      <point x="138" y="239"/>
      <point x="191" y="266" type="curve"/>
      <point x="252" y="244"/>
      <point x="284" y="206"/>
      <point x="284" y="144" type="curve" smooth="yes"/>
      <point x="284" y="89"/>
      <point x="250" y="49"/>
    </contour>
    <contour>
      <point x="614" y="49" type="curve" smooth="yes"/>
      <point x="562" y="49"/>
      <point x="529" y="86"/>
      <point x="529" y="141" type="curve" smooth="yes"/>
      <point x="529" y="207"/>
      <point x="563" y="247"/>
      <point x="623" y="266" type="curve"/>
      <point x="678" y="238"/>
      <point x="703" y="201"/>
      <point x="703" y="145" type="curve" smooth="yes"/>
      <point x="703" y="87"/>
      <point x="667" y="49"/>
    </contour>
    <contour>
      <point x="406" y="455" type="curve"/>
      <point x="344" y="485"/>
      <point x="313" y="516"/>
      <point x="313" y="573" type="curve" smooth="yes"/>
      <point x="313" y="628"/>
      <point x="353" y="666"/>
      <point x="407" y="666" type="curve" smooth="yes"/>
      <point x="461" y="666"/>
      <point x="500" y="629"/>
      <point x="500" y="573" type="curve" smooth="yes"/>
      <point x="500" y="517"/>
      <point x="469" y="485"/>
    </contour>
  </outline>
</glyph>
<glyph name="uni13DD" format="2">
  <advance width="689"/>
  <unicode hex="13DD"/>
  <note>
uni13DD
</note>
  <anchor x="355" y="0" name="bottom"/>
  <anchor x="394" y="714" name="top"/>
  <outline>
    <contour>
      <point x="55" y="0" type="line"/>
      <point x="614" y="0" type="line"/>
      <point x="614" y="194" type="line"/>
      <point x="551" y="194" type="line"/>
      <point x="542" y="62" type="line"/>
      <point x="222" y="62" type="line"/>
      <point x="222" y="451" type="line" smooth="yes"/>
      <point x="222" y="586"/>
      <point x="284" y="657"/>
      <point x="403" y="657" type="curve" smooth="yes"/>
      <point x="464" y="657"/>
      <point x="513" y="638"/>
      <point x="537" y="602" type="curve"/>
      <point x="513" y="594"/>
      <point x="502" y="578"/>
      <point x="502" y="554" type="curve" smooth="yes"/>
      <point x="502" y="523"/>
      <point x="523" y="504"/>
      <point x="555" y="504" type="curve" smooth="yes"/>
      <point x="593" y="504"/>
      <point x="614" y="530"/>
      <point x="614" y="573" type="curve" smooth="yes"/>
      <point x="614" y="623"/>
      <point x="565" y="725"/>
      <point x="398" y="725" type="curve" smooth="yes"/>
      <point x="227" y="725"/>
      <point x="138" y="623"/>
      <point x="138" y="428" type="curve" smooth="yes"/>
      <point x="138" y="57" type="line"/>
      <point x="55" y="49" type="line"/>
    </contour>
  </outline>
</glyph>
<glyph name="uni13DE" format="2">
  <advance width="651"/>
  <unicode hex="13DE"/>
  <note>
uni13DE
</note>
  <anchor x="365" y="0" name="bottom"/>
  <anchor x="195" y="714" name="top"/>
  <outline>
    <contour>
      <point x="70" y="0" type="line"/>
      <point x="617" y="0" type="line"/>
      <point x="617" y="194" type="line"/>
      <point x="554" y="194" type="line"/>
      <point x="545" y="62" type="line"/>
      <point x="238" y="62" type="line"/>
      <point x="238" y="657" type="line"/>
      <point x="332" y="665" type="line"/>
      <point x="332" y="714" type="line"/>
      <point x="70" y="714" type="line"/>
      <point x="70" y="665" type="line"/>
      <point x="153" y="657" type="line"/>
      <point x="153" y="57" type="line"/>
      <point x="70" y="49" type="line"/>
    </contour>
  </outline>
</glyph>
<glyph name="uni13DF" format="2">
  <advance width="700"/>
  <unicode hex="13DF"/>
  <note>
uni13DF
</note>
  <anchor x="380" y="0" name="bottom"/>
  <anchor x="400" y="714" name="top"/>
  <outline>
    <contour>
      <point x="374" y="-11" type="curve" smooth="yes"/>
      <point x="525" y="-11"/>
      <point x="624" y="66"/>
      <point x="633" y="188" type="curve"/>
      <point x="560" y="188" type="line"/>
      <point x="544" y="104"/>
      <point x="478" y="57"/>
      <point x="379" y="57" type="curve" smooth="yes"/>
      <point x="226" y="57"/>
      <point x="150" y="156"/>
      <point x="150" y="353" type="curve" smooth="yes"/>
      <point x="150" y="553"/>
      <point x="234" y="657"/>
      <point x="397" y="657" type="curve" smooth="yes"/>
      <point x="458" y="657"/>
      <point x="513" y="641"/>
      <point x="548" y="611" type="curve"/>
      <point x="554" y="511" type="line"/>
      <point x="625" y="511" type="line"/>
      <point x="625" y="643" type="line"/>
      <point x="583" y="689"/>
      <point x="486" y="725"/>
      <point x="397" y="725" type="curve" smooth="yes"/>
      <point x="188" y="725"/>
      <point x="62" y="584"/>
      <point x="62" y="350" type="curve" smooth="yes"/>
      <point x="62" y="113"/>
      <point x="170" y="-11"/>
    </contour>
  </outline>
</glyph>
<glyph name="uni13E0" format="2">
  <advance width="873"/>
  <unicode hex="13E0"/>
  <note>
uni13E0
</note>
  <anchor x="505" y="0" name="bottom"/>
  <anchor x="437" y="714" name="top"/>
  <outline>
    <contour>
      <point x="507" y="-11" type="curve" smooth="yes"/>
      <point x="667" y="-11"/>
      <point x="735" y="72"/>
      <point x="735" y="266" type="curve" smooth="yes"/>
      <point x="735" y="657" type="line"/>
      <point x="818" y="665" type="line"/>
      <point x="818" y="714" type="line"/>
      <point x="569" y="714" type="line"/>
      <point x="569" y="665" type="line"/>
      <point x="651" y="657" type="line"/>
      <point x="651" y="387" type="line"/>
      <point x="376" y="387" type="line"/>
      <point x="376" y="487" type="line" smooth="yes"/>
      <point x="376" y="608"/>
      <point x="317" y="673"/>
      <point x="208" y="673" type="curve" smooth="yes"/>
      <point x="106" y="673"/>
      <point x="31" y="599"/>
      <point x="31" y="499" type="curve" smooth="yes"/>
      <point x="31" y="381"/>
      <point x="109" y="320"/>
      <point x="261" y="320" type="curve" smooth="yes"/>
      <point x="297" y="320" type="line"/>
      <point x="297" y="234" type="line" smooth="yes"/>
      <point x="297" y="66"/>
      <point x="363" y="-11"/>
    </contour>
    <contour>
      <point x="249" y="387" type="line" smooth="yes"/>
      <point x="154" y="387"/>
      <point x="105" y="427"/>
      <point x="105" y="503" type="curve" smooth="yes"/>
      <point x="105" y="566"/>
      <point x="146" y="610"/>
      <point x="206" y="610" type="curve" smooth="yes"/>
      <point x="267" y="610"/>
      <point x="297" y="570"/>
      <point x="297" y="492" type="curve" smooth="yes"/>
      <point x="297" y="387" type="line"/>
    </contour>
    <contour>
      <point x="508" y="55" type="curve" smooth="yes"/>
      <point x="415" y="55"/>
      <point x="376" y="111"/>
      <point x="376" y="244" type="curve" smooth="yes"/>
      <point x="376" y="320" type="line"/>
      <point x="651" y="320" type="line"/>
      <point x="651" y="263" type="line" smooth="yes"/>
      <point x="651" y="130"/>
      <point x="622" y="55"/>
    </contour>
  </outline>
</glyph>
<glyph name="uni13E1" format="2">
  <advance width="899"/>
  <unicode hex="13E1"/>
  <note>
uni13E1
</note>
  <anchor x="474" y="0" name="bottom"/>
  <anchor x="477" y="714" name="top"/>
  <outline>
    <contour>
      <point x="474" y="-11" type="curve" smooth="yes"/>
      <point x="597" y="-11"/>
      <point x="675" y="81"/>
      <point x="675" y="228" type="curve" smooth="yes"/>
      <point x="675" y="350"/>
      <point x="622" y="484"/>
      <point x="529" y="592" type="curve"/>
      <point x="570" y="636"/>
      <point x="612" y="658"/>
      <point x="657" y="658" type="curve" smooth="yes"/>
      <point x="737" y="658"/>
      <point x="776" y="609"/>
      <point x="776" y="511" type="curve" smooth="yes"/>
      <point x="776" y="492"/>
      <point x="775" y="472"/>
      <point x="774" y="462" type="curve"/>
      <point x="845" y="462" type="line"/>
      <point x="848" y="479"/>
      <point x="849" y="499"/>
      <point x="849" y="521" type="curve" smooth="yes"/>
      <point x="849" y="651"/>
      <point x="787" y="725"/>
      <point x="658" y="725" type="curve" smooth="yes"/>
      <point x="594" y="725"/>
      <point x="531" y="695"/>
      <point x="479" y="642" type="curve"/>
      <point x="420" y="697"/>
      <point x="358" y="725"/>
      <point x="291" y="725" type="curve" smooth="yes"/>
      <point x="168" y="725"/>
      <point x="91" y="644"/>
      <point x="82" y="502" type="curve"/>
      <point x="7" y="494" type="line"/>
      <point x="7" y="445" type="line"/>
      <point x="244" y="445" type="line"/>
      <point x="244" y="494" type="line"/>
      <point x="153" y="502" type="line"/>
      <point x="161" y="610"/>
      <point x="203" y="658"/>
      <point x="292" y="658" type="curve" smooth="yes"/>
      <point x="340" y="658"/>
      <point x="386" y="635"/>
      <point x="430" y="588" type="curve"/>
      <point x="344" y="485"/>
      <point x="284" y="330"/>
      <point x="284" y="210" type="curve" smooth="yes"/>
      <point x="284" y="74"/>
      <point x="357" y="-11"/>
    </contour>
    <contour>
      <point x="475" y="54" type="curve" smooth="yes"/>
      <point x="403" y="54"/>
      <point x="365" y="111"/>
      <point x="365" y="215" type="curve" smooth="yes"/>
      <point x="365" y="314"/>
      <point x="411" y="447"/>
      <point x="477" y="544" type="curve"/>
      <point x="549" y="450"/>
      <point x="592" y="327"/>
      <point x="592" y="215" type="curve" smooth="yes"/>
      <point x="592" y="118"/>
      <point x="546" y="54"/>
    </contour>
  </outline>
</glyph>
<glyph name="uni13E2" format="2">
  <advance width="672"/>
  <unicode hex="13E2"/>
  <note>
uni13E2
</note>
  <anchor x="199" y="0" name="bottom"/>
  <anchor x="358" y="714" name="top"/>
  <outline>
    <contour>
      <point x="70" y="0" type="line"/>
      <point x="328" y="0" type="line"/>
      <point x="328" y="49" type="line"/>
      <point x="238" y="57" type="line"/>
      <point x="238" y="291" type="line"/>
      <point x="347" y="291" type="line" smooth="yes"/>
      <point x="534" y="291"/>
      <point x="627" y="363"/>
      <point x="627" y="510" type="curve" smooth="yes"/>
      <point x="627" y="649"/>
      <point x="535" y="714"/>
      <point x="336" y="714" type="curve" smooth="yes"/>
      <point x="70" y="714" type="line"/>
      <point x="70" y="665" type="line"/>
      <point x="153" y="657" type="line"/>
      <point x="153" y="57" type="line"/>
      <point x="70" y="49" type="line"/>
    </contour>
    <contour>
      <point x="238" y="353" type="line"/>
      <point x="238" y="652" type="line"/>
      <point x="337" y="652" type="line" smooth="yes"/>
      <point x="478" y="652"/>
      <point x="542" y="606"/>
      <point x="542" y="507" type="curve" smooth="yes"/>
      <point x="542" y="402"/>
      <point x="480" y="353"/>
      <point x="347" y="353" type="curve" smooth="yes"/>
    </contour>
  </outline>
</glyph>
<glyph name="uni13E3" format="2">
  <advance width="737"/>
  <unicode hex="13E3"/>
  <note>
uni13E3
</note>
  <anchor x="377" y="0" name="bottom"/>
  <anchor x="389" y="714" name="top"/>
  <outline>
    <contour>
      <point x="377" y="-11" type="curve" smooth="yes"/>
      <point x="522" y="-11"/>
      <point x="647" y="62"/>
      <point x="647" y="194" type="curve" smooth="yes"/>
      <point x="647" y="247"/>
      <point x="621" y="278"/>
      <point x="578" y="278" type="curve" smooth="yes"/>
      <point x="542" y="278"/>
      <point x="518" y="256"/>
      <point x="518" y="224" type="curve" smooth="yes"/>
      <point x="518" y="194"/>
      <point x="539" y="176"/>
      <point x="578" y="174" type="curve"/>
      <point x="554" y="101"/>
      <point x="486" y="62"/>
      <point x="381" y="62" type="curve" smooth="yes"/>
      <point x="233" y="62"/>
      <point x="150" y="168"/>
      <point x="150" y="356" type="curve" smooth="yes"/>
      <point x="150" y="552"/>
      <point x="230" y="652"/>
      <point x="389" y="652" type="curve" smooth="yes"/>
      <point x="484" y="652"/>
      <point x="550" y="609"/>
      <point x="547" y="547" type="curve"/>
      <point x="464" y="538" type="line"/>
      <point x="464" y="490" type="line"/>
      <point x="695" y="490" type="line"/>
      <point x="695" y="539" type="line"/>
      <point x="631" y="547" type="line"/>
      <point x="618" y="661"/>
      <point x="509" y="725"/>
      <point x="392" y="725" type="curve" smooth="yes"/>
      <point x="179" y="725"/>
      <point x="62" y="573"/>
      <point x="62" y="353" type="curve" smooth="yes"/>
      <point x="62" y="119"/>
      <point x="175" y="-11"/>
    </contour>
  </outline>
</glyph>
<glyph name="uni13E4" format="2">
  <advance width="807"/>
  <unicode hex="13E4"/>
  <note>
uni13E4
</note>
  <anchor x="357" y="0" name="bottom"/>
  <anchor x="404" y="714" name="top"/>
  <outline>
    <contour>
      <point x="297" y="0" type="line"/>
      <point x="401" y="0" type="line"/>
      <point x="783" y="714" type="line"/>
      <point x="692" y="714" type="line"/>
      <point x="451" y="236" type="line" smooth="yes"/>
      <point x="416" y="166"/>
      <point x="393" y="115"/>
      <point x="375" y="67" type="curve"/>
      <point x="371" y="67" type="line"/>
      <point x="375" y="138"/>
      <point x="379" y="240"/>
      <point x="379" y="340" type="curve" smooth="yes"/>
      <point x="379" y="652" type="line"/>
      <point x="498" y="652" type="line"/>
      <point x="498" y="714" type="line"/>
      <point x="34" y="714" type="line"/>
      <point x="34" y="539" type="line"/>
      <point x="97" y="539" type="line"/>
      <point x="105" y="652" type="line"/>
      <point x="297" y="652" type="line"/>
    </contour>
  </outline>
</glyph>
<glyph name="uni13E5" format="2">
  <advance width="907"/>
  <unicode hex="13E5"/>
  <note>
uni13E5
</note>
  <anchor x="382" y="0" name="bottom"/>
  <anchor x="195" y="714" name="top"/>
  <outline>
    <contour>
      <point x="70" y="0" type="line"/>
      <point x="320" y="0" type="line"/>
      <point x="320" y="49" type="line"/>
      <point x="238" y="57" type="line"/>
      <point x="238" y="197" type="line" smooth="yes"/>
      <point x="238" y="331"/>
      <point x="373" y="393"/>
      <point x="525" y="397" type="curve"/>
      <point x="525" y="57" type="line"/>
      <point x="442" y="49" type="line"/>
      <point x="442" y="0" type="line"/>
      <point x="693" y="0" type="line"/>
      <point x="693" y="49" type="line"/>
      <point x="609" y="57" type="line"/>
      <point x="609" y="397" type="line"/>
      <point x="714" y="397"/>
      <point x="800" y="366"/>
      <point x="805" y="336" type="curve"/>
      <point x="783" y="327"/>
      <point x="772" y="311"/>
      <point x="772" y="287" type="curve" smooth="yes"/>
      <point x="772" y="258"/>
      <point x="794" y="239"/>
      <point x="827" y="239" type="curve" smooth="yes"/>
      <point x="865" y="239"/>
      <point x="887" y="266"/>
      <point x="887" y="312" type="curve" smooth="yes"/>
      <point x="887" y="401"/>
      <point x="770" y="467"/>
      <point x="587" y="467" type="curve" smooth="yes"/>
      <point x="409" y="467"/>
      <point x="291" y="412"/>
      <point x="238" y="332" type="curve"/>
      <point x="234" y="332" type="line"/>
      <point x="235" y="356"/>
      <point x="238" y="398"/>
      <point x="238" y="436" type="curve" smooth="yes"/>
      <point x="238" y="657" type="line"/>
      <point x="320" y="665" type="line"/>
      <point x="320" y="714" type="line"/>
      <point x="70" y="714" type="line"/>
      <point x="70" y="665" type="line"/>
      <point x="153" y="657" type="line"/>
      <point x="153" y="57" type="line"/>
      <point x="70" y="49" type="line"/>
    </contour>
  </outline>
</glyph>
<glyph name="uni13E6" format="2">
  <advance width="777"/>
  <unicode hex="13E6"/>
  <note>
uni13E6
</note>
  <anchor x="389" y="0" name="bottom"/>
  <anchor x="389" y="714" name="top"/>
  <outline>
    <contour>
      <point x="70" y="0" type="line"/>
      <point x="320" y="0" type="line"/>
      <point x="320" y="49" type="line"/>
      <point x="238" y="57" type="line"/>
      <point x="238" y="218" type="line"/>
      <point x="296" y="278" type="line"/>
      <point x="367" y="354" type="line"/>
      <point x="567" y="58" type="line"/>
      <point x="483" y="49" type="line"/>
      <point x="483" y="0" type="line"/>
      <point x="739" y="0" type="line"/>
      <point x="739" y="49" type="line"/>
      <point x="669" y="58" type="line"/>
      <point x="425" y="417" type="line"/>
      <point x="650" y="659" type="line"/>
      <point x="717" y="665" type="line"/>
      <point x="717" y="714" type="line"/>
      <point x="475" y="714" type="line"/>
      <point x="475" y="665" type="line"/>
      <point x="559" y="659" type="line"/>
      <point x="333" y="408" type="line"/>
      <point x="238" y="299" type="line"/>
      <point x="238" y="657" type="line"/>
      <point x="320" y="665" type="line"/>
      <point x="320" y="714" type="line"/>
      <point x="70" y="714" type="line"/>
      <point x="70" y="665" type="line"/>
      <point x="153" y="657" type="line"/>
      <point x="153" y="57" type="line"/>
      <point x="70" y="49" type="line"/>
    </contour>
  </outline>
</glyph>
<glyph name="uni13E7" format="2">
  <advance width="589"/>
  <unicode hex="13E7"/>
  <note>
uni13E7
</note>
  <anchor x="266" y="0" name="bottom"/>
  <anchor x="408" y="714" name="top"/>
  <outline>
    <contour>
      <point x="232" y="-11" type="curve" smooth="yes"/>
      <point x="379" y="-11"/>
      <point x="452" y="88"/>
      <point x="452" y="269" type="curve" smooth="yes"/>
      <point x="452" y="657" type="line"/>
      <point x="534" y="665" type="line"/>
      <point x="534" y="714" type="line"/>
      <point x="285" y="714" type="line"/>
      <point x="285" y="665" type="line"/>
      <point x="368" y="657" type="line"/>
      <point x="368" y="464" type="line" smooth="yes"/>
      <point x="368" y="410"/>
      <point x="368" y="386"/>
      <point x="370" y="354" type="curve"/>
      <point x="366" y="354" type="line"/>
      <point x="340" y="396"/>
      <point x="292" y="418"/>
      <point x="232" y="418" type="curve" smooth="yes"/>
      <point x="110" y="418"/>
      <point x="31" y="333"/>
      <point x="31" y="200" type="curve" smooth="yes"/>
      <point x="31" y="72"/>
      <point x="111" y="-11"/>
    </contour>
    <contour>
      <point x="236" y="54" type="curve" smooth="yes"/>
      <point x="158" y="54"/>
      <point x="108" y="111"/>
      <point x="108" y="203" type="curve" smooth="yes"/>
      <point x="108" y="292"/>
      <point x="151" y="354"/>
      <point x="241" y="354" type="curve" smooth="yes"/>
      <point x="318" y="354"/>
      <point x="366" y="299"/>
      <point x="366" y="222" type="curve" smooth="yes"/>
      <point x="366" y="117"/>
      <point x="317" y="54"/>
    </contour>
  </outline>
</glyph>
<glyph name="uni13E8" format="2">
  <advance width="828"/>
  <unicode hex="13E8"/>
  <note>
uni13E8
</note>
  <anchor x="414" y="0" name="bottom"/>
  <anchor x="414" y="714" name="top"/>
  <outline>
    <contour>
      <point x="362" y="-11" type="curve" smooth="yes"/>
      <point x="450" y="-11"/>
      <point x="524" y="28"/>
      <point x="569" y="99" type="curve"/>
      <point x="637" y="19" type="line"/>
      <point x="639" y="19" type="line"/>
      <point x="707" y="103" type="line"/>
      <point x="766" y="33" type="line"/>
      <point x="768" y="33" type="line"/>
      <point x="806" y="81" type="line"/>
      <point x="711" y="196" type="line"/>
      <point x="709" y="196" type="line"/>
      <point x="638" y="108" type="line"/>
      <point x="573" y="193" type="line"/>
      <point x="571" y="193" type="line"/>
      <point x="514" y="98"/>
      <point x="449" y="57"/>
      <point x="365" y="57" type="curve" smooth="yes"/>
      <point x="225" y="57"/>
      <point x="150" y="160"/>
      <point x="150" y="351" type="curve" smooth="yes"/>
      <point x="150" y="544"/>
      <point x="233" y="657"/>
      <point x="376" y="657" type="curve" smooth="yes"/>
      <point x="459" y="657"/>
      <point x="516" y="621"/>
      <point x="569" y="523" type="curve"/>
      <point x="571" y="523" type="line"/>
      <point x="642" y="607" type="line"/>
      <point x="709" y="521" type="line"/>
      <point x="712" y="521" type="line"/>
      <point x="808" y="643" type="line"/>
      <point x="770" y="688" type="line"/>
      <point x="767" y="688" type="line"/>
      <point x="710" y="615" type="line"/>
      <point x="646" y="695" type="line"/>
      <point x="644" y="695" type="line"/>
      <point x="577" y="617" type="line"/>
      <point x="535" y="691"/>
      <point x="470" y="725"/>
      <point x="376" y="725" type="curve" smooth="yes"/>
      <point x="172" y="725"/>
      <point x="62" y="569"/>
      <point x="62" y="354" type="curve" smooth="yes"/>
      <point x="62" y="117"/>
      <point x="168" y="-11"/>
    </contour>
  </outline>
</glyph>
<glyph name="uni13E9" format="2">
  <advance width="888"/>
  <unicode hex="13E9"/>
  <note>
uni13E9
</note>
  <anchor x="444" y="0" name="bottom"/>
  <anchor x="407" y="714" name="top"/>
  <outline>
    <contour>
      <point x="360" y="-11" type="curve" smooth="yes"/>
      <point x="463" y="-11"/>
      <point x="537" y="23"/>
      <point x="581" y="90" type="curve"/>
      <point x="606" y="26"/>
      <point x="650" y="-1"/>
      <point x="727" y="-1" type="curve" smooth="yes"/>
      <point x="813" y="-1"/>
      <point x="870" y="55"/>
      <point x="870" y="139" type="curve" smooth="yes"/>
      <point x="870" y="160"/>
      <point x="869" y="179"/>
      <point x="868" y="193" type="curve"/>
      <point x="806" y="193" type="line"/>
      <point x="806" y="183"/>
      <point x="806" y="172"/>
      <point x="806" y="162" type="curve" smooth="yes"/>
      <point x="803" y="90"/>
      <point x="777" y="59"/>
      <point x="722" y="59" type="curve" smooth="yes"/>
      <point x="665" y="59"/>
      <point x="638" y="109"/>
      <point x="638" y="209" type="curve" smooth="yes"/>
      <point x="638" y="256" type="line"/>
      <point x="720" y="264" type="line"/>
      <point x="720" y="312" type="line"/>
      <point x="473" y="312" type="line"/>
      <point x="473" y="264" type="line"/>
      <point x="560" y="256" type="line"/>
      <point x="560" y="194" type="line"/>
      <point x="544" y="110"/>
      <point x="470" y="57"/>
      <point x="367" y="57" type="curve" smooth="yes"/>
      <point x="231" y="57"/>
      <point x="150" y="167"/>
      <point x="150" y="352" type="curve" smooth="yes"/>
      <point x="150" y="548"/>
      <point x="241" y="657"/>
      <point x="406" y="657" type="curve" smooth="yes"/>
      <point x="482" y="657"/>
      <point x="550" y="633"/>
      <point x="568" y="598" type="curve"/>
      <point x="546" y="588"/>
      <point x="536" y="573"/>
      <point x="536" y="551" type="curve" smooth="yes"/>
      <point x="536" y="521"/>
      <point x="558" y="501"/>
      <point x="592" y="501" type="curve" smooth="yes"/>
      <point x="629" y="501"/>
      <point x="650" y="528"/>
      <point x="650" y="568" type="curve" smooth="yes"/>
      <point x="650" y="645"/>
      <point x="569" y="725"/>
      <point x="406" y="725" type="curve" smooth="yes"/>
      <point x="192" y="725"/>
      <point x="62" y="575"/>
      <point x="62" y="349" type="curve" smooth="yes"/>
      <point x="62" y="121"/>
      <point x="172" y="-11"/>
    </contour>
  </outline>
</glyph>
<glyph name="uni13EA" format="2">
  <advance width="1078"/>
  <unicode hex="13EA"/>
  <note>
uni13EA
</note>
  <anchor x="539" y="0" name="bottom"/>
  <anchor x="637" y="714" name="top"/>
  <outline>
    <contour>
      <point x="237" y="-11" type="curve" smooth="yes"/>
      <point x="306" y="-11"/>
      <point x="366" y="17"/>
      <point x="413" y="69" type="curve"/>
      <point x="469" y="16"/>
      <point x="539" y="-11"/>
      <point x="630" y="-11" type="curve" smooth="yes"/>
      <point x="934" y="-11"/>
      <point x="1020" y="313"/>
      <point x="1020" y="499" type="curve" smooth="yes"/>
      <point x="1020" y="647"/>
      <point x="967" y="717"/>
      <point x="859" y="717" type="curve" smooth="yes"/>
      <point x="763" y="717"/>
      <point x="701" y="639"/>
      <point x="701" y="515" type="curve" smooth="yes"/>
      <point x="701" y="373"/>
      <point x="752" y="252"/>
      <point x="849" y="172" type="curve"/>
      <point x="798" y="95"/>
      <point x="724" y="57"/>
      <point x="627" y="57" type="curve" smooth="yes"/>
      <point x="559" y="57"/>
      <point x="504" y="79"/>
      <point x="461" y="124" type="curve"/>
      <point x="536" y="225"/>
      <point x="587" y="372"/>
      <point x="587" y="500" type="curve" smooth="yes"/>
      <point x="587" y="647"/>
      <point x="522" y="725"/>
      <point x="412" y="725" type="curve" smooth="yes"/>
      <point x="300" y="725"/>
      <point x="232" y="642"/>
      <point x="232" y="492" type="curve" smooth="yes"/>
      <point x="232" y="351"/>
      <point x="281" y="219"/>
      <point x="367" y="120" type="curve"/>
      <point x="335" y="80"/>
      <point x="293" y="57"/>
      <point x="241" y="57" type="curve" smooth="yes"/>
      <point x="165" y="57"/>
      <point x="123" y="105"/>
      <point x="123" y="203" type="curve" smooth="yes"/>
      <point x="123" y="222"/>
      <point x="124" y="242"/>
      <point x="125" y="252" type="curve"/>
      <point x="54" y="252" type="line"/>
      <point x="51" y="235"/>
      <point x="50" y="215"/>
      <point x="50" y="193" type="curve" smooth="yes"/>
      <point x="50" y="63"/>
      <point x="112" y="-11"/>
    </contour>
    <contour>
      <point x="414" y="170" type="curve"/>
      <point x="347" y="257"/>
      <point x="314" y="361"/>
      <point x="314" y="493" type="curve" smooth="yes"/>
      <point x="314" y="602"/>
      <point x="351" y="660"/>
      <point x="412" y="660" type="curve" smooth="yes"/>
      <point x="472" y="660"/>
      <point x="505" y="608"/>
      <point x="505" y="499" type="curve" smooth="yes"/>
      <point x="505" y="381"/>
      <point x="472" y="268"/>
    </contour>
    <contour>
      <point x="886" y="231" type="curve"/>
      <point x="818" y="291"/>
      <point x="776" y="403"/>
      <point x="776" y="515" type="curve" smooth="yes"/>
      <point x="776" y="604"/>
      <point x="809" y="657"/>
      <point x="861" y="657" type="curve" smooth="yes"/>
      <point x="919" y="657"/>
      <point x="944" y="610"/>
      <point x="944" y="501" type="curve" smooth="yes"/>
      <point x="944" y="416"/>
      <point x="920" y="300"/>
    </contour>
  </outline>
</glyph>
<glyph name="uni13EB" format="2">
  <advance width="775"/>
  <unicode hex="13EB"/>
  <note>
uni13EB
</note>
  <anchor x="388" y="0" name="bottom"/>
  <anchor x="388" y="714" name="top"/>
  <outline>
    <contour>
      <point x="387" y="-10" type="curve" smooth="yes"/>
      <point x="591" y="-10"/>
      <point x="713" y="128"/>
      <point x="713" y="359" type="curve" smooth="yes"/>
      <point x="713" y="592"/>
      <point x="595" y="725"/>
      <point x="389" y="725" type="curve" smooth="yes"/>
      <point x="184" y="725"/>
      <point x="62" y="587"/>
      <point x="62" y="356" type="curve" smooth="yes"/>
      <point x="62" y="123"/>
      <point x="180" y="-10"/>
    </contour>
    <contour>
      <point x="387" y="57" type="curve" smooth="yes"/>
      <point x="232" y="57"/>
      <point x="149" y="162"/>
      <point x="149" y="356" type="curve" smooth="yes"/>
      <point x="149" y="375"/>
      <point x="150" y="396"/>
      <point x="152" y="418" type="curve"/>
      <point x="342" y="418" type="line"/>
      <point x="359" y="247" type="line"/>
      <point x="616" y="247" type="line"/>
      <point x="585" y="124"/>
      <point x="506" y="57"/>
    </contour>
    <contour>
      <point x="431" y="309" type="line"/>
      <point x="413" y="480" type="line"/>
      <point x="162" y="480" type="line"/>
      <point x="195" y="596"/>
      <point x="274" y="658"/>
      <point x="389" y="658" type="curve" smooth="yes"/>
      <point x="543" y="658"/>
      <point x="626" y="553"/>
      <point x="626" y="359" type="curve" smooth="yes"/>
      <point x="626" y="334"/>
      <point x="626" y="320"/>
      <point x="624" y="309" type="curve"/>
    </contour>
  </outline>
</glyph>
<glyph name="uni13EC" format="2">
  <advance width="1062"/>
  <unicode hex="13EC"/>
  <note>
uni13EC
</note>
  <anchor x="531" y="0" name="bottom"/>
  <anchor x="531" y="714" name="top"/>
  <outline>
    <contour>
      <point x="526" y="-8" type="curve" smooth="yes"/>
      <point x="865" y="-8"/>
      <point x="1000" y="225"/>
      <point x="1000" y="448" type="curve" smooth="yes"/>
      <point x="1000" y="600"/>
      <point x="935" y="714"/>
      <point x="790" y="714" type="curve" smooth="yes"/>
      <point x="685" y="714"/>
      <point x="611" y="641"/>
      <point x="611" y="538" type="curve" smooth="yes"/>
      <point x="611" y="442"/>
      <point x="667" y="381"/>
      <point x="760" y="377" type="curve"/>
      <point x="760" y="445" type="line"/>
      <point x="711" y="451"/>
      <point x="683" y="486"/>
      <point x="683" y="543" type="curve" smooth="yes"/>
      <point x="683" y="605"/>
      <point x="727" y="648"/>
      <point x="791" y="648" type="curve" smooth="yes"/>
      <point x="878" y="648"/>
      <point x="920" y="581"/>
      <point x="920" y="443" type="curve" smooth="yes"/>
      <point x="920" y="206"/>
      <point x="765" y="62"/>
      <point x="527" y="62" type="curve" smooth="yes"/>
      <point x="439" y="62"/>
      <point x="361" y="87"/>
      <point x="292" y="136" type="curve"/>
      <point x="405" y="218"/>
      <point x="473" y="338"/>
      <point x="473" y="492" type="curve" smooth="yes"/>
      <point x="473" y="635"/>
      <point x="399" y="725"/>
      <point x="283" y="725" type="curve" smooth="yes"/>
      <point x="154" y="725"/>
      <point x="66" y="630"/>
      <point x="66" y="443" type="curve" smooth="yes"/>
      <point x="66" y="175"/>
      <point x="252" y="-8"/>
    </contour>
    <contour>
      <point x="244" y="179" type="curve"/>
      <point x="183" y="250"/>
      <point x="153" y="340"/>
      <point x="153" y="449" type="curve" smooth="yes"/>
      <point x="153" y="587"/>
      <point x="197" y="660"/>
      <point x="281" y="660" type="curve" smooth="yes"/>
      <point x="351" y="660"/>
      <point x="389" y="600"/>
      <point x="389" y="491" type="curve" smooth="yes"/>
      <point x="389" y="361"/>
      <point x="347" y="265"/>
    </contour>
  </outline>
</glyph>
<glyph name="uni13ED" format="2">
  <advance width="632"/>
  <unicode hex="13ED"/>
  <note>
uni13ED
</note>
  <anchor x="316" y="0" name="bottom"/>
  <anchor x="316" y="714" name="top"/>
  <outline>
    <contour>
      <point x="288" y="-11" type="curve" smooth="yes"/>
      <point x="484" y="-11"/>
      <point x="570" y="186"/>
      <point x="570" y="402" type="curve" smooth="yes"/>
      <point x="570" y="615"/>
      <point x="488" y="725"/>
      <point x="332" y="725" type="curve" smooth="yes"/>
      <point x="202" y="725"/>
      <point x="110" y="640"/>
      <point x="110" y="517" type="curve" smooth="yes"/>
      <point x="110" y="360"/>
      <point x="259" y="270"/>
      <point x="456" y="195" type="curve"/>
      <point x="430" y="107"/>
      <point x="367" y="55"/>
      <point x="288" y="55" type="curve" smooth="yes"/>
      <point x="187" y="55"/>
      <point x="133" y="93"/>
      <point x="133" y="208" type="curve" smooth="yes"/>
      <point x="133" y="226"/>
      <point x="134" y="245"/>
      <point x="135" y="252" type="curve"/>
      <point x="62" y="252" type="line"/>
      <point x="61" y="244"/>
      <point x="59" y="226"/>
      <point x="59" y="205" type="curve" smooth="yes"/>
      <point x="59" y="61"/>
      <point x="140" y="-11"/>
    </contour>
    <contour>
      <point x="475" y="261" type="curve"/>
      <point x="267" y="345"/>
      <point x="193" y="412"/>
      <point x="193" y="519" type="curve" smooth="yes"/>
      <point x="193" y="600"/>
      <point x="252" y="662"/>
      <point x="330" y="662" type="curve" smooth="yes"/>
      <point x="438" y="662"/>
      <point x="486" y="581"/>
      <point x="486" y="405" type="curve" smooth="yes"/>
      <point x="486" y="354"/>
      <point x="482" y="306"/>
    </contour>
  </outline>
</glyph>
<glyph name="uni13EE" format="2">
  <advance width="634"/>
  <unicode hex="13EE"/>
  <note>
uni13EE
</note>
  <anchor x="317" y="0" name="bottom"/>
  <anchor x="317" y="714" name="top"/>
  <outline>
    <contour>
      <point x="317" y="-9" type="curve" smooth="yes"/>
      <point x="466" y="-9"/>
      <point x="566" y="89"/>
      <point x="566" y="223" type="curve" smooth="yes"/>
      <point x="566" y="358"/>
      <point x="485" y="441"/>
      <point x="347" y="441" type="curve" smooth="yes"/>
      <point x="241" y="441"/>
      <point x="182" y="391"/>
      <point x="160" y="343" type="curve"/>
      <point x="156" y="343" type="line"/>
      <point x="160" y="510"/>
      <point x="220" y="661"/>
      <point x="362" y="661" type="curve" smooth="yes"/>
      <point x="420" y="661"/>
      <point x="459" y="646"/>
      <point x="480" y="617" type="curve"/>
      <point x="460" y="607"/>
      <point x="449" y="591"/>
      <point x="449" y="570" type="curve" smooth="yes"/>
      <point x="449" y="542"/>
      <point x="470" y="524"/>
      <point x="501" y="524" type="curve" smooth="yes"/>
      <point x="536" y="524"/>
      <point x="556" y="549"/>
      <point x="556" y="592" type="curve" smooth="yes"/>
      <point x="556" y="672"/>
      <point x="459" y="725"/>
      <point x="359" y="725" type="curve" smooth="yes"/>
      <point x="182" y="725"/>
      <point x="76" y="564"/>
      <point x="76" y="296" type="curve" smooth="yes"/>
      <point x="76" y="98"/>
      <point x="157" y="-9"/>
    </contour>
    <contour>
      <point x="320" y="56" type="curve" smooth="yes"/>
      <point x="223" y="56"/>
      <point x="166" y="121"/>
      <point x="166" y="218" type="curve" smooth="yes"/>
      <point x="166" y="310"/>
      <point x="226" y="376"/>
      <point x="331" y="376" type="curve" smooth="yes"/>
      <point x="429" y="376"/>
      <point x="484" y="317"/>
      <point x="484" y="222" type="curve" smooth="yes"/>
      <point x="484" y="123"/>
      <point x="423" y="56"/>
    </contour>
  </outline>
</glyph>
<glyph name="uni13EF" format="2">
  <advance width="1074"/>
  <unicode hex="13EF"/>
  <note>
uni13EF
</note>
  <anchor x="537" y="0" name="bottom"/>
  <anchor x="610" y="714" name="top"/>
  <outline>
    <contour>
      <point x="275" y="-11" type="curve" smooth="yes"/>
      <point x="389" y="-11"/>
      <point x="468" y="46"/>
      <point x="507" y="131" type="curve"/>
      <point x="510" y="131" type="line"/>
      <point x="543" y="49"/>
      <point x="603" y="-11"/>
      <point x="719" y="-11" type="curve" smooth="yes"/>
      <point x="896" y="-11"/>
      <point x="1015" y="127"/>
      <point x="1015" y="352" type="curve" smooth="yes"/>
      <point x="1015" y="569"/>
      <point x="852" y="725"/>
      <point x="607" y="725" type="curve" smooth="yes"/>
      <point x="484" y="725"/>
      <point x="393" y="686"/>
      <point x="340" y="636" type="curve"/>
      <point x="381" y="583" type="line"/>
      <point x="431" y="626"/>
      <point x="509" y="657"/>
      <point x="603" y="657" type="curve" smooth="yes"/>
      <point x="804" y="657"/>
      <point x="928" y="523"/>
      <point x="928" y="343" type="curve" smooth="yes"/>
      <point x="928" y="156"/>
      <point x="841" y="57"/>
      <point x="719" y="57" type="curve" smooth="yes"/>
      <point x="625" y="57"/>
      <point x="581" y="108"/>
      <point x="549" y="217" type="curve"/>
      <point x="558" y="266"/>
      <point x="591" y="330"/>
      <point x="613" y="343" type="curve"/>
      <point x="635" y="328"/>
      <point x="661" y="319"/>
      <point x="691" y="319" type="curve" smooth="yes"/>
      <point x="713" y="319"/>
      <point x="734" y="323"/>
      <point x="754" y="330" type="curve"/>
      <point x="749" y="394" type="line"/>
      <point x="731" y="389"/>
      <point x="715" y="387"/>
      <point x="701" y="387" type="curve" smooth="yes"/>
      <point x="670" y="387"/>
      <point x="631" y="406"/>
      <point x="611" y="406" type="curve" smooth="yes"/>
      <point x="574" y="406"/>
      <point x="545" y="377"/>
      <point x="520" y="308" type="curve"/>
      <point x="516" y="308" type="line"/>
      <point x="492" y="379"/>
      <point x="454" y="409"/>
      <point x="399" y="409" type="curve" smooth="yes"/>
      <point x="365" y="409"/>
      <point x="330" y="400"/>
      <point x="295" y="382" type="curve"/>
      <point x="300" y="321" type="line"/>
      <point x="336" y="334"/>
      <point x="384" y="345"/>
      <point x="405" y="345" type="curve"/>
      <point x="436" y="337"/>
      <point x="475" y="274"/>
      <point x="481" y="222" type="curve"/>
      <point x="448" y="114"/>
      <point x="383" y="57"/>
      <point x="283" y="57" type="curve" smooth="yes"/>
      <point x="187" y="57"/>
      <point x="131" y="124"/>
      <point x="131" y="241" type="curve" smooth="yes"/>
      <point x="131" y="301"/>
      <point x="145" y="353"/>
      <point x="161" y="390" type="curve"/>
      <point x="92" y="393" type="line"/>
      <point x="71" y="361"/>
      <point x="50" y="298"/>
      <point x="50" y="233" type="curve" smooth="yes"/>
      <point x="50" y="83"/>
      <point x="134" y="-11"/>
    </contour>
  </outline>
</glyph>
<glyph name="uni13F0" format="2">
  <advance width="774"/>
  <unicode hex="13F0"/>
  <note>
uni13F0
</note>
  <anchor x="567" y="0" name="bottom"/>
  <anchor x="503" y="714" name="top"/>
  <outline>
    <contour>
      <point x="267" y="-269" type="line"/>
      <point x="350" y="-269" type="line"/>
      <point x="350" y="-4" type="line"/>
      <point x="372" y="-8"/>
      <point x="403" y="-11"/>
      <point x="440" y="-11" type="curve" smooth="yes"/>
      <point x="617" y="-11"/>
      <point x="726" y="67"/>
      <point x="726" y="194" type="curve" smooth="yes"/>
      <point x="726" y="271"/>
      <point x="686" y="325"/>
      <point x="555" y="363" type="curve"/>
      <point x="555" y="369" type="line"/>
      <point x="612" y="407" type="line" smooth="yes"/>
      <point x="665" y="443"/>
      <point x="715" y="487"/>
      <point x="715" y="565" type="curve" smooth="yes"/>
      <point x="715" y="662"/>
      <point x="648" y="728"/>
      <point x="508" y="728" type="curve" smooth="yes"/>
      <point x="355" y="728"/>
      <point x="267" y="633"/>
      <point x="267" y="482" type="curve" smooth="yes"/>
      <point x="267" y="82" type="line"/>
      <point x="171" y="116"/>
      <point x="114" y="198"/>
      <point x="109" y="304" type="curve"/>
      <point x="38" y="304" type="line"/>
      <point x="39" y="150"/>
      <point x="114" y="55"/>
      <point x="267" y="10" type="curve"/>
    </contour>
    <contour>
      <point x="443" y="57" type="curve" smooth="yes"/>
      <point x="410" y="57"/>
      <point x="376" y="60"/>
      <point x="350" y="64" type="curve"/>
      <point x="350" y="476" type="line" smooth="yes"/>
      <point x="350" y="598"/>
      <point x="403" y="663"/>
      <point x="509" y="663" type="curve" smooth="yes"/>
      <point x="596" y="663"/>
      <point x="633" y="622"/>
      <point x="633" y="563" type="curve" smooth="yes"/>
      <point x="633" y="496"/>
      <point x="591" y="462"/>
      <point x="528" y="421" type="curve" smooth="yes"/>
      <point x="496" y="400"/>
      <point x="484" y="382"/>
      <point x="484" y="360" type="curve" smooth="yes"/>
      <point x="484" y="333"/>
      <point x="499" y="316"/>
      <point x="532" y="304" type="curve" smooth="yes"/>
      <point x="616" y="273"/>
      <point x="643" y="241"/>
      <point x="643" y="189" type="curve" smooth="yes"/>
      <point x="643" y="106"/>
      <point x="575" y="57"/>
    </contour>
  </outline>
</glyph>
<glyph name="uni13F1" format="2">
  <advance width="823"/>
  <unicode hex="13F1"/>
  <note>
uni13F1
</note>
  <anchor x="546" y="0" name="bottom"/>
  <anchor x="423" y="714" name="top"/>
  <outline>
    <contour>
      <point x="539" y="-8" type="curve" smooth="yes"/>
      <point x="685" y="-8"/>
      <point x="787" y="101"/>
      <point x="787" y="247" type="curve" smooth="yes"/>
      <point x="787" y="421"/>
      <point x="686" y="516"/>
      <point x="464" y="550" type="curve"/>
      <point x="464" y="657" type="line"/>
      <point x="550" y="665" type="line"/>
      <point x="550" y="714" type="line"/>
      <point x="299" y="714" type="line"/>
      <point x="299" y="665" type="line"/>
      <point x="385" y="657" type="line"/>
      <point x="385" y="578" type="line"/>
      <point x="382" y="519"/>
      <point x="311" y="428"/>
      <point x="165" y="343" type="curve"/>
      <point x="197" y="281" type="line"/>
      <point x="306" y="344"/>
      <point x="387" y="413"/>
      <point x="431" y="487" type="curve"/>
      <point x="604" y="466"/>
      <point x="701" y="403"/>
      <point x="701" y="243" type="curve" smooth="yes"/>
      <point x="701" y="138"/>
      <point x="637" y="54"/>
      <point x="537" y="54" type="curve" smooth="yes"/>
      <point x="472" y="54"/>
      <point x="429" y="93"/>
      <point x="429" y="153" type="curve" smooth="yes"/>
      <point x="429" y="204"/>
      <point x="458" y="236"/>
      <point x="507" y="240" type="curve"/>
      <point x="507" y="298" type="line"/>
      <point x="413" y="295"/>
      <point x="352" y="236"/>
      <point x="352" y="147" type="curve" smooth="yes"/>
      <point x="352" y="51"/>
      <point x="423" y="-8"/>
    </contour>
    <contour>
      <point x="37" y="72" type="line"/>
      <point x="147" y="76"/>
      <point x="219" y="143"/>
      <point x="219" y="241" type="curve" smooth="yes"/>
      <point x="219" y="336"/>
      <point x="156" y="404"/>
      <point x="51" y="410" type="curve"/>
      <point x="51" y="352" type="line"/>
      <point x="113" y="345"/>
      <point x="146" y="306"/>
      <point x="146" y="241" type="curve" smooth="yes"/>
      <point x="146" y="175"/>
      <point x="104" y="132"/>
      <point x="37" y="129" type="curve"/>
    </contour>
  </outline>
</glyph>
<glyph name="uni13F2" format="2">
  <advance width="769"/>
  <unicode hex="13F2"/>
  <note>
uni13F2
</note>
  <anchor x="385" y="0" name="bottom"/>
  <anchor x="403" y="714" name="top"/>
  <outline>
    <contour>
      <point x="55" y="0" type="line"/>
      <point x="305" y="0" type="line"/>
      <point x="305" y="49" type="line"/>
      <point x="222" y="57" type="line"/>
      <point x="222" y="168" type="line" smooth="yes"/>
      <point x="222" y="303"/>
      <point x="282" y="371"/>
      <point x="399" y="371" type="curve" smooth="yes"/>
      <point x="494" y="371"/>
      <point x="542" y="311"/>
      <point x="542" y="194" type="curve" smooth="yes"/>
      <point x="542" y="57" type="line"/>
      <point x="459" y="49" type="line"/>
      <point x="459" y="0" type="line"/>
      <point x="709" y="0" type="line"/>
      <point x="709" y="49" type="line"/>
      <point x="626" y="57" type="line"/>
      <point x="626" y="198" type="line" smooth="yes"/>
      <point x="626" y="359"/>
      <point x="556" y="435"/>
      <point x="409" y="435" type="curve" smooth="yes"/>
      <point x="315" y="435"/>
      <point x="252" y="396"/>
      <point x="223" y="334" type="curve"/>
      <point x="219" y="334" type="line"/>
      <point x="221" y="357"/>
      <point x="222" y="384"/>
      <point x="222" y="420" type="curve" smooth="yes"/>
      <point x="222" y="449" type="line" smooth="yes"/>
      <point x="222" y="583"/>
      <point x="288" y="661"/>
      <point x="412" y="661" type="curve" smooth="yes"/>
      <point x="500" y="661"/>
      <point x="535" y="629"/>
      <point x="546" y="613" type="curve"/>
      <point x="524" y="604"/>
      <point x="513" y="587"/>
      <point x="513" y="564" type="curve" smooth="yes"/>
      <point x="513" y="535"/>
      <point x="535" y="515"/>
      <point x="568" y="515" type="curve" smooth="yes"/>
      <point x="606" y="515"/>
      <point x="626" y="542"/>
      <point x="626" y="583" type="curve" smooth="yes"/>
      <point x="626" y="626"/>
      <point x="595" y="725"/>
      <point x="412" y="725" type="curve" smooth="yes"/>
      <point x="230" y="725"/>
      <point x="138" y="620"/>
      <point x="138" y="422" type="curve" smooth="yes"/>
      <point x="138" y="57" type="line"/>
      <point x="55" y="49" type="line"/>
    </contour>
  </outline>
</glyph>
<glyph name="uni13F3" format="2">
  <advance width="817"/>
  <unicode hex="13F3"/>
  <note>
uni13F3
</note>
  <anchor x="380" y="0" name="bottom"/>
  <anchor x="374" y="714" name="top"/>
  <outline>
    <contour>
      <point x="364" y="-11" type="curve" smooth="yes"/>
      <point x="457" y="-11"/>
      <point x="527" y="30"/>
      <point x="573" y="111" type="curve"/>
      <point x="573" y="0" type="line"/>
      <point x="649" y="0" type="line"/>
      <point x="649" y="256" type="line"/>
      <point x="731" y="264" type="line"/>
      <point x="731" y="312" type="line"/>
      <point x="485" y="312" type="line"/>
      <point x="485" y="264" type="line"/>
      <point x="572" y="256" type="line"/>
      <point x="572" y="208" type="line"/>
      <point x="555" y="120"/>
      <point x="471" y="57"/>
      <point x="368" y="57" type="curve" smooth="yes"/>
      <point x="225" y="57"/>
      <point x="150" y="160"/>
      <point x="150" y="351" type="curve" smooth="yes"/>
      <point x="150" y="544"/>
      <point x="233" y="657"/>
      <point x="376" y="657" type="curve" smooth="yes"/>
      <point x="459" y="657"/>
      <point x="516" y="621"/>
      <point x="569" y="523" type="curve"/>
      <point x="571" y="523" type="line"/>
      <point x="642" y="607" type="line"/>
      <point x="709" y="521" type="line"/>
      <point x="712" y="521" type="line"/>
      <point x="808" y="643" type="line"/>
      <point x="770" y="688" type="line"/>
      <point x="767" y="688" type="line"/>
      <point x="710" y="615" type="line"/>
      <point x="646" y="695" type="line"/>
      <point x="644" y="695" type="line"/>
      <point x="577" y="617" type="line"/>
      <point x="535" y="691"/>
      <point x="470" y="725"/>
      <point x="376" y="725" type="curve" smooth="yes"/>
      <point x="172" y="725"/>
      <point x="62" y="569"/>
      <point x="62" y="354" type="curve" smooth="yes"/>
      <point x="62" y="117"/>
      <point x="168" y="-11"/>
    </contour>
  </outline>
</glyph>
<glyph name="uni13F4" format="2">
  <advance width="732"/>
  <unicode hex="13F4"/>
  <note>
uni13F4
</note>
  <anchor x="380" y="0" name="bottom"/>
  <anchor x="380" y="714" name="top"/>
  <outline>
    <contour>
      <point x="70" y="0" type="line"/>
      <point x="371" y="0" type="line" smooth="yes"/>
      <point x="570" y="0"/>
      <point x="665" y="66"/>
      <point x="665" y="202" type="curve" smooth="yes"/>
      <point x="665" y="297"/>
      <point x="616" y="359"/>
      <point x="508" y="375" type="curve"/>
      <point x="508" y="379" type="line"/>
      <point x="595" y="394"/>
      <point x="644" y="457"/>
      <point x="644" y="538" type="curve" smooth="yes"/>
      <point x="644" y="664"/>
      <point x="556" y="714"/>
      <point x="361" y="714" type="curve" smooth="yes"/>
      <point x="70" y="714" type="line"/>
      <point x="70" y="665" type="line"/>
      <point x="165" y="657" type="line"/>
      <point x="165" y="57" type="line"/>
      <point x="70" y="49" type="line"/>
    </contour>
    <contour>
      <point x="250" y="62" type="line"/>
      <point x="250" y="341" type="line"/>
      <point x="402" y="341" type="line" smooth="yes"/>
      <point x="522" y="341"/>
      <point x="577" y="298"/>
      <point x="577" y="207" type="curve" smooth="yes"/>
      <point x="577" y="106"/>
      <point x="514" y="62"/>
      <point x="371" y="62" type="curve" smooth="yes"/>
    </contour>
    <contour>
      <point x="250" y="403" type="line"/>
      <point x="250" y="652" type="line"/>
      <point x="359" y="652" type="line" smooth="yes"/>
      <point x="501" y="652"/>
      <point x="559" y="617"/>
      <point x="559" y="529" type="curve" smooth="yes"/>
      <point x="559" y="440"/>
      <point x="510" y="403"/>
      <point x="397" y="403" type="curve" smooth="yes"/>
    </contour>
  </outline>
</glyph>
<glyph name="uni13F5" format="2">
  <advance width="778"/>
  <unicode hex="13F5"/>
  <note>
uni13C0
</note>
  <anchor x="389" y="0" name="bottom"/>
  <anchor x="389" y="714" name="top"/>
  <outline>
    <contour>
      <point x="378" y="-10" type="curve" smooth="yes"/>
      <point x="502" y="-10"/>
      <point x="587" y="18"/>
      <point x="647" y="42" type="curve"/>
      <point x="647" y="253" type="line"/>
      <point x="728" y="262" type="line"/>
      <point x="728" y="311" type="line"/>
      <point x="482" y="311" type="line"/>
      <point x="482" y="262" type="line"/>
      <point x="569" y="253" type="line"/>
      <point x="569" y="88" type="line"/>
      <point x="526" y="71"/>
      <point x="463" y="57"/>
      <point x="385" y="57" type="curve" smooth="yes"/>
      <point x="223" y="57"/>
      <point x="150" y="141"/>
      <point x="150" y="265" type="curve" smooth="yes"/>
      <point x="150" y="479"/>
      <point x="317" y="585"/>
      <point x="628" y="657" type="curve"/>
      <point x="608" y="727" type="line"/>
      <point x="245" y="655"/>
      <point x="62" y="504"/>
      <point x="62" y="263" type="curve" smooth="yes"/>
      <point x="62" y="100"/>
      <point x="168" y="-10"/>
    </contour>
  </outline>
</glyph>
<glyph name="uni13F8" format="2">
  <advance width="624"/>
  <unicode hex="13F8"/>
  <anchor x="467" y="0" name="bottom"/>
  <anchor x="408" y="535" name="top"/>
  <outline>
    <contour>
      <point x="211" y="-206" type="line"/>
      <point x="290" y="-206" type="line"/>
      <point x="290" y="-3" type="line"/>
      <point x="306" y="-6"/>
      <point x="328" y="-7"/>
      <point x="354" y="-7" type="curve" smooth="yes"/>
      <point x="497" y="-7"/>
      <point x="583" y="52"/>
      <point x="583" y="148" type="curve" smooth="yes"/>
      <point x="583" y="211"/>
      <point x="544" y="251"/>
      <point x="453" y="275" type="curve"/>
      <point x="453" y="278" type="line"/>
      <point x="493" y="302" type="line" smooth="yes"/>
      <point x="536" y="328"/>
      <point x="575" y="357"/>
      <point x="575" y="419" type="curve" smooth="yes"/>
      <point x="575" y="496"/>
      <point x="519" y="547"/>
      <point x="407" y="547" type="curve" smooth="yes"/>
      <point x="278" y="547"/>
      <point x="211" y="475"/>
      <point x="211" y="357" type="curve" smooth="yes"/>
      <point x="211" y="78" type="line"/>
      <point x="143" y="101"/>
      <point x="103" y="155"/>
      <point x="100" y="230" type="curve"/>
      <point x="32" y="230" type="line"/>
      <point x="33" y="112"/>
      <point x="92" y="42"/>
      <point x="211" y="9" type="curve"/>
    </contour>
    <contour>
      <point x="357" y="55" type="curve" smooth="yes"/>
      <point x="333" y="55"/>
      <point x="309" y="57"/>
      <point x="290" y="60" type="curve"/>
      <point x="290" y="354" type="line" smooth="yes"/>
      <point x="290" y="442"/>
      <point x="327" y="487"/>
      <point x="405" y="487" type="curve" smooth="yes"/>
      <point x="468" y="487"/>
      <point x="496" y="458"/>
      <point x="496" y="413" type="curve" smooth="yes"/>
      <point x="496" y="368"/>
      <point x="468" y="348"/>
      <point x="419" y="319" type="curve" smooth="yes"/>
      <point x="394" y="304"/>
      <point x="384" y="292"/>
      <point x="384" y="272" type="curve" smooth="yes"/>
      <point x="384" y="251"/>
      <point x="395" y="240"/>
      <point x="421" y="230" type="curve" smooth="yes"/>
      <point x="482" y="207"/>
      <point x="505" y="185"/>
      <point x="505" y="147" type="curve" smooth="yes"/>
      <point x="505" y="90"/>
      <point x="455" y="55"/>
    </contour>
  </outline>
</glyph>
<glyph name="uni13F9" format="2">
  <advance width="665"/>
  <unicode hex="13F9"/>
  <anchor x="333" y="0" name="bottom"/>
  <anchor x="351" y="535" name="top"/>
  <outline>
    <contour>
      <point x="435" y="-9" type="curve" smooth="yes"/>
      <point x="552" y="-9"/>
      <point x="631" y="69"/>
      <point x="631" y="186" type="curve" smooth="yes"/>
      <point x="631" y="311"/>
      <point x="551" y="383"/>
      <point x="387" y="414" type="curve"/>
      <point x="387" y="483" type="line"/>
      <point x="453" y="488" type="line"/>
      <point x="453" y="535" type="line"/>
      <point x="248" y="535" type="line"/>
      <point x="248" y="488" type="line"/>
      <point x="314" y="483" type="line"/>
      <point x="314" y="428" type="line"/>
      <point x="307" y="380"/>
      <point x="242" y="309"/>
      <point x="130" y="250" type="curve"/>
      <point x="158" y="193" type="line"/>
      <point x="250" y="241"/>
      <point x="319" y="300"/>
      <point x="355" y="358" type="curve"/>
      <point x="480" y="338"/>
      <point x="553" y="292"/>
      <point x="553" y="182" type="curve" smooth="yes"/>
      <point x="553" y="103"/>
      <point x="513" y="49"/>
      <point x="436" y="49" type="curve" smooth="yes"/>
      <point x="382" y="49"/>
      <point x="356" y="72"/>
      <point x="356" y="115" type="curve" smooth="yes"/>
      <point x="356" y="153"/>
      <point x="378" y="173"/>
      <point x="412" y="175" type="curve"/>
      <point x="412" y="229" type="line"/>
      <point x="338" y="227"/>
      <point x="288" y="185"/>
      <point x="288" y="113" type="curve" smooth="yes"/>
      <point x="288" y="37"/>
      <point x="341" y="-9"/>
    </contour>
    <contour>
      <point x="31" y="44" type="line"/>
      <point x="119" y="47"/>
      <point x="180" y="100"/>
      <point x="180" y="180" type="curve" smooth="yes"/>
      <point x="180" y="256"/>
      <point x="127" y="309"/>
      <point x="41" y="312" type="curve"/>
      <point x="41" y="258" type="line"/>
      <point x="87" y="254"/>
      <point x="115" y="226"/>
      <point x="115" y="179" type="curve" smooth="yes"/>
      <point x="115" y="130"/>
      <point x="81" y="100"/>
      <point x="31" y="98" type="curve"/>
    </contour>
  </outline>
</glyph>
<glyph name="uni13FA" format="2">
  <advance width="612"/>
  <unicode hex="13FA"/>
  <anchor x="306" y="0" name="bottom"/>
  <anchor x="306" y="535" name="top"/>
  <outline>
    <contour>
      <point x="44" y="0" type="line"/>
      <point x="248" y="0" type="line"/>
      <point x="248" y="46" type="line"/>
      <point x="185" y="52" type="line"/>
      <point x="185" y="123" type="line" smooth="yes"/>
      <point x="185" y="215"/>
      <point x="228" y="265"/>
      <point x="316" y="265" type="curve" smooth="yes"/>
      <point x="389" y="265"/>
      <point x="424" y="222"/>
      <point x="424" y="143" type="curve" smooth="yes"/>
      <point x="424" y="52" type="line"/>
      <point x="362" y="46" type="line"/>
      <point x="362" y="0" type="line"/>
      <point x="566" y="0" type="line"/>
      <point x="566" y="46" type="line"/>
      <point x="503" y="52" type="line"/>
      <point x="503" y="148" type="line" smooth="yes"/>
      <point x="503" y="268"/>
      <point x="446" y="328"/>
      <point x="333" y="328" type="curve" smooth="yes"/>
      <point x="255" y="328"/>
      <point x="206" y="294"/>
      <point x="185" y="249" type="curve"/>
      <point x="182" y="249" type="line"/>
      <point x="184" y="264"/>
      <point x="185" y="282"/>
      <point x="185" y="303" type="curve" smooth="yes"/>
      <point x="185" y="338" type="line" smooth="yes"/>
      <point x="185" y="433"/>
      <point x="232" y="488"/>
      <point x="324" y="488" type="curve" smooth="yes"/>
      <point x="386" y="488"/>
      <point x="413" y="468"/>
      <point x="422" y="453" type="curve"/>
      <point x="408" y="448"/>
      <point x="401" y="438"/>
      <point x="401" y="424" type="curve" smooth="yes"/>
      <point x="401" y="398"/>
      <point x="419" y="382"/>
      <point x="448" y="382" type="curve" smooth="yes"/>
      <point x="479" y="382"/>
      <point x="497" y="403"/>
      <point x="497" y="435" type="curve" smooth="yes"/>
      <point x="497" y="481"/>
      <point x="461" y="546"/>
      <point x="326" y="546" type="curve" smooth="yes"/>
      <point x="180" y="546"/>
      <point x="106" y="466"/>
      <point x="106" y="317" type="curve" smooth="yes"/>
      <point x="106" y="52" type="line"/>
      <point x="44" y="46" type="line"/>
    </contour>
  </outline>
</glyph>
<glyph name="uni13FB" format="2">
  <advance width="653"/>
  <unicode hex="13FB"/>
  <anchor x="327" y="0" name="bottom"/>
  <anchor x="327" y="535" name="top"/>
  <outline>
    <contour>
      <point x="279" y="-8" type="curve" smooth="yes"/>
      <point x="351" y="-8"/>
      <point x="403" y="21"/>
      <point x="437" y="74" type="curve"/>
      <point x="437" y="0" type="line"/>
      <point x="508" y="0" type="line"/>
      <point x="508" y="188" type="line"/>
      <point x="568" y="194" type="line"/>
      <point x="568" y="240" type="line"/>
      <point x="371" y="240" type="line"/>
      <point x="371" y="194" type="line"/>
      <point x="436" y="188" type="line"/>
      <point x="436" y="151" type="line"/>
      <point x="423" y="94"/>
      <point x="366" y="53"/>
      <point x="293" y="53" type="curve" smooth="yes"/>
      <point x="190" y="53"/>
      <point x="132" y="122"/>
      <point x="132" y="263" type="curve" smooth="yes"/>
      <point x="132" y="404"/>
      <point x="196" y="483"/>
      <point x="303" y="483" type="curve" smooth="yes"/>
      <point x="368" y="483"/>
      <point x="411" y="457"/>
      <point x="451" y="389" type="curve"/>
      <point x="453" y="389" type="line"/>
      <point x="508" y="451" type="line"/>
      <point x="560" y="388" type="line"/>
      <point x="562" y="388" type="line"/>
      <point x="643" y="484" type="line"/>
      <point x="608" y="521" type="line"/>
      <point x="606" y="521" type="line"/>
      <point x="560" y="467" type="line"/>
      <point x="510" y="525" type="line"/>
      <point x="509" y="525" type="line"/>
      <point x="457" y="468" type="line"/>
      <point x="425" y="516"/>
      <point x="375" y="543"/>
      <point x="299" y="543" type="curve" smooth="yes"/>
      <point x="140" y="543"/>
      <point x="50" y="430"/>
      <point x="50" y="262" type="curve" smooth="yes"/>
      <point x="50" y="86"/>
      <point x="135" y="-8"/>
    </contour>
  </outline>
</glyph>
<glyph name="uni13FC" format="2">
  <advance width="582"/>
  <unicode hex="13FC"/>
  <anchor x="291" y="0" name="bottom"/>
  <anchor x="291" y="535" name="top"/>
  <outline>
    <contour>
      <point x="56" y="0" type="line"/>
      <point x="306" y="0" type="line" smooth="yes"/>
      <point x="452" y="0"/>
      <point x="529" y="51"/>
      <point x="529" y="153" type="curve" smooth="yes"/>
      <point x="529" y="227"/>
      <point x="488" y="269"/>
      <point x="411" y="281" type="curve"/>
      <point x="411" y="284" type="line"/>
      <point x="474" y="295"/>
      <point x="514" y="340"/>
      <point x="514" y="403" type="curve" smooth="yes"/>
      <point x="514" y="494"/>
      <point x="448" y="535"/>
      <point x="295" y="535" type="curve" smooth="yes"/>
      <point x="56" y="535" type="line"/>
      <point x="56" y="488" type="line"/>
      <point x="125" y="482" type="line"/>
      <point x="125" y="52" type="line"/>
      <point x="56" y="46" type="line"/>
    </contour>
    <contour>
      <point x="205" y="56" type="line"/>
      <point x="205" y="251" type="line"/>
      <point x="317" y="251" type="line" smooth="yes"/>
      <point x="405" y="251"/>
      <point x="446" y="220"/>
      <point x="446" y="158" type="curve" smooth="yes"/>
      <point x="446" y="88"/>
      <point x="401" y="56"/>
      <point x="303" y="56" type="curve" smooth="yes"/>
    </contour>
    <contour>
      <point x="205" y="306" type="line"/>
      <point x="205" y="479" type="line"/>
      <point x="293" y="479" type="line" smooth="yes"/>
      <point x="391" y="479"/>
      <point x="433" y="455"/>
      <point x="433" y="393" type="curve" smooth="yes"/>
      <point x="433" y="334"/>
      <point x="396" y="306"/>
      <point x="314" y="306" type="curve" smooth="yes"/>
    </contour>
  </outline>
</glyph>
<glyph name="uni13FD" format="2">
  <advance width="610"/>
  <unicode hex="13FD"/>
  <anchor x="305" y="0" name="bottom"/>
  <anchor x="305" y="535" name="top"/>
  <outline>
    <contour>
      <point x="300" y="-8" type="curve" smooth="yes"/>
      <point x="396" y="-8"/>
      <point x="460" y="11"/>
      <point x="507" y="28" type="curve"/>
      <point x="507" y="187" type="line"/>
      <point x="567" y="193" type="line"/>
      <point x="567" y="239" type="line"/>
      <point x="369" y="239" type="line"/>
      <point x="369" y="193" type="line"/>
      <point x="435" y="187" type="line"/>
      <point x="435" y="73" type="line"/>
      <point x="404" y="62"/>
      <point x="362" y="53"/>
      <point x="305" y="53" type="curve" smooth="yes"/>
      <point x="188" y="53"/>
      <point x="132" y="111"/>
      <point x="132" y="200" type="curve" smooth="yes"/>
      <point x="132" y="347"/>
      <point x="253" y="431"/>
      <point x="498" y="480" type="curve"/>
      <point x="479" y="544" type="line"/>
      <point x="202" y="495"/>
      <point x="50" y="381"/>
      <point x="50" y="199" type="curve" smooth="yes"/>
      <point x="50" y="74"/>
      <point x="133" y="-8"/>
    </contour>
  </outline>
</glyph>
<glyph name="uniAB70" format="2">
  <advance width="628"/>
  <unicode hex="AB70"/>
  <anchor x="314" y="0" name="bottom"/>
  <anchor x="314" y="535" name="top"/>
  <outline>
    <contour>
      <point x="56" y="0" type="line"/>
      <point x="276" y="0" type="line" smooth="yes"/>
      <point x="462" y="0"/>
      <point x="564" y="95"/>
      <point x="564" y="272" type="curve" smooth="yes"/>
      <point x="564" y="441"/>
      <point x="466" y="535"/>
      <point x="293" y="535" type="curve" smooth="yes"/>
      <point x="56" y="535" type="line"/>
      <point x="56" y="487" type="line"/>
      <point x="117" y="481" type="line"/>
      <point x="117" y="53" type="line"/>
      <point x="56" y="47" type="line"/>
    </contour>
    <contour>
      <point x="196" y="59" type="line"/>
      <point x="196" y="476" type="line"/>
      <point x="285" y="476" type="line" smooth="yes"/>
      <point x="414" y="476"/>
      <point x="482" y="407"/>
      <point x="482" y="271" type="curve" smooth="yes"/>
      <point x="482" y="129"/>
      <point x="409" y="59"/>
      <point x="273" y="59" type="curve" smooth="yes"/>
    </contour>
  </outline>
</glyph>
<glyph name="uniAB71" format="2">
  <advance width="583"/>
  <unicode hex="AB71"/>
  <anchor x="292" y="0" name="bottom"/>
  <anchor x="292" y="535" name="top"/>
  <outline>
    <contour>
      <point x="489" y="-4" type="curve" smooth="yes"/>
      <point x="515" y="-4"/>
      <point x="534" y="1"/>
      <point x="547" y="6" type="curve"/>
      <point x="541" y="51" type="line"/>
      <point x="536" y="50"/>
      <point x="529" y="49"/>
      <point x="519" y="49" type="curve" smooth="yes"/>
      <point x="494" y="49"/>
      <point x="482" y="60"/>
      <point x="475" y="93" type="curve" smooth="yes"/>
      <point x="463" y="150" type="line" smooth="yes"/>
      <point x="451" y="208"/>
      <point x="424" y="241"/>
      <point x="382" y="254" type="curve"/>
      <point x="382" y="256" type="line"/>
      <point x="456" y="271"/>
      <point x="497" y="320"/>
      <point x="497" y="394" type="curve" smooth="yes"/>
      <point x="497" y="488"/>
      <point x="434" y="535"/>
      <point x="295" y="535" type="curve" smooth="yes"/>
      <point x="56" y="535" type="line"/>
      <point x="56" y="488" type="line"/>
      <point x="117" y="483" type="line"/>
      <point x="117" y="52" type="line"/>
      <point x="56" y="46" type="line"/>
      <point x="56" y="0" type="line"/>
      <point x="259" y="0" type="line"/>
      <point x="259" y="46" type="line"/>
      <point x="196" y="52" type="line"/>
      <point x="196" y="229" type="line"/>
      <point x="314" y="229" type="line"/>
      <point x="353" y="223"/>
      <point x="377" y="195"/>
      <point x="389" y="130" type="curve" smooth="yes"/>
      <point x="399" y="77" type="line" smooth="yes"/>
      <point x="409" y="24"/>
      <point x="430" y="-4"/>
    </contour>
    <contour>
      <point x="196" y="283" type="line"/>
      <point x="196" y="478" type="line"/>
      <point x="281" y="478" type="line" smooth="yes"/>
      <point x="370" y="478"/>
      <point x="415" y="458"/>
      <point x="415" y="383" type="curve" smooth="yes"/>
      <point x="415" y="314"/>
      <point x="373" y="283"/>
      <point x="296" y="283" type="curve" smooth="yes"/>
    </contour>
  </outline>
</glyph>
<glyph name="uniAB72" format="2">
  <advance width="552"/>
  <unicode hex="AB72"/>
  <anchor x="276" y="0" name="bottom"/>
  <anchor x="276" y="535" name="top"/>
  <outline>
    <contour>
      <point x="159" y="0" type="line"/>
      <point x="392" y="0" type="line"/>
      <point x="392" y="46" type="line"/>
      <point x="316" y="53" type="line"/>
      <point x="316" y="478" type="line"/>
      <point x="460" y="478" type="line"/>
      <point x="467" y="392" type="line"/>
      <point x="519" y="392" type="line"/>
      <point x="519" y="535" type="line"/>
      <point x="33" y="535" type="line"/>
      <point x="33" y="392" type="line"/>
      <point x="85" y="392" type="line"/>
      <point x="92" y="478" type="line"/>
      <point x="236" y="478" type="line"/>
      <point x="236" y="53" type="line"/>
      <point x="159" y="46" type="line"/>
    </contour>
  </outline>
</glyph>
<glyph name="uniAB73" format="2">
  <advance width="693"/>
  <unicode hex="AB73"/>
  <anchor x="347" y="0" name="bottom"/>
  <anchor x="376" y="535" name="top"/>
  <outline>
    <contour>
      <point x="434" y="-9" type="line"/>
      <point x="563" y="1"/>
      <point x="646" y="75"/>
      <point x="646" y="191" type="curve" smooth="yes"/>
      <point x="646" y="304"/>
      <point x="569" y="376"/>
      <point x="416" y="413" type="curve"/>
      <point x="416" y="483" type="line"/>
      <point x="480" y="488" type="line"/>
      <point x="480" y="535" type="line"/>
      <point x="277" y="535" type="line"/>
      <point x="277" y="488" type="line"/>
      <point x="342" y="483" type="line"/>
      <point x="342" y="428" type="line"/>
      <point x="340" y="401"/>
      <point x="296" y="361"/>
      <point x="240" y="337" type="curve"/>
      <point x="230" y="339"/>
      <point x="222" y="340"/>
      <point x="212" y="340" type="curve" smooth="yes"/>
      <point x="113" y="340"/>
      <point x="46" y="275"/>
      <point x="46" y="170" type="curve" smooth="yes"/>
      <point x="46" y="66"/>
      <point x="109" y="5"/>
      <point x="211" y="5" type="curve" smooth="yes"/>
      <point x="310" y="5"/>
      <point x="377" y="72"/>
      <point x="377" y="176" type="curve" smooth="yes"/>
      <point x="377" y="239"/>
      <point x="350" y="285"/>
      <point x="308" y="312" type="curve"/>
      <point x="333" y="324"/>
      <point x="359" y="342"/>
      <point x="380" y="361" type="curve"/>
      <point x="501" y="335"/>
      <point x="572" y="281"/>
      <point x="572" y="189" type="curve" smooth="yes"/>
      <point x="572" y="109"/>
      <point x="522" y="63"/>
      <point x="434" y="50" type="curve"/>
    </contour>
    <contour>
      <point x="211" y="62" type="curve" smooth="yes"/>
      <point x="154" y="62"/>
      <point x="119" y="102"/>
      <point x="119" y="172" type="curve" smooth="yes"/>
      <point x="119" y="241"/>
      <point x="155" y="282"/>
      <point x="212" y="282" type="curve" smooth="yes"/>
      <point x="270" y="282"/>
      <point x="304" y="244"/>
      <point x="304" y="174" type="curve" smooth="yes"/>
      <point x="304" y="104"/>
      <point x="268" y="62"/>
    </contour>
  </outline>
</glyph>
<glyph name="uniAB74" format="2">
  <advance width="867"/>
  <unicode hex="AB74"/>
  <anchor x="290" y="0" name="bottom"/>
  <anchor x="290" y="535" name="top"/>
  <outline>
    <contour>
      <point x="290" y="-8" type="curve" smooth="yes"/>
      <point x="433" y="-8"/>
      <point x="513" y="79"/>
      <point x="525" y="238" type="curve"/>
      <point x="555" y="195"/>
      <point x="595" y="176"/>
      <point x="653" y="176" type="curve" smooth="yes"/>
      <point x="759" y="176"/>
      <point x="822" y="254"/>
      <point x="822" y="385" type="curve" smooth="yes"/>
      <point x="822" y="488"/>
      <point x="774" y="546"/>
      <point x="691" y="546" type="curve" smooth="yes"/>
      <point x="621" y="546"/>
      <point x="579" y="503"/>
      <point x="579" y="431" type="curve" smooth="yes"/>
      <point x="579" y="413"/>
      <point x="580" y="400"/>
      <point x="581" y="391" type="curve"/>
      <point x="640" y="391" type="line"/>
      <point x="640" y="399"/>
      <point x="639" y="408"/>
      <point x="639" y="417" type="curve" smooth="yes"/>
      <point x="639" y="465"/>
      <point x="657" y="487"/>
      <point x="693" y="487" type="curve" smooth="yes"/>
      <point x="734" y="487"/>
      <point x="756" y="455"/>
      <point x="756" y="385" type="curve" smooth="yes"/>
      <point x="756" y="285"/>
      <point x="720" y="240"/>
      <point x="646" y="240" type="curve" smooth="yes"/>
      <point x="581" y="240"/>
      <point x="536" y="285"/>
      <point x="517" y="361" type="curve" smooth="yes"/>
      <point x="487" y="480"/>
      <point x="413" y="543"/>
      <point x="292" y="543" type="curve" smooth="yes"/>
      <point x="135" y="543"/>
      <point x="50" y="440"/>
      <point x="50" y="268" type="curve" smooth="yes"/>
      <point x="50" y="94"/>
      <point x="131" y="-8"/>
    </contour>
    <contour>
      <point x="290" y="57" type="curve" smooth="yes"/>
      <point x="185" y="57"/>
      <point x="133" y="133"/>
      <point x="133" y="268" type="curve" smooth="yes"/>
      <point x="133" y="404"/>
      <point x="185" y="479"/>
      <point x="292" y="479" type="curve" smooth="yes"/>
      <point x="395" y="479"/>
      <point x="446" y="405"/>
      <point x="446" y="268" type="curve" smooth="yes"/>
      <point x="446" y="131"/>
      <point x="396" y="57"/>
    </contour>
  </outline>
</glyph>
<glyph name="uniAB75" format="2">
  <advance width="287"/>
  <unicode hex="AB75"/>
  <anchor x="144" y="0" name="bottom"/>
  <anchor x="144" y="535" name="top"/>
  <outline>
    <contour>
      <point x="37" y="0" type="line"/>
      <point x="251" y="0" type="line"/>
      <point x="251" y="46" type="line"/>
      <point x="184" y="53" type="line"/>
      <point x="184" y="351" type="line"/>
      <point x="104" y="351" type="line"/>
      <point x="104" y="53" type="line"/>
      <point x="37" y="46" type="line"/>
    </contour>
    <contour>
      <point x="144" y="442" type="curve" smooth="yes"/>
      <point x="173" y="442"/>
      <point x="191" y="460"/>
      <point x="191" y="490" type="curve" smooth="yes"/>
      <point x="191" y="519"/>
      <point x="174" y="537"/>
      <point x="144" y="537" type="curve" smooth="yes"/>
      <point x="114" y="537"/>
      <point x="97" y="520"/>
      <point x="97" y="490" type="curve" smooth="yes"/>
      <point x="97" y="460"/>
      <point x="114" y="442"/>
    </contour>
  </outline>
</glyph>
<glyph name="uniAB76" format="2">
  <advance width="527"/>
  <unicode hex="AB76"/>
  <anchor x="264" y="0" name="bottom"/>
  <anchor x="264" y="535" name="top"/>
  <outline>
    <contour>
      <point x="239" y="-11" type="curve" smooth="yes"/>
      <point x="369" y="-11"/>
      <point x="440" y="48"/>
      <point x="440" y="134" type="curve" smooth="yes"/>
      <point x="440" y="182"/>
      <point x="417" y="213"/>
      <point x="357" y="248" type="curve"/>
      <point x="357" y="251" type="line"/>
      <point x="375" y="249"/>
      <point x="393" y="249"/>
      <point x="414" y="249" type="curve" smooth="yes"/>
      <point x="473" y="249" type="line"/>
      <point x="473" y="301" type="line"/>
      <point x="271" y="301" type="line"/>
      <point x="192" y="333"/>
      <point x="163" y="361"/>
      <point x="163" y="410" type="curve" smooth="yes"/>
      <point x="163" y="461"/>
      <point x="202" y="489"/>
      <point x="271" y="489" type="curve" smooth="yes"/>
      <point x="320" y="489"/>
      <point x="356" y="475"/>
      <point x="367" y="455" type="curve"/>
      <point x="355" y="450"/>
      <point x="349" y="439"/>
      <point x="349" y="426" type="curve" smooth="yes"/>
      <point x="349" y="401"/>
      <point x="364" y="386"/>
      <point x="392" y="386" type="curve" smooth="yes"/>
      <point x="422" y="386"/>
      <point x="439" y="406"/>
      <point x="439" y="439" type="curve" smooth="yes"/>
      <point x="439" y="504"/>
      <point x="364" y="546"/>
      <point x="271" y="546" type="curve" smooth="yes"/>
      <point x="158" y="546"/>
      <point x="87" y="493"/>
      <point x="87" y="410" type="curve" smooth="yes"/>
      <point x="87" y="362"/>
      <point x="110" y="329"/>
      <point x="161" y="298" type="curve"/>
      <point x="161" y="296" type="line"/>
      <point x="146" y="297"/>
      <point x="128" y="298"/>
      <point x="105" y="298" type="curve" smooth="yes"/>
      <point x="54" y="298" type="line"/>
      <point x="54" y="245" type="line"/>
      <point x="250" y="245" type="line"/>
      <point x="330" y="214"/>
      <point x="364" y="181"/>
      <point x="364" y="135" type="curve" smooth="yes"/>
      <point x="364" y="78"/>
      <point x="318" y="48"/>
      <point x="240" y="48" type="curve" smooth="yes"/>
      <point x="192" y="48"/>
      <point x="154" y="62"/>
      <point x="142" y="81" type="curve"/>
      <point x="157" y="86"/>
      <point x="163" y="95"/>
      <point x="163" y="109" type="curve" smooth="yes"/>
      <point x="163" y="135"/>
      <point x="148" y="150"/>
      <point x="120" y="150" type="curve" smooth="yes"/>
      <point x="91" y="150"/>
      <point x="72" y="129"/>
      <point x="72" y="96" type="curve" smooth="yes"/>
      <point x="72" y="30"/>
      <point x="144" y="-11"/>
    </contour>
  </outline>
</glyph>
